<?xml version="1.0" encoding="utf-8"?>
<!-- Generator: Adobe Illustrator 28.2.0, SVG Export Plug-In . SVG Version: 6.00 Build 0)  -->
<svg version="1.1" id="Layer_1" xmlns="http://www.w3.org/2000/svg" xmlns:xlink="http://www.w3.org/1999/xlink" x="0px" y="0px"
	 viewBox="0 0 1920 1080" style="enable-background:new 0 0 1920 1080;" xml:space="preserve">
<style type="text/css">
	.st0{opacity:0.5;}
	.st1{fill:#E36825;}
	.st2{fill:#F2A31E;}
	.st3{fill:#63BC46;}
	.st4{fill:#1367AC;}
	.st5{fill:#D51870;}
	.st6{fill:#6D2877;}
</style>
<rect width="1920" height="1080"/>
<g class="st0">
	<path class="st1" d="M-1.2,180.1c1.5-2.7,2.4-4.3,3.2-5.8c-0.4-0.5-1.9-1.6-2-2.8c-0.2-8-0.1-16-0.1-24.2c1.9-0.2,3.5-0.3,5.1-0.4
		c0-0.2,0-0.4,0-0.5c-1.6-0.1-3.2-0.3-5.3-0.5c2.8-4-1.1-7.6,0.3-11.3c0.5-1.5,1.3-2.9,1.7-3.7c-3.8-5.5-0.6-12-2.1-18.4
		c3.7-0.7,7-1.2,10.3-1.8c0-0.1,0-0.3,0-0.4c-3.1,0-6.2,0-9.6,0c0-9.8,0-19.2,0-29.3c5.8,0,11.5,0,18.2,0c-6.3-4.7-12.4,0-18.2-2.4
		c0-25.7,0-51.7,0-78.5c26.4,0,52.8,0,79.3,0s53,0,79.5,0s53-0.3,79.5,0.1c26.1,0.4,52.3-2,78.5,1.1c-1.3-0.1-2.7-0.3-4-0.4
		c0-0.1,0.1-0.2,0.1-0.3c48.9,0,97.8,0,146.7,0c0.1,2,1.8,2.7,8.1,4.6c-4-0.2-8-0.5-12-0.7c0.1-0.3,0.2-0.6,0.3-0.9
		c-1.8,1-3.7,2.1-5.1,2.9c0.1,0.5,0.3,1.1,0.4,1.7c-1.5,0.1-3.1,0.3-4.6,0.3c-1.8,0.1-3.6,0-5.5,0c0,0.6,0,1.3-0.1,1.9
		c7.5,0,15,0,22.5,0c0,0.5,0,1,0,1.5c-9.6,0.5-19.2,1-29.4,1.5c3.6,1,6.7,1.9,9.8,2.8c0,0.3-0.1,0.5-0.1,0.8
		c-5.3,0.3-10.6,0.5-15.9,0.8c17.9,2.6,36.1-0.2,54,2.3c-17.9,6.1-36.3,3.9-54.7,4.8c0.4-0.8,0.7-1.5,1.6-3.3
		c-8.6,1.7-16.4,3.3-24.2,4.9c0.1,0.4,0.2,0.8,0.2,1.2c13.8,0.8,27.6,1.5,42.8,2.3c-2.2,0.7-3.5,1.1-6.1,1.9c7.7,0,14,0,20.2,0
		c0,0.3,0,0.5,0,0.8c-4.6,0.6-9.3,1.1-13.9,1.7c0,0.2,0,0.4,0,0.5c7.9,0,15.8,0,23.7,0c0,0.3,0,0.6,0,0.9
		c-5.6,0.4-11.2,0.4-16.7,1.3c-5,0.8-9.7,2.8-14.7,3.5c-4.4,0.6-8.9,0.1-13.5,1.2c5.9,0.9,11.8,1.7,18.8,2.7
		c-19.1,0.6-37.2,1.3-55.3,1.9c0,0.5,0,1.1,0,1.6c25.5,0.6,51,1.3,76.5,1.9c-6.7,2.5-14-1.1-20.3,3.8c6.1,0,12.1,0,18.2,0
		c0,0.3,0,0.6,0,0.8c-10.7,0-21.4,0-32.8,0c-0.7,2.8-3,2.4-6.9,1.4c-4.9-1.3-10.4-0.7-15.6-0.8c-2.4-0.1-4.7,0-7.1,0
		c-0.5,0-1.1-0.3-1.5,0c-8,4.9-16.8,2.1-25.2,2.9c-0.6,0.1-1.3,0.1-1.9,0.7c20.8,3,41.7-1.5,62.6,1.8c-3,0.2-6,0.4-9,0.5
		c-3.1,0.1-6.3,0-9.4,0c0,0.5,0,0.9,0,1.4c15.1,0,30.2,0,45.3,0c0,0.8,0.1,1.6,0.1,2.3c-10.9,0.8-22.1-0.2-33,0.5
		c0,0.5,0,0.9,0.1,1.4c10,0.8,20.1,1.7,30.1,2.5c0.1,0.5,0.2,1,0.4,1.5c-1.7,0.4-3.4,1.2-5.1,1.3c-9.8,0.1-19.7,0.1-29.5,0.1
		c-1.3,0-2.5,0-3.8,1c5.9,0.4,11.9,0.8,17.8,1.2c0,0.2,0,0.4,0,0.6c-7.3,0-14.5,0-21.8,0c0,0.6-0.1,1.3-0.1,1.9
		c10.1,0.6,20.2,1.1,29.7,1.7c-2.6,0.8-5.8,1.8-9,2.8c0,0.3,0,0.5,0,0.8c4.2,0.3,8.4,0.7,12.6,1c0,0.1,0,0.3,0.1,0.4
		c-2,0.4-4.1,0.9-6.1,1.3c0,0.2,0.1,0.4,0.1,0.7c9.3,0,18.6,0,27.9,0c0,0.3,0,0.6,0,1c-8.1,0.8-16.2,1.5-22.9,2.1
		c-2.2,1.2-3.4,2.3-4.6,2.3c-9.2,0.1-18.5-0.1-27.7,0.1c-5.9,0.1-11.7,0.9-17.9,1.3c6.2,2.2,13.2-2,18.8,3.2c1.8-0.6,4.1-1.3,6.4-2
		c0.1,0.3,0.2,0.6,0.3,0.9c-0.8,0.3-1.6,0.6-1.6,0.6c13.1,0,26.8,0,40.5,0c0,0.3,0,0.5,0,0.8c-5.4,0.7-10.7,1.3-16.1,2
		c0,0.4,0,0.7,0.1,1.1c7.3,0,14.5,0,21.8,0c0,0.3,0,0.6,0,0.9c-6.3,0-12.5,0-18.8,0c0,0.2-0.1,0.4-0.1,0.6c1.7,0.6,3.5,1.2,5.4,1.9
		c-19.4,0-38.3,0-57.3,0c0,0.6,0,1.2,0,1.8c3.1,0,6.1-0.1,9.2,0c9.6,0.3,19.1,0.5,28.7,1.1c2.2,0.1,4.4,1.6,6.6,1.8
		c3.8,0.3,7.7,0,11.5,0.1c1.1,0,2.2,0.4,3.6,0.7c-2.5,6.2-9,0.9-11.6,5c11.2,0,22.6,0,34,0c0,0.7-0.1,1.3-0.1,2
		c-18.8,0.7-37.5,0.2-56.4-4.2c1-0.4,1.8-0.7,2.5-1c0-0.3-0.1-0.6-0.1-0.9c-16.6,0-33.2,0-49.8,0c0,0.2-0.1,0.4-0.1,0.6
		c6.4,0.4,12.8,0.9,19.3,1.3c0,0.6-0.1,1.2-0.1,1.8c-7.2,0-14.3,0-21.5,0c0,0.4,0,0.8,0,1.2c10,0,20,0,30.9,0
		c-3-0.5-5.1-0.9-7.2-1.2c0-0.6,0-1.3,0-1.9c7.2,0,14.4,0,21.5,0c0.1,0.2,0.1,0.3,0.2,0.5c-2.4,0.5-4.8,1.1-7.1,1.6
		c11.3,1.8,22.7,3.6,34.1,5.4c-2.1,5.3-7.3,2.7-11.2,3.4c-4.3,0.8-8.8,0.9-13.1,2.2c22.9,0.7,45.9,1.4,68.8,2c0,0.4,0,0.8,0,1.1
		c-10.5,0-21,0-31.4,0c0,0.4,0,0.7,0,1.1c5.4,0,10.9,0,16.3,0c0,0.6,0,1.2,0,1.8c-23.9,0.5-47.9,0.9-71.8,1.4c0,0.2,0,0.4-0.1,0.6
		c1.2,0.4,2.4,1.2,3.6,1.2c9.8-0.2,19.5-0.9,29.3-0.6c3.3,0.1,8.2-1.1,9.8,4.7c-5.4-0.3-10.6-0.6-15.8-1c-0.1,0.3-0.1,0.6-0.2,1
		c1.5,0.6,3,1.1,4.5,1.7c0,0.4,0,0.9,0,1.3c-8.9,0.5-17.7,1-26.6,1.4c0,0.5,0,0.9,0,1.4c11.1,2.1,22.4,0.7,33.7,1.8
		c-1.3,0.2-2.5,0.4-3.8,0.6c0,0.2,0,0.5-0.1,0.7c5.3,0.5,10.5,1,15.8,1.5c0,0.2,0,0.3,0,0.5c-5.3,0-10.7,0-16,0
		c-5.5,0-10.9,0.2-16.4,0.3c0,0.6,0.1,1.1,0.1,1.7c3.4,0,6.8,0,10.2,0c0,0.4,0,0.8,0,1.1c-7.2,0-14.4,0-21.6,0c0,0.5,0,0.9,0,1.4
		c22.8,0,45.6,0,68.4,0c0,0.4,0,0.8,0,1.1c-17.2,0-34.3,0-51.5,0c0,0.3-0.1,0.6-0.1,0.9c2,0.5,3.9,1,6.2,1.5
		c-8.3,0.4-16.3,0.8-24.2,1.2c0,0.6,0,1.2,0,1.8c18,0.1,36,0.1,54,0.2c0,0.6,0,1.2,0,1.8c-16.1,1.1-32.2,2.2-48.2,3.2
		c0,0.3,0,0.6-0.1,1c2.3,0,4.6-0.3,6.9,0c6.4,0.9,12.8,2,20.3,3.2c-4.8,1.2-8.7,2.2-12.5,3.2c0,0.1-0.1,0.3-0.1,0.4
		c2.3,0,4.5,0,6.8,0c0,0.3,0,0.6,0,0.9c-3.3,0.2-6.5,0.3-9.8,0.5c0,0.4,0,0.8,0,1.2c6.4,0.6,12.8,1.2,19.2,1.7
		c0.1,0.3,0.1,0.7,0.2,1c-3,0.5-6,1-9,1.4c-4.1,0.5-9.4,2.6-12,0.8c-3.7-2.6-6.8-0.6-10-1.4c-0.1,0-0.3,0.1-1.1,0.4
		c1.9,0.3,3.2,0.6,4.5,0.8c0,0.1,0,0.3,0,0.4c-4.3,0-8.5,0-13.1,0c0.6-0.5,1.1-0.9,2.1-1.7c-8,0-15.9-1.4-23,0.5
		c-5.2,1.4-10,1.4-14.9,1.4c-121.5,0.1-243,0.1-364.6,0.1C4.5,180.1,2.6,180.1-1.2,180.1z M439.3,37.4c0-0.5,0-0.9,0-1.4
		c-6.7,0-13.4,0-20,0c0-0.3,0-0.7,0-1c5.9,0,11.8,0,17.8,0c0-0.4,0-0.8,0-1.3c-11.3,0-22.6,0-33.9,0c0.8,0.2,1.8,0.5,2.8,0.7
		c0,0.4,0,0.7,0,1.1c-5.3,0-10.5,0-15.8,0c0,0.6,0,1.2,0,1.7C406.6,35.6,422.9,39.6,439.3,37.4z M381.1,122.3c0,0.6,0.1,1.2,0.1,1.8
		c12.8,0,25.7,0,38.5,0c0-0.6,0-1.2,0-1.8C406.9,122.3,394,122.3,381.1,122.3z M150.7,164.3c0,0.3,0,0.6,0,0.9c18.4,0,36.8,0,55.3,0
		c0-0.3,0-0.6,0-0.9C187.5,164.3,169.1,164.3,150.7,164.3z M380.4,171.3c11.2,2.5,37.8,2.4,40.5,0
		C407.7,171.3,394.4,171.3,380.4,171.3z M89,53.4c0.1,0.3,0.1,0.7,0.2,1c14.3,0,28.6,0,42.8,0c0-0.3,0-0.7,0-1
		C117.7,53.4,103.3,53.4,89,53.4z M356.3,75.7c-0.1,0.5-0.1,1-0.2,1.5c14,0,28,0,42,0c0-0.5,0-1,0-1.5
		C384.2,75.7,370.3,75.7,356.3,75.7z M95.8,9.2c0-0.4,0-0.8,0.1-1.1c-11,0-21.9,0-32.9,0c0,0.4,0,0.8,0,1.1
		C73.9,9.2,84.9,9.2,95.8,9.2z M434.1,5.2c0-0.2,0-0.4,0-0.5c-9.3,0-18.6,0-28,0c0,0.2,0,0.4-0.1,0.5C415.5,5.2,424.8,5.2,434.1,5.2
		z M336.4,23.8c0,0.7-0.1,1.4-0.1,2.1c6.8,3.1,13.6,0.4,20.4-2.1C349.9,23.8,343.2,23.8,336.4,23.8z M379.2,133.7
		c7-0.7,13.9-1.4,20.9-2.1c-0.1-0.6-0.1-1.2-0.2-1.7C393.1,131.5,385.5,127.5,379.2,133.7z M392.8,156.4c0-0.5,0.1-1,0.1-1.5
		c-9.3,0-18.5,0-27.8,0c0,0.5,0,1,0,1.5C374.3,156.4,383.6,156.4,392.8,156.4z M359.9,141.6c-7.6,0-15.2,0-22.8,0
		C344.8,143.5,352.4,143.8,359.9,141.6z M40.1,7.2c-5.3,0-10.2,0-15.4,0C32.4,10.9,38.4,11,40.1,7.2z M347,171.3
		c0,0.4,0.1,0.7,0.1,1.1c7,0,14,0,20.9,0c0-0.4,0-0.7,0-1.1C361.1,171.3,354,171.3,347,171.3z M398.1,147.4c-0.1-0.5-0.1-1-0.2-1.5
		c-4.9,1.2-10.3-1.7-14.9,1.8c0.1,0.6,0.2,1.2,0.3,1.8C388.3,148.8,393.2,148.1,398.1,147.4z M419.1,80.8c0,0.3,0.1,0.6,0.1,0.8
		c3,0.5,6.1,1.2,9.2,1.3c3.1,0.2,6.1-0.2,9.2-0.4c0-0.6,0-1.2-0.1-1.8C431.3,80.8,425.2,80.8,419.1,80.8z M308.7,26.5
		c-5.7,0.1-11.8-1.7-17.5,0.5c0.1,0.7,0.2,1.5,0.2,2.2C297.1,28.3,302.9,27.4,308.7,26.5z M31.8,142.9c0-0.6,0-1.3,0.1-1.9
		c-7.2,0.5-14.4,0.9-21.6,1.4c0,0.2,0,0.3,0,0.5C17.5,142.9,24.6,142.9,31.8,142.9z M414.5,163.3c0-0.5,0-1,0-1.5
		c-6.1,0-12.2,0-18.3,0c0,0.5,0,1,0,1.5C402.2,163.3,408.4,163.3,414.5,163.3z M443,120c-0.1-0.3-0.2-0.7-0.3-1
		c-6.9,0-13.7,0-20.6,0c0,0.3,0,0.7,0,1C429.1,120,436.1,120,443,120z M439.1,128.2c0-0.3,0-0.6,0-0.9c-7.6,0-15.2,0-22.8,0
		c0,0.3,0,0.6,0,0.9C423.9,128.2,431.5,128.2,439.1,128.2z M402.9,5.4c0-0.3,0-0.6,0-0.9c-6.1,0-12.1,0-18.2,0c0,0.3,0,0.6,0,0.9
		C390.8,5.4,396.8,5.4,402.9,5.4z M338.1,14.3c0,0.3,0,0.5,0,0.8c8.6,0,17.2,0,25.8,0c0-0.3,0-0.5,0-0.8
		C355.4,14.3,346.8,14.3,338.1,14.3z"/>
	<path class="st1" d="M486.2,16.4c-11.7,0-23.4,0-33.9,0c1.7-0.6,4.7-1.4,7.4-2.6c2.6-1.2,4.4,0.1,6.8,0.9c3.9,1.2,8.4,0,12.7-0.1
		c2.3-0.1,4.6,0,6.9,0C486.2,15.1,486.2,15.7,486.2,16.4z"/>
	<path class="st1" d="M469.2,77.7c6.6,0.5,13.3,0.9,19.9,1.4c0,0.4-0.1,0.8-0.1,1.2c-6.6-0.4-13.3-0.8-19.9-1.2
		C469.1,78.7,469.2,78.2,469.2,77.7z"/>
	<path class="st1" d="M478,46.1c-8.3,0-16.5,0-24.8,0c0-0.3,0-0.6,0-0.8c8.3,0,16.5,0,24.8,0C478,45.6,478,45.8,478,46.1z"/>
</g>
<g class="st0">
	<path class="st2" d="M-1.2,360c1.5-2.7,2.4-4.3,3.3-5.8c-0.4-0.5-1.9-1.6-2-2.8c-0.2-8-0.1-16-0.1-24.2c1.9-0.2,3.5-0.3,5-0.5
		c0-0.2,0-0.4,0-0.6c-1.6-0.1-3.2-0.3-5.3-0.5c2.9-4-1.1-7.6,0.3-11.3c0.5-1.5,1.3-2.8,1.8-3.7c-4.1-5.4-0.5-12-2.1-18.4
		c3.8-0.7,7.1-1.2,10.3-1.8c0-0.1,0-0.3,0-0.4c-3.1,0-6.2,0-9.6,0c0-9.8,0-19.2,0-29.3c5.8,0,11.5,0,17.2,0c0-0.5,0-1,0-1.5
		c-5.6,0-11.2,0-17.2,0c0-26.5,0-52.6,0-79.3c20.1,0,40.2,0,60.3,0c20,0,40,0,60,0c20.2,0,40.3,0,60.5,0c20,0,40,0.3,60-0.1
		c19.4-0.4,38.8,1.7,58.9-0.1c-0.4,1.7-0.7,2.9-1.1,4.3c4.4-0.3,9.2-2.8,13.3,1.7c-2.5,0.1-4.9,0.3-7.2,0.4c0,0.5,0,1,0,1.5
		c12.2,0,24.4,0,36.7,0c0,0.6,0.1,1.3,0.1,1.9c-2,0.2-3.9,0.4-5.9,0.6c-0.1,0.2-0.1,0.5-0.2,0.7c2.4,0.5,4.8,0.9,7.2,1.4
		c0,0.2,0,0.3,0,0.5c-11.3,0-22.6,0-34.8,0c9,5,17.9,2.7,26.4,3.1c5.4,0.3,10.8,0,16.2,0c0,0.7,0,1.3,0,2c-9.4,0-18.9-0.3-28.3,0.1
		c-7.5,0.3-15,1.1-22.4,2c-2.9,0.3-5.6,1.5-8.4,3.5c5.2-0.5,10.4-1.3,15.6-1.6c4.8-0.3,9.6-0.1,14.5-0.1c0,0.4,0,0.9,0,1.3
		c-10.1,0.5-20.3,1-30.4,1.6c-1.9,0.1-3.7,0.8-5.5,1.4c-2.5,0.8-4.9,1.8-7.8,2.8c14.4,3.1,28.7-2.7,43.3-0.6
		c-4.2,1.3-7.9,2.5-11.7,3.6c0.1,0.5,0.3,0.9,0.4,1.4c4.5-0.7,9.1-1.4,13.6-2.1c0.1,0.3,0.2,0.6,0.3,1c-0.9,0.4-1.8,0.7-3.3,1.3
		c1.1,0.8,1.7,1.2,2.8,2c-10.7,0.5-20.9,1-31.1,1.5c0,0.1,0,0.2,0,0.3c9.8,0.6,19.6,1.2,29.3,1.7c-9.5,2.2-18.2,7.8-28.7,5.3
		c0,0.4,0.1,0.9,0.1,1.3c4.1,0,8.2,0,12.3,0c0.3,1.8,0.6,3.4,0.9,5c0.3-0.5,0.6-1,0.8-1.6c2.4,0.4,4.9,0.9,7.3,1.2
		c1.8,0.2,4.5,0.8,5.2,0c4.7-5.6,10.7-2.9,16.4-3c-0.8,0.3-1.5,0.6-1.6,0.7c7.5,0.6,15.5,1.2,23.6,1.8c0,0.6,0,1.2,0,1.8
		c-21.2-4.6-41.9,1.1-63,2c6.8,0.9,13.6,1.7,20.3,2.6c0,0.4,0.1,0.7,0.1,1.1c-6.5,0-12.9,0-19.4,0c0,0.5,0,1.1,0,1.6
		c2.3,0,4.6-0.1,6.8,0c6.4,0.3,12.9,0.6,19.3,1c1.2,0.1,2.4,0.8,3.5,1.2c-0.6,1.2-1.1,2.4-1.9,4.1c5,0.3,10.1,0.6,16.6,1
		c-2,0.5-2.6,0.6-3.3,0.8c0,0.3,0,0.6,0,0.9c5-0.3,9.9-0.7,14.9-1c0.1,0.4,0.1,0.8,0.2,1.2c-4.6,0.8-9.2,1.6-13.7,2.4
		c1.2,2.4,1.2,2.4,9.5,2.4c3.6,0,7.3,0,10.9,0c0,0.3,0,0.5,0,0.8c-11.2,0-22.4,0-34.7,0c1.6,1.4,2.4,2.1,3.3,2.9
		c-1.6,0.5-3,0.9-5,1.5c0.2-1.6,0.3-2.7,0.4-4.3c-12.4,0.8-24.6,1.5-36.8,2.2c0,0.1,0,0.3,0,0.4c14.1,1.2,28.2,2.3,43,3.5
		c-2.2,3.3-2.2,3.2-9.9,4c-3.4,0.3-6.7,0.9-10.4,2.2c7,2,14.1,3.9,20.1,5.6c-3.4,0-7.9,0-12.4,0c0,0.3,0,0.6,0,0.9
		c1.7,0.1,3.5,0.3,5.2,0.4c0,0.2,0,0.3,0.1,0.5c-1.9,0-3.8,0-6.3,0c-0.3-0.9-0.7-2.2-0.7-2.2c-7.7,0.7-15.2,1.4-22.7,2.1
		c0,0.3-0.1,0.7-0.1,1c10.6,1.2,21.3,2.3,31.9,3.5c0,0.2,0,0.3,0.1,0.5c-16.6,0-33.2,0-49.8,0c0,0.3,0,0.7,0,1
		c14.2,0.8,28.4,1.5,42.7,2.3c0,0.5,0,1,0,1.6c-4.4,0-8.8,0-13.3,0c0,0.5,0,0.9,0,1.4c4.4,0.7,8.8,1.3,13.3,2c0,0.3-0.1,0.6-0.1,0.9
		c-1.2,0.2-2.4,0.4-3.6,0.6c0,0.2,0,0.4,0,0.6c5,0,9.9,0,14.9,0c0,0.3,0.1,0.6,0.1,0.8c-5.8,1.3-11.6,2.7-18.8,4.3
		c2.6,0,3.9,0,5.2,0c0.2,0.5,0.3,0.9,0.5,1.4c-2.5,1.2-5.1,2.3-7.5,3.4c2.9,0,6.2,0,9.5,0c0,0.3,0.1,0.5,0.1,0.8
		c-2.6,0.6-5.3,1.2-8.8,1.9c2.3,0.3,3.9,0.4,5.5,0.6c0,0.2,0,0.4,0,0.6c-7.3,0-14.5,0-21.8,0c0,0.4-0.1,0.8-0.1,1.2
		c4.5,0.9,9.1,2.4,13.7,2.7c4.8,0.3,9.6-0.6,14.5,0.1c-1.9,0.1-3.8,0.3-4.5,0.3c-1.5,1.5-2.2,2.8-2.9,2.9c-5.5,0.2-11-0.1-16.5,0.2
		c-4.4,0.2-8.8,0.8-13.1,1.5c19.3,0.9,38.6,1.8,57.9,2.7c0,0.3,0,0.7,0,1c-16,0-32,0-47.9,0c0,0.6-0.1,1.2-0.1,1.8
		c6.4,0.6,12.9,1.2,19.3,1.8c0,0.3,0.1,0.7,0.1,1c-1.9,0.6-3.7,1.2-6.8,2.1c3.6,0.7,6.1,1.1,9.9,1.8c-7.6,0.7-14.2-0.9-19.5,3.8
		c11.4,0.9,22.8,1.9,34.3,2.8c0.1,0.4,0.2,0.8,0.3,1.3c-10.5,1.7-21,3.4-31.3,5.1c0.7,0.1,1.8,0.3,3,0.5c0,0.2,0,0.4,0,0.6
		c-1.6,0.1-3.2,0.2-4.8,0.3c0,0.3,0,0.7,0,1c7.8,0,15.7,0,23.5,0c0,0.1,0,0.2,0,0.3c-6.6,0.9-13.1,1.8-19.7,2.7
		c0,0.3,0.1,0.6,0.1,0.9c4.4,0.2,9.5-1,13,0.9c6.8,3.6,14.2-1.5,20.8,3.1c-8.6,0-16.9-0.1-25.2,0.1c-1.6,0-3,1.8-4.6,2.1
		c-1.9,0.4-4,0.1-6,0.1c0-0.4-0.1-0.8-0.1-1.2c-1.5,1.2-2.9,2.3-4.8,3.9c2.7,1,5.4,1.9,8,2.8c0,0.4,0.1,0.8,0.1,1.1
		c-9.6,0-19.3,0-28.9,0c0,0.4,0.1,0.8,0.1,1.2c15.4,0,30.8,0,47.4,0c-3.1,0.9-5.1,1.7-7.2,1.9c-6.4,0.5-12.9,1-19.3,1
		c-96.3,0.1-192.7,0-289,0C3.8,360,2.2,360-1.2,360z M149.9,343.7c0,0.6,0,1.1,0.1,1.7c19.6,0,39.2,0,58.8,0v-0.1
		C189.1,344.7,169.5,344.2,149.9,343.7z M89,233.2c0,0.1,0,0.2,0,0.4c7.2,0.4,14.4,0.9,21.7,1.2c7,0.2,14.1,0,21.1,0
		c0-0.5,0-1,0-1.6C117.5,233.2,103.2,233.2,89,233.2z M96.3,189.3c0-0.4,0-0.8-0.1-1.2c-11.1,0-22.2,0-33.3,0c0,0.4,0,0.8,0,1.2
		C74.1,189.3,85.2,189.3,96.3,189.3z M281.8,256.7c-0.1-0.5-0.1-1-0.2-1.4c-9.5,1-19,2.1-28.5,3.1c0,0.4,0.1,0.8,0.1,1.2
		C262.8,258.6,272.3,257.7,281.8,256.7z M24.4,187.2c8.6,3.8,14.2,3.8,15.6,0C35,187.2,30.1,187.2,24.4,187.2z M32,322.7
		c0-0.6,0-1.2,0-1.8c-7.3,0.5-14.5,0.9-21.8,1.4c0,0.1,0,0.3,0,0.4C17.5,322.7,24.7,322.7,32,322.7z M207.1,355.6
		c4.1-3.9,9.3-1.9,13.6-3.2c-6.6,0-13.1,0-19.1,0C203.4,353.4,205.6,354.7,207.1,355.6z M203,319.9c0,0.3,0,0.5,0,0.8
		c6.9,0,13.8,0,20.7,0c0-0.3,0-0.5,0-0.8C216.8,319.9,209.9,319.9,203,319.9z M269.9,280.2c-0.1-0.3-0.1-0.7-0.2-1
		c-6.2,0-12.5,0-18.7,0c0,0.3,0,0.7,0,1C257.3,280.2,263.6,280.2,269.9,280.2z M280.3,321.4c0-0.3,0-0.6,0.1-0.9
		c-6.6,0-13.2,0-19.8,0c0,0.3,0,0.6,0,0.9C267.2,321.4,273.7,321.4,280.3,321.4z"/>
	<path class="st2" d="M352.9,202.2c-7.7,0-15.3,0-23,0c0-0.3,0-0.6,0-0.9c7.7,0,15.4,0,23,0C352.9,201.6,352.9,201.9,352.9,202.2z"
		/>
	<path class="st2" d="M343.8,287.3c-5.6,0-11.2,0-16.8,0c0-0.4,0-0.9,0-1.3c5.7,0,11.3,0,17,0C343.9,286.5,343.8,286.9,343.8,287.3z
		"/>
</g>
<g class="st0">
	<path class="st3" d="M923.4,379.6c-2.8,3.7-6.9,2.3-10.4,2.4c-12,0.2-24,0.1-36.1,0.7c29.2,1.2,58.5,2.4,87.9,3.7
		c0-0.4-0.2-1.2-0.3-2.2c3.9,0.8,7.7,2,11.5,2.4c3.7,0.3,7.5-0.2,11.4,0.8c-1.5,0.3-3.1,0.6-4.6,0.7c-7.6,0.7-15.6,0-22.7,2.3
		c-9.2,2.9-18.5,2.1-27.6,3.6c-3.2,0.5-6.2,1.9-9.4,2c-12.5,0.5-24.9,0.9-37.4,1c-6.9,0-13.8-0.8-20.8-1c-4.4-0.2-8.7,0-13.4,1
		c3.8,1.3,7.5,3.5,11.4,3.7c4.9,0.2,9.9-1.3,14.9-1.7c2.1-0.2,4.2,1,6.4,1c13.1-0.2,26.3-0.6,39.4-0.9c5-0.1,10.1,0,15.1,0
		c0.3,0,0.8-0.1,1,0c4.7,5,9.3,0.9,14,0.2c0.7-0.1,1.7,1.7,3.6,3.7c-21.8,0.6-42.2,1.2-62.5,1.7c0,0.4-0.1,0.7-0.1,1.1
		c0.9,0.1,1.8,0.3,2.7,0.3c6.8,0,13.7,0,20.5-0.2c5.8-0.1,11.5,1.3,17.5,0.2c6-1,12.3-0.2,18.4-0.2c0,0.4,0.1,0.8,0.1,1.2
		c-6.3,0.6-12.7,1.3-19,1.7c-6.3,0.4-12.6,0.7-18.9,0.9c-2.2,0.1-4.3-0.7-6.5-0.8c-9.7-0.1-19.3-0.1-29,0
		c-7.5,0.1-15.1,0.4-22.6,0.5c-9.9,0.2-19.8,0.3-29.7,0.4c-8,0.1-16,0-24.1,1c32.5,0.7,65.1,1.3,97.6,2c0,0.3,0,0.7,0,1
		c-7.4,0.4-14.7,0.7-23.6,1.2c2.4,0.7,3.4,1,4.4,1.2c0,0.4,0,0.7,0,1.1c-2.7,0-5.3,0-8,0c0,0.4,0,0.8,0,1.2c4.4,0,8.7,0,13.6,0
		c-1.3-0.8-2.3-1.4-4.5-2.7c10.8,0,20.4-0.2,29.9,0.2c1.8,0.1,3.6,2.1,5.3,4.3c-11.6,0-23.2,0-34.9,0c0,0.5,0,1,0,1.5
		c1.9,0,3.8-0.3,5.6,0.1c3.8,0.7,7.9-1.8,11.5,1.7c0.7,0.7,3.9-1.7,5.9-1.5c4,0.4,8.3-2.3,12.1,1.7c2.7,2.8,15,1.6,16.8-1.4
		c-1.4-0.7-2.8-1.4-4.5-2.2c1.1-0.2,1.9-0.3,4.1-0.7c-4.4-2.1-7.7-3.8-11.1-5.4c-0.2,0.4-0.4,0.9-0.7,1.3c0.5,0.3,0.9,0.6,1.4,0.9
		c0,0.2,0,0.3-0.1,0.5c-4.3-1.2-8.5-2.5-13.7-4c10.6,0,20.5,0,30.5,0c0,0.4,0,0.7,0,1.1c-3.6,0-7.2,0-10.5,0c5.2,2,10.6,4,16.3,6.2
		c-3.7,2.5-9.5-2.4-11.1,4.7c1.5,0.5,3.4,1.1,5.2,1.6c0,0.5,0,1,0.1,1.5c-3.6,0-7.2,0-10.8,0c-3.8,0-7.6,0.1-11.4,0.2
		c0,0.6,0,1.2,0.1,1.9c3.3,0,6.5,0,9.8,0c0,0.3,0,0.7,0,1c-4.5,0-9,0-14.9,0c1.9,1.4,2.6,1.9,3.1,2.3c-6.5,0-13.1,0-19.7,0
		c-0.1-0.4-0.1-0.8-0.2-1.2c2.4-0.6,4.9-1.2,7.2-1.7c-11.8-2.4-33.7-2.3-37.3-0.1c4.9,0.9,10,1.8,15,2.7c0-0.2,0.1-0.4,0.1-0.7
		c-0.7-0.2-1.4-0.5-2.1-0.7c0.2-0.2,0.3-0.6,0.5-0.6c3-0.1,6-0.1,9-0.1c1.8,0.1,4.3-0.9,4.1,2.7c0,0.4,2.4,1.2,3.8,1.2
		c7.7,0.1,15.3-0.1,23,0.1c3.8,0.1,7.6,0.7,11.8,1.6c-2.9,0.4-5.9,1.1-8.8,1.1c-8-0.1-16-0.4-24-0.8c-2.9-0.1-5.9-0.9-8.8-0.9
		c-8.1,0.2-16.2,0.6-24.3,0.9c-4.5,0.1-9-0.1-13.6,0.1c-1.3,0.1-2.6,0.9-4.6,1.7c15.2,0,29.5,0,43.8,0c0,0.6,0,1.2,0,1.7
		c-16.2,0-32.5,0-48.7,0c0,0.7,0,1.3,0,2c13.2,0,26.5,0,39.7,0c0,0.4,0,0.8,0.1,1.2c-3.6,0.6-7.2,1.2-10.8,1.8c0,0.3,0,0.6,0.1,1
		c7.6,0,15.2,0,23.7,0c-3.2-1.1-5.6-1.9-7.8-2.7c16.5,0,33.3,0,50.1,0c0,0.3,0,0.7,0,1c-11.7,0-23.4,0-35.2,0c0,0.3,0,0.6,0,0.9
		c13.6,0.9,27.1,1.9,40.7,2.8c0,0.2,0.1,0.3,0.1,0.5c-5.1,0.7-10.2,1.3-15.3,2.1c-2.9,0.5-5.7,1.4-8.6,1.9c-0.8,0.1-1.7-0.9-2.6-1.5
		c0.1-0.4,0.1-0.9,0.2-1.3c-2.1,0.2-4.3,0.4-6.6,0.6c0.1,0.6,0.2,1.3,0.5,2.9c-8.2,0-16.3,0-24.3,0c0,0.5,0,0.9,0,1.4
		c7.8,0,15.6-0.2,23.5,0.1c7.4,0.2,15.4-2.1,21.9,3.8c-3.7,0-7.5,0-11.2,0c0-0.1-0.1-0.3-0.1-0.4c1.6-0.3,3.2-0.6,4.9-0.9
		c-0.1-0.6-0.3-1.3-0.4-1.9c-6.7,1.4-13.4,2.9-20.1,4.3c0,0.4,0,0.7-0.1,1.1c8.7,0.7,17.4,1.4,26.1,2.1c0,0.4,0,0.9,0,1.3
		c-33.8,0-67.5,0-101.3,0c0,0.4,0,0.8,0,1.2c7.2,0.5,14.5,1.2,21.7,1.3c9.2,0.2,18.4-0.2,27.6,0.1c3.2,0.1,6.4,1.5,9.6,2.3
		c0.4,0.1,1,0.5,1.2,0.4c10.7-5.6,22.2-1.5,33.2-2.7c2.9-0.3,5.9-0.7,8.8-0.7c8-0.1,16.1,0,24.1,0c0,0.6,0,1.3,0,1.9
		c-8.8,0-17.7,0-27.2,0c1.8,0.8,3,1.3,4.7,2c-1.6,1.4-2.9,2.6-4.2,3.7c1.8,0.1,3.5,0.3,5.1,0.4c-13.5,0-27.1,0-40.7,0
		c0-0.5,0-1.1,0-1.6c12.1,0,24.2,0,36.3,0c0-0.6,0-1.1,0.1-1.7c-10.2-4.8-20.9-3.1-31.5-0.8c3.6,0,7.2,0,10.8,0c0,0.3,0,0.6,0,1
		c-4,0-8-0.1-12.1,0c-5.6,0.2-11.2,0.9-16.8,0.9c-5.3,0-11.2,0.8-15.6-1.4c-3.3-1.6-6.1-1.2-9.1-1.4c-8.4-0.6-16.9-0.9-25.3-1.1
		c-5.4-0.1-10.7,0-16.1,0.1c-0.5,0-0.9,0.7-2.4,1.8c15.3,0,29.5,0,43.7,0c0,0.3,0,0.6,0.1,0.9c-2.8,0.6-5.6,1.2-8.3,1.7
		c0,0.2,0,0.3,0,0.5c2.9,0,5.9,0,8.8,0c0,0.4,0,0.7,0,1.1c-3.2,0-6.5,0-9.7,0c0,0.5,0,1,0,1.4c15.2,2,30.8-2.7,45.8,2.9
		c-24.6,0-49.3,0-73.9,0c0,0.5-0.1,0.9-0.1,1.4c1.9,0.4,3.8,1.1,5.7,1.1c6.2,0.2,12.4,0.2,18.6,0c3.5-0.1,6.9-0.9,10.4-0.9
		c18.5-0.1,36.9,0,55.5,0.8c-7.3,1.1-14.5,2.3-21.3,3.3c1,1.5,4.5,3.1,8.4,2c5.6-1.4,11-2.2,16.7,1.6c-15,0-29.5,0-44,0
		c16.3,2,32.8-0.2,49,2.4c0,0.5,0.1,1,0.1,1.5c-1.3,0.1-2.5,0.3-3.8,0.4c-10.2,0-20.3-0.1-30.5,0.1c-9.9,0.2-19.9,0.4-29.8,1.1
		c-4.4,0.3-8.7,1.8-13.1,2.8c35,0.6,70.1,1.2,105.1,1.8c0,0.5,0,1,0,1.5c-12.8,1.2-25.5,2.3-39.2,3.6c1.4-0.7,2-1,3.7-1.8
		c-27,0.7-52.9,1.3-78.7,1.9c0,0.8,0,1.7,0,2.5c7.6,0,15.2,0.1,22.8,0c6.5-0.1,13.6,1.1,19.4-1c7.2-2.6,13.7,0.3,20.5-0.4
		c1.2-0.1,2.6,1.3,3.9,1.6c2.9,0.6,5.9,1.2,8.9,1.2c7.9-0.1,16-1.4,23.8-0.6c5.7,0.6,11.1-0.6,16.7-0.3c7,0.5,14.1,0.9,21.1,1.3
		c0,0.4,0,0.9,0,1.3c-15.2,0.5-30.3,1-46.8,1.6c1.4-1,1.8-1.2,2.5-1.7c-14.9,0-29.5,0-44.2,0c0,0.6,0,1.2,0,1.8
		c11.4,0,22.9,0,34.3,0c0,0.6,0,1.2,0,1.8c-12.3,0.8-24.6,1.6-36.8,2.4c-0.1,0.2-0.1,0.4-0.2,0.5c2.1,0.5,4.2,0.9,6.3,1.4
		c0,0.2,0,0.3,0,0.5c-8.5,0-17,0-25.6,0c22.3-0.1,44.6,6,66.9-0.7c0,0.5,0,1,0,1.5c-1.5,0.1-3,0.3-5.4,0.5c1.6,1.1,2.5,1.8,4.1,2.9
		c-5.6,0.4-10.7,0.8-16.8,1.3c23.9,4.1,47.3,3.4,70.2,9.1c-11.8,0-23.3,0-34.8,0c0-0.3-0.1-0.6-0.1-1c1.4-0.3,2.8-0.6,4.2-1
		c0-0.5,0-1,0-1.4c-26.4-0.9-52.8,2.1-79.3,0.8c15,5.7,30.3,0.2,45.5,1c0,0.5,0.1,0.9,0.1,1.4c-6.6,0.5-13.2,1-19.8,1.5
		c0,0.3,0,0.5,0,0.8c12.7,0,25.3,0,38,0c0,0.4,0,0.8,0.1,1.2c-3,0.4-6.1,0.8-9.1,1.1c-7.4,0.7-14.7,1.3-22.1,1.9
		c-1,0.1-2.1,0.2-2.9-0.3c-2.9-1.7-10.3-2.3-12.4-0.7c-0.4,0.3-0.3,1.2-0.2,0.5c-4,0.8-7.5,1.6-11,2.3c-0.9,0.2-2.4,0-2.7-0.5
		c-0.4-0.7,0.2-1.9,0.4-3c-4.7,0-9.4,0-14.1,0c-0.1,0.2-0.1,0.4-0.2,0.7c1.7,0.6,3.3,1.2,5,1.9c0,0.3-0.1,0.5-0.1,0.8
		c-287.4,0-574.7,0-863.1,0c0.8-1.9,1.5-3.6,2.3-5.5c-0.2-0.2-1.8-1.3-1.8-2.5c-0.2-8-0.1-16-0.1-24.3c1.8-0.2,3.4-0.3,5-0.4
		c0-0.2,0-0.3,0-0.5c-1.5-0.2-3.1-0.4-4.2-0.5c-0.3-4.1-0.7-7.9-0.7-11.8c0-1.3,1.2-2.6,1.9-3.8c-2.4-1-2.5-1.8-1.8-17.8
		c1.5-0.4,3.2-0.9,4.9-1.2c1.6-0.3,3.2-0.3,4.8-1.1c-3.1,0-6.1,0-9.5,0c0-9.7,0-19.1,0-29.3c5.7,0,11.5,0,18,0
		c-6-5.1-12.4,0.4-18.1-2.6c0-25.7,0-51.6,0-78.2c1.9,0,3.9,0,5.8,0c133.7,0,267.3,0,401,0c130,0,260.1,0,390.1,0.1
		c7,0,14.1,1.3,21.1,1.8c2.5,0.2,5,0.2,7.5,0c11-0.6,22-1.5,33.1-1.8c3.3-0.1,7,2.5,9.8,1.6c4.1-1.4,7.8-0.6,11.8-0.8
		c4.1-0.2,8.1-0.8,12.2-1.2c0.1,0.7,0.1,1.3,0.2,2c-7.6,0.5-15.1,0.7-22.7,1.5c-7,0.7-14-1.1-20.9,0.6c4.6,0.4,9.2,0.8,13.8,1.2
		c0,0.6,0,1.1-0.1,1.7c-7.3,0-14.6,0-21.9,0c0,0.3,0,0.6,0.1,1c24.6,0.8,49.3,1.5,73.9,2.3c0,0.3,0,0.7,0,1c-3.6,0-7.1,0-11.3,0
		c4.5,4.9,9.5,3.2,14.2,2.8c10.8-0.8,21.5-1.3,32.2,1c-25.6,0.8-51.2,2.3-76.8,3.6c11.9,0.3,23.7,0.5,35.6,0.9
		C913.6,379.1,918.6,379.4,923.4,379.6L923.4,379.6z M865,452.5c0-0.3,0-0.6-0.1-0.8c-8.9,1.1-17.9,2.1-26.8,3.2
		c-0.1-0.4-0.2-0.9-0.2-1.3c0.8-0.7,1.6-1.4,3.4-3c-5.7,1.6-10.1,2.7-14.3,4.1c-0.6,0.2-0.8,1.8-1.3,3.2c2.9,0.2,5.9-0.6,7.4,0.6
		c4.6,3.7,9.6,1.4,14.2,1.3c5.4-0.1,10.9-1.5,16.3-2.4c0.1,0.5,0.1,1,0.2,1.4c-1.3,0.2-2.6,0.4-3.9,0.6c15.1,1.1,30.1,3.1,45.2,1.4
		c0-0.5,0-1,0-1.5c-12.2,0-24.3,0-36.5,0c0-0.3,0-0.6,0-0.9c5.5-0.3,10.9-0.6,16.4-0.9c-0.1-0.3-0.1-0.6-0.2-0.9
		c-8.2-1-16.3-2-25-3.1C861.8,453.1,863.4,452.8,865,452.5z M758.2,506.2c3.1-0.2,5.2-0.3,7.3-0.6c4.5-0.6,8.9-2,13.4-1.9
		c9,0.1,17.9,0.9,26.9,1.4c2.1,0.1,4.2,0,6.3,0c0-0.3-0.1-0.6-0.1-0.8c-0.5-0.3-1-0.5-2.2-1.2c3.7,0,6.4,0,9.2,0
		c-4.2-1.4-8.3-2.7-12.5-2.9c-2.9-0.1-5.9,1.8-8.9,1.7c-13.6-0.1-27.1-0.6-40.7-0.9c-1.4,0-2.9,0.5-4.4,0.8c0.1,0.3,0.1,0.7,0.2,1
		c2.7,0.1,5.4,0.2,9.2,0.4C760.3,504.5,759.6,505.1,758.2,506.2z M848.7,525.3c19.3-3.9,38.6,1,57.9,0.4c0-0.6,0-1.2,0-1.7
		c-3.1,0-6.3,0-9.4,0c0-0.4,0-0.7,0-1.1c2.2,0,4.5,0,6.7,0c0-0.4,0-0.8-0.1-1.2c-20,0-40,0-60.8,0c3.2,0.6,5.7,1.1,8.7,1.7
		C850.3,524.3,849.5,524.8,848.7,525.3z M834.3,485.6c-7.9,1-14.5,1.9-21.1,2.7c0,0.2,0,0.4,0.1,0.6c5,0,10,0,15,0c12,0,24,0,35.9,0
		c1.2,0,2.5-0.2,3.7-0.3c-0.1-0.7-0.1-1.3-0.2-2c-10.6,0-21.1,0-31.7,0c0-0.8,0-1.5,0-2.3c5.9,0,11.7,0,17.6,0
		c0-0.2-0.1-0.4-0.1-0.6c-8,0-16,0-24,0c0,0.3,0,0.6,0,0.9C830.7,484.9,831.9,485.1,834.3,485.6z M779.6,517
		c0.1-0.2,0.2-0.5,0.2-0.7c-6.6-0.3-13.4,0.4-19.6-1.1c-6.6-1.6-12.5-1.3-18.6-0.2c0,0.6-0.1,1.3-0.1,1.9c6.7,0.9,13.3,1.8,21.2,2.9
		c-2.7,0.5-4,0.8-5.4,1.1c2,1.3,5.1,2.4,5.9,1.5c4.4-5.1,4.2-5.3,9-5.3C774.7,517,777.2,517,779.6,517z M876,415
		c-4.7,0-9.3,0.1-14,0c-8.8-0.2-17.5-0.7-26.3-0.9c-1.6,0-3.2,1-4.8,1.6c3.6,0.9,6.8,0.6,9.9,0.9c7.4,0.7,14.9,2.2,22.3,2.2
		C867.3,418.8,871.4,416.4,876,415z M893.1,372.2c-0.1-0.2-0.1-0.4-0.2-0.7c-20,0-39.9,0-59.9,0c0,0.6,0,1.2,0,1.9
		c10,0.5,20.1,1.5,30.1,1.3C873.1,374.5,883.1,373.1,893.1,372.2z M785.3,439.4c-1.1-0.3-2-0.6-3.3-1c3.8-0.4,7-0.8,10.2-1.1
		c-0.1-0.6-0.1-1.1-0.2-1.7c-8.5,0.8-17,1.9-25.6,2.3c-8.2,0.4-16.4,0.1-24.6,0.1c0,0.5,0,0.9,0,1.4
		C756.2,439.4,770.5,439.4,785.3,439.4z M802,400.3c0,0.2,0.1,0.5,0.1,0.7c9.3,0,18.5,0.1,27.8-0.1c1.4,0,2.8-0.9,4.2-1.4
		c-0.1-0.7-0.3-1.4-0.4-2.1c-10.2,0-20.3,0-30.4,0c0.2,0.3,0.7,1.2,1.3,2.2C803.5,399.9,802.8,400.1,802,400.3z M620.3,399.7
		c0,0.2,0,0.3,0,0.5c25.2,0,50.3,0,75.5,0c0-0.2,0-0.3,0-0.5C670.6,399.7,645.4,399.7,620.3,399.7z M766.6,389.9c27,0,53.6,0,80.3,0
		C833.8,387.4,770.1,387.5,766.6,389.9z M891.8,406.3c0-0.4,0-0.9,0-1.3c-16.6,0-33.2,0-49.8,0c0,0.4,0,0.9,0,1.3
		C858.6,406.3,875.2,406.3,891.8,406.3z M797.7,436.7c-0.1,0.5-0.2,1.1-0.3,1.6c4.2,0.3,8.3,1,12.5,0.9c4.6,0,9.1-0.9,13.7-1.1
		c3.8-0.2,7.7,0,11.5,0c0-0.5,0-0.9,0-1.4C822.6,436.7,810.2,436.7,797.7,436.7z M746.6,528.1c14.5,0,31.5,0,48.3,0
		C786.8,525.1,759.9,525.6,746.6,528.1z M796.2,530.9c15.6,0.7,30.1,2.4,44.5-0.4c-7.3-0.5-14.7-0.9-21.9-0.4
		C811.6,530.7,804.3,526.8,796.2,530.9z M785.3,506.5c-0.1,0.6-0.1,1.2-0.2,1.9c13.5,1,26.9,2,40.4,3c0.1-0.7,0.1-1.4,0.2-2.1
		C812.2,508.3,798.7,507.4,785.3,506.5z M831.3,432.8c11-0.5,21.9-1,32.8-1.5c-9.6-1.4-19.2-1.9-28.7-2.3
		C832.9,428.9,830.5,429,831.3,432.8z M685,420.3c0,0.3,0,0.7,0,1c18.4,0,36.8,0,55.3,0c0-0.3,0-0.7,0-1
		C721.9,420.3,703.4,420.3,685,420.3z M205.8,525.3c0.1-0.3,0.1-0.7,0.2-1c-18.4,0-36.8,0-55.2,0c0,0.3,0,0.7,0,1
		C169.1,525.3,187.4,525.3,205.8,525.3z M822,442.4c0-0.5,0-0.9-0.1-1.4c-5.9,0-11.9-0.1-17.8,0c-5.7,0.1-11.4,0.4-17.1,0.5
		c0,0.3,0,0.5,0.1,0.8C798.8,442.4,810.4,442.4,822,442.4z M131.8,414.4c0-0.4,0-0.7,0.1-1.1c-14.3,0-28.6,0-42.9,0
		c0,0.4,0,0.7,0,1.1C103.2,414.4,117.5,414.4,131.8,414.4z M839.5,476.7c0-0.6,0-1.2-0.1-1.7c-9.1,0-18.2-0.1-27.3,0.1
		c-1.2,0-2.3,1.3-2.9,1.6C819.3,476.7,829.4,476.7,839.5,476.7z M63.2,368c-0.1,0.4-0.2,0.8-0.3,1.3c11,0,21.9,0,32.9,0
		c0-0.4,0-0.8,0-1.3C85,368,74.1,368,63.2,368z M774.3,396.7c-9.2,0-18.3,0-27.5,0c0,0.6,0,1.2,0,1.8
		C756.1,400.1,765.2,397.4,774.3,396.7z M461.1,491.9c0,0.4,0.1,0.9,0.1,1.3c16.2,0,32.4,0,48.6,0c0-0.4,0-0.9,0-1.3
		C493.6,491.9,477.3,491.9,461.1,491.9z M819.1,455.8c-0.1-0.4-0.1-0.8-0.2-1.2c-4.1,0.8-8.2,1.9-12.4,2.3c-4.3,0.4-8.6,0-12.9,0.1
		c-1.6,0.1-3.1,0.6-4.7,1c0.1,0.4,0.1,0.8,0.2,1.2c9.7-0.5,19.3-1,29-1.5c0-0.2,0-0.4,0-0.6c-1-0.2-2-0.4-3.1-0.5c0-0.2,0-0.3,0-0.5
		C816.3,456.1,817.7,455.9,819.1,455.8z M605.9,481.4c0-0.5,0-1.1,0-1.6c-8.5-0.7-17.1-1.4-25.6-2.2c-0.1,0.8-0.1,1.6-0.2,2.3
		C588.7,480.4,597.3,480.9,605.9,481.4z M771.9,428.4c0,0.5,0,1,0,1.5c10.3,0,20.7,0,31,0c0-0.5,0-1,0-1.5
		C792.6,428.4,782.3,428.4,771.9,428.4z M671.9,448.7c0-0.1,0-0.2,0-0.3c-15.2,0-30.4,0-45.5,0c14.6,0.7,29.2,0.7,43.8,0.6
		C670.7,449,671.3,448.8,671.9,448.7z M882,448.6c0,0.7-0.1,1.4-0.1,2.1c9.4,0,18.8,0,28.3,0c0-0.1,0.1-0.1,0.1-0.2
		C900.9,449.8,891.4,449.2,882,448.6z M822.4,368.2c0-0.4,0-0.8,0-1.3c-10.8,0-21.5,0-32.3,0c0,0.4,0,0.8,0,1.3
		C800.9,368.2,811.6,368.2,822.4,368.2z M421.1,501.7c0,0.3,0,0.6,0,0.9c10.9,0,21.7,0,32.6,0c0-0.3,0-0.6,0-0.9
		C442.8,501.7,432,501.7,421.1,501.7z M798.9,462.7c0-0.5,0-0.9,0-1.4c-7.5,0-15.1,0-22.6,0c0,0.5,0,0.9,0,1.4
		C783.8,462.7,791.3,462.7,798.9,462.7z M735,461.7c0,0.3,0,0.6,0,0.9c10.5,0,20.9,0,31.4,0c0-0.3,0-0.6,0-0.9
		C755.9,461.7,745.5,461.7,735,461.7z M536.4,463.7c7.4,0,14.6,0,21.7,0C554.7,461.3,540.4,461.2,536.4,463.7z M649.9,361.2
		c0,0.3,0,0.6,0,0.9c7.4,0,14.8,0,22.2,0c0-0.3,0-0.6,0-0.9C664.7,361.2,657.3,361.2,649.9,361.2z M714.9,368.3
		c0.1-0.3,0.1-0.7,0.2-1c-9,0-17.9,0-26.9,0c0,0.3,0,0.7,0,1C697.1,368.3,706,368.3,714.9,368.3z M40.4,367c-3.1,0-5.6,0-8,0
		s-4.8,0-7.2,0C33.2,370.8,38.2,370.8,40.4,367z M811,448.1c0,0.3,0,0.7,0,1c9,0,17.9,0,26.9,0c0-0.3,0-0.7,0-1
		C828.9,448.1,819.9,448.1,811,448.1z M605.1,461.8c0,0.3,0,0.6,0,0.9c7.5,0,15.1,0,22.6,0c0-0.3,0-0.6,0-0.9
		C620.2,461.8,612.6,461.8,605.1,461.8z M469.4,483.9c0-0.5,0-1.1,0-1.6c-8.4,0-16.8,0-25.3,0c0,0.2,0,0.3,0,0.5
		C452.6,483.1,461,483.5,469.4,483.9z M495.2,387.8c0-0.7,0-1.4,0.1-2.1c-5.7,0-11.4,0-17.1,0c0,0.3,0,0.7,0,1
		C483.8,387.1,489.5,387.5,495.2,387.8z M32,502.8c-0.1-0.6-0.1-1.2-0.2-1.8c-7.2,0.5-14.5,0.9-21.7,1.4c0,0.2,0,0.3,0,0.5
		C17.4,502.8,24.7,502.8,32,502.8z M812.6,385.7c0-0.6-0.1-1.1-0.1-1.7c-7.5,0.4-15,0.8-22.5,1.2c0,0.2,0,0.3,0,0.5
		C797.6,385.7,805.1,385.7,812.6,385.7z M775.4,455.9c0-0.3-0.1-0.7-0.1-1c-8.7,0-17.3,0-26,0c0,0.3,0,0.7,0,1
		C758,455.9,766.7,455.9,775.4,455.9z M831.8,423.3c4.3,0.2,8.5,0.4,12.8,0.6c0-0.6,0-1.3,0.1-1.9
		C840.4,419.5,836.1,420.8,831.8,423.3z M778.4,470.4c0-0.6,0-1.2,0-1.7c-6.1,0.4-12.2,0.8-18.3,1.3c0,0.2,0,0.3,0.1,0.5
		C766.3,470.4,772.3,470.4,778.4,470.4z M529.3,373.3c0-0.3,0-0.6,0-0.9c-9.3,0-18.6,0-27.9,0c0,0.3,0,0.6,0,0.9
		C510.6,373.3,519.9,373.3,529.3,373.3z M599.8,511.2v-0.1c-6.9-0.5-13.8-0.9-20.7-1.4c0,0.5,0,1-0.1,1.5
		C586.1,511.2,592.9,511.2,599.8,511.2z M907.9,418.9c-0.1-0.3-0.1-0.7-0.2-1c-5.7,0-11.4,0-17.1,0c0,0.3,0,0.7,0,1
		C896.4,418.9,902.2,418.9,907.9,418.9z M575.8,401.1c0-0.5,0-1,0-1.5c-5.9,0.4-11.8,0.9-17.8,1.3c0,0.4,0.1,0.8,0.1,1.2
		C564,401.9,569.9,401.5,575.8,401.1z M451.7,452.7c0-0.2,0-0.3,0-0.5c-8.6,0-17.1,0-25.7,0c0,0.2,0,0.3,0,0.5
		C434.6,452.7,443.2,452.7,451.7,452.7z M404.7,419.1c0-0.3,0-0.6,0-1c-7.2,0-14.5,0-21.7,0c0,0.3,0,0.6,0,1
		C390.2,419.1,397.5,419.1,404.7,419.1z M448.1,416.7c0,0.1,0.1,0.2,0.1,0.3c5.7,0.4,11.3,0.8,17,1.2c0-0.5,0.1-1,0.1-1.6
		C459.6,416.7,453.9,416.7,448.1,416.7z M349.1,386.2c0-0.5,0-1,0-1.6c-4.2-0.2-8.4-0.4-12.6-0.6c0,0.7,0,1.4,0,2.2
		C340.7,386.2,344.9,386.2,349.1,386.2z M770.7,533.2c0.1-0.6,0.1-1.3,0.2-1.9c-3.7,0-7.5,0-11.2,0c-0.1,0.4-0.1,0.8-0.2,1.1
		C763.2,532.6,766.9,532.9,770.7,533.2z M732.3,406.6c0,0.3,0,0.6,0,0.9c4.1,0,8.1,0,12.2,0c0-0.3,0-0.6,0.1-0.9
		C740.4,406.6,736.3,406.6,732.3,406.6z"/>
	<path class="st3" d="M1024.7,437.5c-21.2-1.1-42.5,2.2-63.7-0.4c0-0.6,0-1.1,0-1.7c7.6,0,15.1,0,22.7,0c0-0.4-0.1-0.7-0.1-1.1
		c-9.8,0-19.6,0-29.3,0c0-0.5,0-1,0-1.5c13.5,0,27.1,0,40.4,0c-0.1,0.2-0.4,1.1-1.1,2.9C1004.7,430.4,1014.6,435.6,1024.7,437.5z"/>
	<path class="st3" d="M944.6,443.4c2.6-0.5,5.3-1.4,7.8-1.3c13.1,0.7,26.3,1.7,39.5,2.9c-15.7,0-31.4,0-47.2,0
		C944.6,444.5,944.6,443.9,944.6,443.4z"/>
	<path class="st3" d="M962.7,502.5c14,0,28,0,42.1,0C990.7,503.6,976.7,504.5,962.7,502.5z"/>
	<path class="st3" d="M984.9,513c-6.4,0-12.8-0.2-19.1,0.1c-1.8,0.1-5.7-2.4-5.4,2.7c-1,0.1-2.2,0.5-2.9,0.1
		c-2.4-1.3-4.6-2.8-6.7-4.2c11.1,0,22.7,0,34.2,0C984.9,512.2,984.9,512.6,984.9,513z"/>
	<path class="st3" d="M949.5,539.4c-8.7,0-17.5,0-26.2,0c0-0.4,0-0.8-0.1-1.2c8.7,0,17.4,0,26.1,0
		C949.4,538.6,949.4,539,949.5,539.4z"/>
	<path class="st3" d="M923.5,379.6c6.4,0.2,12.8,0.4,19.2,0.7c2.4,0.1,4.8,0.7,7.3,1.8c-7.1,0-14.3,0-22.7,0
		c1.6-0.9,2.2-1.2,3.3-1.8C927.9,380,925.7,379.8,923.5,379.6C923.4,379.6,923.5,379.6,923.5,379.6z"/>
	<path class="st3" d="M958.5,398.8c11.1,0,22.3,0,33.4,0c0,0.3,0,0.6,0,1c-11.3,0-22.5,0-33.8,0
		C958.2,399.4,958.4,399.1,958.5,398.8z"/>
	<path class="st3" d="M920.7,490.7c10.3,0,20.7,0,31,0c0,0.3,0,0.7,0,1c-10.3,0-20.7,0-31,0C920.7,491.4,920.7,491,920.7,490.7z"/>
	<path class="st3" d="M981.9,369.1c-9.1,0-18.2,0-27.3,0c0-0.4,0-0.8,0-1.3c9.1,0,18.2,0,27.3,0
		C981.9,368.3,981.9,368.7,981.9,369.1z"/>
	<path class="st3" d="M1053.9,483.8c-12.2,0-24.4,0-36.7,0c0-0.2,0-0.3,0-0.5c12.2,0,24.4,0,36.7,0
		C1053.9,483.5,1053.9,483.6,1053.9,483.8z"/>
	<path class="st3" d="M1012.9,377.3c-5.6,3.2-12.4,3.2-16.6,0C1001.9,377.3,1007.1,377.3,1012.9,377.3z"/>
	<path class="st3" d="M989.7,449.8c-9.1,2.5-18.8,0.5-28.3,1.2c0-0.4,0-0.8-0.1-1.2C970.9,449.8,980.4,449.8,989.7,449.8z"/>
	<path class="st3" d="M993.6,449.8c8.4,0,16.9,0,25.3,0c0,0.2,0,0.5,0,0.7c-8.4,0-16.9,0-25.3,0C993.6,450.2,993.6,450,993.6,449.8z
		"/>
	<path class="st3" d="M961.3,427.3c-4.2,0-9.9,0-16.6,0C951.7,421.7,957,429.3,961.3,427.3z"/>
	<path class="st3" d="M941.3,484.9c7.4-0.4,14.8-0.8,22.2-1.2c0,0.4,0,0.8,0.1,1.2c-7.4,0.4-14.8,0.8-22.2,1.2
		C941.3,485.7,941.3,485.3,941.3,484.9z"/>
	<path class="st3" d="M996.3,481.1c6.2,0,12.5,0,18.7,0c0,0.5,0,1,0,1.5c-6.3,0-12.5,0-18.8,0C996.2,482.1,996.3,481.6,996.3,481.1z
		"/>
	<path class="st3" d="M1029.2,465.8c-6.5,0-12.7,0-19,0C1016.4,465.1,1022.6,462.4,1029.2,465.8z"/>
	<path class="st3" d="M983.2,372.9c6.8-0.4,13.6-0.8,20.5-1.2c0,0.3,0.1,0.5,0.1,0.8c-3.3,0.5-6.6,1.1-10,1.4
		c-3.5,0.2-6.9,0.1-10.4,0.1C983.3,373.6,983.2,373.3,983.2,372.9z"/>
	<path class="st3" d="M927.5,365.2c-7,0-13.4,0-19.7,0c0-0.5,0.1-1,0.1-1.5C914.2,364.2,920.6,364.7,927.5,365.2z"/>
	<path class="st3" d="M931.9,482.7c-8.5,0-17,0-25.5,0c0-0.1,0-0.3,0-0.4c8.5,0,17,0,25.5,0C931.9,482.5,931.9,482.6,931.9,482.7z"
		/>
	<path class="st3" d="M982.1,522.4c5.2,0.3,10.8-1.7,15.8,0.8c-0.1,0.5-0.1,1.1-0.2,1.6C992.5,524,987.3,523.2,982.1,522.4z"/>
	<path class="st3" d="M973.1,441.2c5.6,0,11.2,0,16.8,0c0,0.2,0,0.4,0,0.6c-5.6,0.3-11.3,0.6-16.9,1
		C973.1,442.3,973.1,441.7,973.1,441.2z"/>
</g>
<g class="st0">
	<path class="st4" d="M293,546.2c-7.6-0.4-15.3-0.9-22.9-1.3c0,0.5,0,0.9-0.1,1.4c18.9,0.6,37.8,1.3,56.8,1.9c0,0.1,0,0.3,0,0.4
		c-19.9,0-39.8,0-59.6,0c-0.1,0.4-0.1,0.9-0.2,1.3c1.4,0.4,2.9,1.1,4.3,1.1c10.9-0.2,21.8-0.8,32.7-0.9c4.9,0,9.8,0.8,14.7,2.1
		c-12.2,0-24.5,0-37,0c0.4,1.5,0.6,2.1,0.7,2.7c-2.1,0.3-4.1,1-6.2,1c-9.3,0.1-18.6,0-27.9,0.2c14.8,2.9,30-1,44.8,3.2
		c-4,0.3-8.1,0.6-12.1,0.9c0,0.4,0,0.7,0,1.1c1,0.3,2,0.5,3.1,0.8c0,0.4-0.1,0.9-0.1,1.3c-7.6,0-15.3,0-22.9,0c0,0.4,0,0.9-0.1,1.3
		c1.1,0.1,2.2,0.3,4,0.5c-1.9,1-3.1,1.7-5.6,3c5.6,0.9,10,1.5,14.5,2.2c0,0.2,0,0.4,0,0.6c-9.7,0-19.4,0-29,0c0,0.4,0,0.7-0.1,1.1
		c15,0.6,30.1,1.2,45.1,1.9c0.1,0.5,0.1,1,0.2,1.6c-7.1,0.6-14.2,1.3-21.3,1.9c0,0.2-0.1,0.5-0.1,0.7c5.9,0,11.8,0,17.7,0
		c0,0.4,0,0.9,0.1,1.3c-2.7,0.4-5.4,0.8-8,1.1c0,0.6,0.1,1.3,0.1,1.9c6,0,12,0,18.1,0c0,0.4-0.1,0.7-0.1,1.1
		c-5.2,0.3-10.4,0.6-15.6,0.9c0,0.4,0,0.8,0,1.2c2,0.2,4,0.3,6,0.5c0,0.1,0,0.3,0,0.4c-2,0.2-4,0.5-5.9,0.7c0,0.5,0.1,0.9,0.1,1.4
		c2.8-0.1,5.7-0.2,8.5-0.4c0,0.6,0,1.2,0,1.8c-9.5,0.4-19.1,0.8-28.6,1.2c0,0.4,0,0.8,0,1.1c10.4,0.8,20.9,1.6,31.3,2.4
		c0,0.6-0.1,1.3-0.1,1.9c-4.6,0.4-9.3,0.7-13.9,1.1c0,0.6,0,1.2,0,1.7c11.8,0,23.6,0,35.4,0c0,0.4,0,0.9,0,1.3
		c-16.3,0-32.6,0-48.8,0c12.9,4,26.2,0.8,39.2,1.3c0,0.5,0,0.9-0.1,1.4c-3.4,0.5-6.8,1.1-10.9,1.7c2.1,0.8,3.6,1.4,5.1,1.9
		c0,0.3,0,0.6,0,0.9c-3.9,0-7.7,0-11.6,0c0,0.4,0,0.9-0.1,1.3c11,0,22.1,0,33.1,0c0,0.5,0,0.9,0,1.4c-2.6,0-5.2,0-7.8,0
		c0,0.3,0,0.6-0.1,0.9c1.3,0.2,2.7,0.4,4,0.6c0,0.3,0,0.6-0.1,0.9c-6.9-0.4-13.8-0.8-21.2-1.2c0.3,1,0.5,1.7,0.8,2.8
		c-9.1-0.3-18.2-2.1-27.2,0.8c-1.3-2.9-0.9-2.3-3.8-0.1c-2.2,1.7-5.7,1.8-8.7,2.4c-1.4,0.3-2.9,0-4.4,1.1c14.3,0,28.7,0,43.1,0
		c-8.4,4.7-8.9,4.6-17.5,5.2c-2.4,0.2-4.6,2.2-7.3,3.5c7.9,1.1,15.6,0.2,22.8,2.9c-0.1,0.5-0.1,0.9-0.2,1.4c-5.6,0-11.3,0-16.9,0
		c0,0.2-0.1,0.5-0.1,0.7c3.6,0.7,7.2,1.4,10.8,2.1c0,0.2,0,0.5,0,0.7c-1,0.2-2.1,0.5-4.2,0.9c2.1,0.4,3.2,0.6,4.3,0.8
		c0,0.4,0,0.7,0,1.1c-12,0-24,0-36,0c0,0.6,0,1.2-0.1,1.8c10.8,0.7,21.6,1.4,32.4,2c0,0.5,0,1.1-0.1,1.6c-1.9,0.1-3.7,0.3-5.6,0.4
		c-0.1,0.3-0.2,0.6-0.2,0.9c2,0.5,4,1,6,1.6c-15.9,4.8-32.2,2.8-48.3,3.3c0,0.5,0,0.9,0,1.4c18.1,0,36.2,0,54.3,0
		c0.1,0.4,0.2,0.7,0.3,1.1c-4.2,1.2-8.4,2.4-12.5,3.6c0.8,0.4,2,1.1,3.4,1.9c-1.6,0.1-2.9,0.3-4.1,0.4c-0.2,0.5-0.5,1-0.4,1
		c1.4,1.2,2.8,2.3,4.2,3.4c-0.1,0-0.8,0.4-1.5,0.7c4.7,0.7,9.3,1.4,14,2.1c-0.1,0.6-0.1,1.2-0.2,1.8c-6,2.2-12,0.1-18-1.3
		c6.1,5.5,13.5,1.6,20.1,4.3c-5.5,0-10.9,0-16.4,0c0,0.5,0.1,0.9,0.1,1.4c1.9,0.2,3.7,0.3,5.7,0.5c-1.9,1.4-3.7,2.8-5.5,4.3
		c1.4,0.7,2.8,1.3,4.1,2c0,0.6,0,1.2,0,1.7c-10.4,0-20.8,0-32.2,0c1.6,1.9,2.1,2.5,3.1,3.6c-10.1,0-19.3,0-28.6,0c0,0.5,0,1,0,1.4
		c14.1,0,28.3,0,43.8,0c-4.5-0.9-7.8-1.6-11.1-2.3c0-0.3,0-0.6,0-0.9c5.8,0,11.7-0.6,17.4,0.2c5.4,0.7,10.6,3,15.7,4.5
		c-0.1,0.1-0.6,0.5-1.5,1.1c1.7,0.1,3.1,0.3,4.5,0.4c0,0.3,0,0.7,0,1c-8.2,0-16.5,0-24.7,0c0,0.7,0,1.4,0,2.1
		c5.7,0,11.4-0.2,17.1,0.1c2.8,0.2,6.4-2.2,8.5,2.3c0.4,0.8,3.7,0.3,5.7,0.4c3.1,0,6.3,0,9.4,0c0,0.5,0,1,0,1.5
		c-7.2,0-14.4,0-21.6,0.1c0,0,0,1.4,0,2.4c-8.4,0-16.7,0-25,0c0,0.4,0,0.7-0.1,1.1c10.4,0.7,20.8,1.3,31.2,2c0,0.4,0,0.9,0.1,1.3
		c-4.7,0-9.5,0-14.2,0c0,0.5,0.1,1.1,0.1,1.6c3.1,0,6.1,0,9.2,0c2.8,0,2.7,0.1,3.4,2.8c0.1,0.3,1.2,0.3,1.9,1.1
		c-10.6,0-21.2,0-31.8,0c0,0.4,0,0.8,0,1.1c6,0.5,11.9,0.9,18.3,1.4c-2.5,0.6-4.6,1-6.7,1.5c0,0.3,0,0.5,0,0.8
		c3,0.8,5.9,1.7,8.9,2.5c0,0.3-0.1,0.5-0.1,0.8c-5.9,0-11.9,0-17.8,0c0,0.5-0.1,1-0.1,1.5c5.9,0,11.9,0,17.8,0c0,0.6,0,1.2,0,1.9
		c-94,0-188,0-282.9,0c1-2,1.9-3.7,2.6-4.9c-0.5-0.8-1.8-2-1.8-3.3c-0.2-7.8-0.1-15.6-0.1-23.9c1.8-0.2,3.3-0.3,4.9-0.5
		c0-0.1,0-0.3,0-0.4c-1.6-0.2-3.2-0.5-4.1-0.6c-0.3-4.1-0.7-7.9-0.7-11.6c0-1.3,1.1-2.6,1.7-3.8c-4.4-5.1-0.1-11.8-2.3-18.1
		c4-0.6,7.2-1.2,10.4-1.7c0-0.2,0-0.4,0-0.5c-3.1,0-6.3,0-9.6,0c0-9.8,0-19.1,0-29.2c5.8,0,11.6,0,18.4,0c-6.3-4.8-12.6,0-18.4-2.5
		c0-25.7,0-51.7,0-78c90.1,0,180.4,0,270.7,0c-0.6,0.4-1.2,0.9-1.9,1.4c0,0.4,0,0.8,0,1.3c8,0.6,16.1,1.1,24.1,1.7
		C293.1,545.2,293,545.7,293,546.2z M214.8,705.4c0-0.3-0.1-0.7-0.1-1c-11.1,0-22.2,0-33.4,0c-10.5,0-21.1,0-31.6,0c0,0.3,0,0.7,0,1
		C171.4,705.4,193.1,705.4,214.8,705.4z M237.3,661c0,0.6,0,1.3-0.1,1.9c9.3,0,18.6,0,27.9,0c-4.8-1.2-9.5-6.8-14-1.9
		C246.2,661,241.8,661,237.3,661z M131.8,594.4c0-0.4,0.1-0.8,0.1-1.2c-14.5,0-29,0-43.6,0c0,0.4,0,0.8,0,1.2
		C102.8,594.4,117.3,594.4,131.8,594.4z M96.4,549.3c0-0.4,0-0.7-0.1-1.1c-11.1,0-22.2,0-33.4,0c0,0.4,0,0.7,0,1.1
		C74.1,549.3,85.2,549.3,96.4,549.3z M198.9,716.3c3.6-1,7.6,1.4,11.4-1.9c2.3-2,7.4-0.9,11.2-1.2c0-0.4-0.1-0.7-0.1-1.1
		c-8.1,0-16.2,0-24.3,0c1.2,0.6,2.4,0.7,3.7,0.8c1.2,0.1,2.3,0.3,3.4,0.5c0,0.3,0,0.6,0,0.9C202.4,715,200.6,715.7,198.9,716.3z
		 M225,681c-0.1-0.4-0.2-0.7-0.3-1.1c-12.2,0-24.3,0-36.5,0c0,0.4,0,0.7,0,1.1C200.5,681,212.8,681,225,681z M274.4,676.7
		c-0.1-0.5-0.1-1-0.2-1.6c-1.6,0.3-3.7,1.3-4.7,0.7c-4.8-2.9-9,1.7-13.5,0.5C262.1,679,268.2,678.3,274.4,676.7z M23.9,547.1
		c9.6,4.1,15.5,3.9,15.5,0C34.6,547.1,29.8,547.1,23.9,547.1z M250.8,602.8c0-0.1-0.1-0.2-0.1-0.3c-4.9-0.8-9.8-1.8-14.8-2.5
		c-1.8-0.3-4.6-0.8-2.8,2.8C239,602.8,244.9,602.8,250.8,602.8z M10.3,682.3c0,0.1-0.1,0.3-0.1,0.4c7.3,0,14.5,0,21.8,0
		c0-0.6,0-1.2,0-1.8C24.8,681.4,17.5,681.8,10.3,682.3z M282,694.9c-6.4-3.2-13.1-3.2-20,1.1C268.9,695.6,275.5,695.2,282,694.9z
		 M274.7,585.3c0-0.5-0.1-1-0.1-1.4c-5.5,0.5-10.9,0.9-16.9,1.4C263.7,585.3,269.2,585.3,274.7,585.3z M230.7,602.9
		c0-0.3,0-0.7,0.1-1c-5,0-10,0-15,0c0,0.7,0.1,1.3,0.1,2C220.8,603.5,225.8,603.2,230.7,602.9z"/>
	<path class="st4" d="M297.9,689.7c5.6,0,10.8,0,16,0c0,0.5,0,1,0,1.5c-5.3,0-10.6,0-15.9,0C298,691,298,690.1,297.9,689.7z"/>
</g>
<g class="st0">
	<path class="st5" d="M402.5,899.2c1.4-0.1,2.9-0.2,4.3-0.3c-67.3,3.1-134.6,0.6-201.9,1C136.5,900.3,68,900-1.8,900
		c1.2-2.5,2-4.2,2.8-5.9c-0.3-0.4-1.8-1.6-1.9-2.8c-0.2-8-0.1-16-0.1-24.1c1.9-0.2,3.5-0.3,5-0.5c0-0.2,0-0.4,0-0.6
		c-1.6-0.1-3.2-0.3-5.2-0.4c2.8-4-1.2-7.7,0.2-11.4c0.6-1.5,1.4-2.9,1.8-3.6c-4.1-5.5-0.5-12.1-2.2-18.4c3.8-0.7,7.1-1.2,10.4-1.8
		c0-0.2,0-0.3,0-0.5c-3.1,0-6.2,0-9.7,0c0-9.8,0-19.2,0-29.3c5.8,0,11.5,0,17.2,0c0-0.5,0-1,0-1.5c-5.6,0-11.2,0-17.2,0
		c0-26.5,0-52.6,0-79.2c26.5,0,52.9,0,79.3,0c26.5,0,53,0,79.5,0c26.3,0,52.7-0.3,79,0.1c26.3,0.4,52.6-1.8,78.9,1.3
		c-1.3-0.2-2.6-0.4-4.1-0.7c0.3-0.3,0.4-0.6,0.6-0.6c30.2,0,60.3-0.1,90.5,0c9.2,0,18.4,0.8,27.6,0.9c7.3,0,14.5-0.8,21.8-0.8
		c3.1,0,7.1-1.5,9.1,3.4c0.4,1,4.3,0.6,6.5,1.3c-5.5,0.3-10.9,0.5-16.4,0.8c0,0.4,0.1,0.8,0.1,1.2c2.3,0.1,4.5,0.2,6.8,0.3
		c0,0.2,0,0.5,0,0.7c-5.8,0.5-11.7,1-17.5,1.5c0,0.2,0,0.5-0.1,0.7c8,0.4,16,0.9,24,1.3c0,0.2,0,0.4,0,0.6c-9.9,0.5-19.8,1-29.6,1.5
		c0,0.2-0.1,0.3-0.1,0.5c5.8,0.7,11.5,1.7,17.3,1.9c2.3,0.1,4.6-2.6,6.9-2.6c3.6-0.1,7.3,1.1,11,1.6c1.5,0.2,3,0.2,4.5,0.2
		c6.9,0,13.8,0,20.7,0.1c0.7,0,1.4,0.7,2,2.1c-22.8,0-45.6,0-68.3,0c0,0.6,0,1.1,0,1.7c9.8,0,19.5-0.1,29.3,0
		c7.5,0.1,15,0.4,22.5,0.7c1.3,0,2.9,0.8,3.8,0.3c3.7-2.1,6,0.1,8.4,2.5c-4.5-0.4-9.1-1.1-13.6-1c-3.9,0.1-7.7,1.4-11.6,1.6
		c-15.6,1-31.2,1.9-46.8,2.8c0-0.5-0.1-1-0.1-1.5c1-0.2,2-0.4,2.9-0.6c-0.1-0.5-0.2-1-0.4-1.6c-6.3,1.5-12.6,3-18.9,4.5
		c0.1,0.3,0.1,0.7,0.2,1c14.7,0.6,29.4,1.2,44.1,1.8c0,0.5,0,0.9-0.1,1.4c-1.9,0.1-3.9,0.2-5.8,0.3c0,0.2,0,0.4,0,0.5
		c3.8,0,7.5,0,11.3,0c0.5-4.4,4.8-5,11.2-0.7c-2.2,0-3.8,0.1-5.3,0c-1.4-0.1-2.7-0.5-4.1-0.8c-0.1,0.4-0.2,0.8-0.3,1.3
		c1.9,0.3,3.9,0.6,6.9,1.1c-5.3,0.7-9.6,1.3-13.8,1.8c0,0.2,0,0.3,0,0.5c7.5,0,15,0,22.5,0c0,0.2,0,0.5,0,0.7
		c-10.3,1.1-20.6,2.1-30.9,3.2c0,0.3,0,0.5,0,0.8c0.7,0.3,1.5,0.6,2.2,0.9c0,0.2-0.1,0.4-0.1,0.7c-4,0-8.1,0-12.1,0
		c0,0.3-0.1,0.6-0.1,1c4.7,0.8,9.4,1.6,14.1,2.4c0,0.4,0,0.8,0.1,1.2c-18.3,0-36.5,0-54.8,0c0,0.8,0,1.6,0,2.4
		c25.8,0.5,51.7,1.1,77.5,1.6c0,0.5,0,1.1,0,1.6c-5.8,0-11.7,0-17.5,0c-0.1,0.4-0.1,0.8-0.2,1.2c5.2,0.6,10.4,1.2,15.6,1.7
		c0,0.4,0,0.7,0,1.1c-5,0.3-10,0.7-15,0.7c-3.7,0-7.4-0.6-11.1-0.5c-2.5,0.1-5,1-7.5,1.4c-1.8,0.2-3.8,0.7-5.4,0.2
		c-8.4-2.7-17-1.2-25.5-0.8c-9.3,0.4-18.5,1.8-27.8,2.8c2,0.3,4.1,1,6.3,1c17.7-0.2,35.3-0.6,53-0.9c1.6,0,3.1,0,4.7,0
		c0,0.5,0.1,1,0.1,1.5c-5.8,0-11.5,0-17.3,0c0,0.7,0,1.3,0,2c14.4,0,28.9,0,43.3,0c0,0.5,0,1.1,0.1,1.6c-5.3,2-11,0.6-16.5,0.9
		c-5.5,0.3-10.9,0.1-16.4,0.9c10.3,1.8,21.1,0.5,30.9,4.5c-0.1,0.6-0.1,1.1-0.2,1.7c-10.9,0-21.7,0-32.6,0c0,0.4-0.1,0.9-0.1,1.3
		c5.3,0.2,10.5,0.5,15.8,0.8c0,0.3,0,0.7,0,1c-8.2,0-16.3,0-24.5,0c14.1,4.3,28.7,1.8,43.9,3.2c-8.1,2-16.1-1.7-23.6,3.2
		c5.3,0.6,10,1.2,14.6,1.7c0,0.1,0,0.3,0,0.4c-3.1,0.3-6.3,0.5-9.4,0.8c0.1,0.3,0.1,0.7,0.2,1c9.4,0,18.8,0,28.2,0
		c-24.2,6.6-48.9,6.5-73.7,7.1c8.7,0.5,17.3,1.1,26,1.6c0,0.1,0,0.3,0,0.4c-1,0.2-2,0.4-3.1,0.6c0,0.4,0.1,0.8,0.1,1.2
		c16.9-0.7,33.9-1.5,50.8-2.2c0,0.3,0.1,0.6,0.1,0.9c-8.3,0.9-16.7,1.8-25,2.8c0,0.4,0.1,0.7,0.1,1.1c11.3,0,22.5,0,33.8,0
		c0,0.3,0,0.6,0,0.8c-10.3,0-20.6,0-30.9,0c0,0.2-0.1,0.4-0.1,0.6c1.5,0.4,3,0.9,5.6,1.6c-15.4,0-29.7,0-43.9,0c0,0.7,0,1.4,0,2.1
		c11,0,21.9,0,32.9,0c0,0.5,0,1.1,0,1.6c-1.5,0.1-3.1,0.2-4.6,0.3c0,0.3,0,0.6,0,1c13,0,26,0,39,0c0,0.3,0,0.5,0,0.8
		c-2.4,0-4.9,0-7.3,0c-0.1,0.5-0.1,1-0.2,1.4c6.3,0.6,12.5,1.3,19.1,1.9c-0.4,0.8-0.7,1.5-1.2,2.5c1.3,0.2,2.4,0.3,4.1,0.5
		c-0.6,0.4-0.8,0.7-1,0.7c-10.7,0-21.3,0.5-32,0c-12.3-0.6-24.6-1.9-36.8-3c-0.7-0.1-1.3-1.2-1.5-2.9c-2.8,0-5.6,0-8.4,0
		c0,0.3,0,0.6,0,0.9c1.7,0.1,3.4,0.2,5.2,0.3c0,0.2,0.1,0.4,0.1,0.7c-2.2,0.6-4.5,1.1-6.3,1.5c17.8,4.3,36.4,5.7,55.3,4.4
		c0,0.6,0,1.2-0.1,1.8c-8,0-16,0-24.1,0c0,0.5,0,1,0,1.4c2.9,0,5.9,0,8.8,0c0,0.2,0,0.4,0,0.7c-10.1,0.6-20.2,1.2-30.3,1.8
		c0,0.3,0,0.6,0.1,0.9c24.4,0.8,48.8,1.6,73.2,2.4c0,0.5,0,0.9,0,1.4c-7.9,0-15.7,0-24.9,0c2.5,0.8,3.8,1.2,5.1,1.6
		c0,0.3-0.1,0.6-0.1,0.8c-17.1,0.6-34.3,1.3-51.4,1.9c7.4,3.2,16.3-2.4,23.9,5c-5.5,0-10.1,0-15.1,0c0.6,0.8,1.2,1.7,2.2,3
		c-9.2,3.6-19-0.1-28,2.3c0,0.5,0.1,1.1,0.1,1.6c12.5,0,25.1,0,37.6,0c0,0.4,0,0.9,0,1.3c-1.4,0.2-2.9,0.4-4.3,0.6
		c0,0.3,0,0.6,0,0.8c4.2,0.4,8.4,0.8,12.9,1.2c-0.2,0.6-0.5,1.4-1.2,3.2c8.7,0.7,17.4,1.3,26.5,2c-4.8,0.5-9.4,1-13.9,1.5
		c-1.1,0.1-2.4,0.2-3.2,0.7c-2.5,1.6-3.9,1.2-6.9-0.1c-4-1.7-9.3-0.2-14.1-0.1c-2.2,0.1-4.5,0.2-6.7,0.1c-2.4-0.1-4.8-0.6-7.2-0.2
		c2.1,0.5,4.2,1,6.3,1.5c0,0.2-0.1,0.5-0.1,0.7c-8.4,0-16.7,0-25.1,0c0,0.7,0,1.4,0,2c18.1,0.1,36.1,0.2,54.2,0.3c0,0.8,0,1.6,0,2.4
		c-16,1-32,2.1-43.9,2.8c7.2-1.5,17.3,4.5,28.5,4c-0.1,0.6-0.3,1.1-0.4,1.7c-3.7,0-7.4,0-12.1,0c1.2,1.6,1.7,2.1,2.5,3.1
		c-4.2,0-7.9,0-11.6,0c0,0.4,0,0.8-0.1,1.3c6.7,0.6,13.3,1.1,20,1.7c-10.2,2.9-20.4,5.9-31.2,0.9c0,0.6,0,1.2,0,1.8
		c1.3,0.1,2.6,0.3,3.9,0.4c0,0.2,0,0.4-0.1,0.6c-5.8,0-11.5,0-17.3,0C402.5,899.6,402.5,899.4,402.5,899.2z M454.9,872.3
		c0.1-0.5,0.1-1.1,0.2-1.6c-5.1-0.9-10.1-2.3-15.2-2.6c-5.8-0.4-11.6,0.1-17.4,0.2c0,0.6,0.1,1.2,0.1,1.8c3.8,0,7.5,0,11.3,0
		c0,0.5,0,1,0,1.5c-7.4,0-14.9,0-22.3,0c0,0.3,0.1,0.5,0.1,0.8C426.1,872.3,440.5,872.3,454.9,872.3z M413.5,755.3
		c-0.1,0.2-0.1,0.4-0.2,0.7c-8,0-16,0-24,0c0,0.4,0,0.8,0,1.3c14.9-1.5,29.9,1.5,44.8,0.6c0-0.6,0-1.2,0-1.9c-5.3,0-10.7,0-16,0
		c0-0.2,0-0.4,0-0.7c1.9-0.2,3.9-0.5,5.8-0.7c0-0.4,0-0.7-0.1-1.1c-7.3,0-14.5,0-22.2,0C405.9,754.1,409.7,754.7,413.5,755.3z
		 M412.8,829.3c0-0.3,0-0.5,0-0.8c-11.6,0-23.2,0-34.9,0c0,0.3-0.1,0.6-0.1,0.9c6.4,0.4,12.7,0.7,19.1,1.1c0,0.4-0.1,0.8-0.1,1.2
		c-7.3,0.3-14.5,0.7-21.8,1c0,0.3,0.1,0.7,0.1,1c9.2,0,18.5,0,27.7,0c-1.7-0.8-3.3-1.6-4.9-2.4c0.1-0.4,0.3-0.8,0.4-1.1
		C403.1,829.8,408,829.6,412.8,829.3z M205,886.1c0-0.6,0-1.1,0-1.7c-18.5,0-36.9,0-55.4,0C168,887.2,186.6,885.4,205,886.1z
		 M412.6,843.8c0-0.5-0.1-0.9-0.1-1.4c-10.5,0-20.9,0-31.4,0c0,0.5,0,0.9,0,1.4C391.6,843.8,402.1,843.8,412.6,843.8z M88,773.4
		c0.1,0.3,0.1,0.7,0.2,1c14.3,0,28.5,0,42.8,0c0-0.3,0-0.7,0-1C116.6,773.4,102.3,773.4,88,773.4z M94.8,729.4c0-0.4,0-0.8,0-1.2
		c-10.9,0-21.8,0-32.7,0c0,0.4,0,0.8,0,1.2C73,729.4,83.9,729.4,94.8,729.4z M355.3,795.7c0,0.4-0.1,0.7-0.1,1.1
		c13.9,0,27.8,0,41.7,0c0-0.4,0-0.7,0-1.1C383,795.7,369.2,795.7,355.3,795.7z M381.1,891.4c0,0.3,0,0.6,0,0.8c12.6,0,25.1,0,37.7,0
		c0-0.3,0-0.6,0-0.8C406.2,891.4,393.6,891.4,381.1,891.4z M355.2,744c-6.7,0-13.4,0-20,0c0,0.6,0,1.1,0,1.7
		C341.9,749,348.4,746,355.2,744z M378.3,853.3c6.1-1.4,12.1,1.9,16.8-3.1C389.7,851.1,383.7,847.6,378.3,853.3z M431.8,725.4
		c0.1-0.2,0.1-0.4,0.2-0.6c-8.5,0-17,0-25.5,0c0,0.2,0,0.4-0.1,0.6C414.9,725.4,423.3,725.4,431.8,725.4z M406.3,849.9
		c-0.1,0.8-0.3,1.6-0.4,2.4c6,0,12,0,18,0c0-0.1,0-0.2,0.1-0.3C418,851.3,412.1,850.6,406.3,849.9z M23.3,727.2
		c8.8,3.9,14.4,3.8,15.6,0C34,727.2,29.1,727.2,23.3,727.2z M358,861.5c-7.4,0-14.7,0-22.1,0C343.4,863.6,350.7,863.6,358,861.5z
		 M9.1,862.3c0,0.1,0,0.2,0,0.3c7.2,0,14.5,0,21.7,0c0-0.6,0-1.1,0-1.7C23.6,861.4,16.3,861.8,9.1,862.3z M346.2,891.2
		c-0.1,0.3-0.1,0.7-0.2,1c6.7,0,13.4,0,20,0c0-0.3,0-0.7,0-1C359.5,891.2,352.9,891.2,346.2,891.2z M307.7,746.4
		c-5.8,0.3-12-1.9-17.5,1c0.1,0.6,0.1,1.2,0.2,1.8C296.1,748.3,301.9,747.4,307.7,746.4z M395.9,867.2c0-0.5,0.1-1,0.1-1.5
		c-4.5,1.2-9.4-1.2-13.7,1.5c0.1,0.7,0.2,1.3,0.3,2C387,868.6,391.4,867.9,395.9,867.2z M364.1,874.8c0,0.5,0,0.9,0.1,1.4
		c7,0,13.9,0,20.9,0c0-0.5,0-0.9,0-1.4C378.1,874.8,371.1,874.8,364.1,874.8z M362.9,734.8c0-0.2,0-0.3,0-0.5c-8.5,0-17.1,0-25.6,0
		c0,0.2,0,0.3,0,0.5C345.8,734.8,354.4,734.8,362.9,734.8z M420,801.1c5-0.1,10.1,4.2,15.8,0C430.1,801.1,425,801.1,420,801.1z"/>
	<path class="st5" d="M488.9,799.1c-7.3,0-14.6,0-21.9,0c0-0.1,0-0.2,0-0.3c7.3,0,14.6,0,21.9,0C488.9,798.9,488.9,799,488.9,799.1z
		"/>
	<path class="st5" d="M449.6,765.2c9.4,0,18.8,0,28.2,0c0,0.3,0,0.7,0,1c-9.4,0-18.9,0-28.3,0C449.5,765.9,449.5,765.5,449.6,765.2z
		"/>
	<path class="st5" d="M441.5,778.9c5.5,0.4,10.9,0.7,16.4,1.1c0,0.1,0,0.3-0.1,0.4c-5.4,0-10.8,0-16.2,0
		C441.6,779.9,441.6,779.4,441.5,778.9z"/>
</g>
<g class="st0">
	<path class="st6" d="M702.9,1054.1c1.1,2.1,2.2,4.4,3.8,7.5c15.9,0.8,33.5,1.8,51.2,2.7c0,0.3,0,0.6,0,0.9
		c-26.3,0.7-52.6,1.4-78.8,2.1c0,0.4,0,0.7-0.1,1.1c20.6,0,41.1,0,61.7,0c0,0.5,0,1,0,1.5c-9.2,0.4-18.5,0.9-27.4,1.3
		c0.1,1.9,0.2,3.8,0.3,5.9c3.3-0.4,6.6-0.7,10.5-1.1c-1.2-0.7-1.9-1.1-3.5-2c11.2-2.6,21.3,1.2,31.5,0.7c-5.3,1-10.7,1.9-16,2.9
		c0.1-0.4,0.1-0.7,0.2-1.1c-3.2-0.3-6.4-0.6-9.6-0.9c0,0.5-0.1,1-0.1,1.4c1.6,0,3.2,0,4.8,0c0.1,0.5,0.2,0.9,0.3,1.4
		c-3.2,0.5-6.5,1.5-9.7,1.5c-63.2,0.1-126.3,0.1-189.5,0.1c-24.7,0-49.3,0-74-0.1c-1.6,0-3.1-0.8-5.3-1.5c-0.8,0.1-2.4,0.5-4.1,0.6
		c-5.6,0.4-11.2,0.9-16.8,0.9c-85.7,0.1-171.3,0-257,0c-56.2,0-112.3,0-168.5,0c-2,0-4,0-7.2,0c0.9-2.3,1.6-4,2.3-5.9
		c-0.2-0.4-1.7-1.7-1.7-3c-0.2-7.8-0.1-15.6-0.1-23.8c1.8-0.2,3.3-0.3,4.9-0.4c0-0.2,0-0.3,0-0.5c-1.5-0.2-3-0.4-4.1-0.6
		c-0.3-4-0.7-7.8-0.7-11.7c0-1.2,1.1-2.5,1.7-3.7c-4.2-5.2-0.5-11.8-2-18.2c3.7-0.6,6.9-1.1,10.1-1.6c0-0.1,0-0.3,0-0.4
		c-3,0-6,0-9.4,0c0-9.7,0-19.1,0-29.4c5.6,0,11.4,0,18.3,0c-6.3-4.8-12.7,0-18.4-2.4c0-25.8,0-51.7,0-77.9c245.2,0,490.5,0,736.8,0
		c-2.7,0.4-4.4,0.6-6,0.8c0,0.5,0,1.1,0,1.6c27.1,0.3,54.2,0.6,81.2,1c0,0.4,0,0.7-0.1,1.1c-26.4,0-52.9,0-79.3,0
		c0-0.2-0.1-0.3-0.1-0.5c2.4,0.6,4.8,1.3,7.1,1.9c0,0.2-0.1,0.3-0.1,0.5c-11.7,0-23.4,0-35.2,0c-0.3-0.3-0.5-0.6-0.8-0.9
		c0.9-0.3,1.7-0.7,3.8-1.5c-2.7-0.4-3.7-0.6-4.8-0.7c0-0.3,0-0.5,0-0.8c5,0,9.9,0,14.9,0c0-0.3,0-0.7,0-1c-5.3,0-10.6-0.2-15.9,0.1
		c-3.7,0.2-7.9,2.7-11.1,1.6c-14.5-4.9-29.3-1.8-44-2.7c-1.3-0.1-2.6,0-5.1,0c16.2,4.8,32.4-1.6,48.5,5.9c-5.3,0-9.2,0-13.1,0
		c0,0.4,0,0.8-0.1,1.3c5.1,0.3,10.3,0.7,15.4,0.8c5.3,0.1,10.7-0.1,16,0.1c5,0.1,10,0.7,15.1,0.7s10.1-0.6,15.2,0.2
		c-1.9,0-3.8,0-5.8,0c0,0.4-0.1,0.8-0.1,1.1c9.2,1.2,18.4,2.4,28.6,3.8c-7.8,0-14.6,0-21.4,0c0,0.4,0,0.7,0,1.1c7,0,14,0,21,0
		c0,0.4,0.1,0.7,0.1,1.1c-2.5,0.4-5,0.7-7.4,1.1c0,0.3,0,0.5,0.1,0.8c9.7,0.8,19.3,1.5,29,2.3c0.1,0.1,0.2,0.2,0.2,0.4
		c-7.1,0.8-14.1,1.5-21.2,2.5c-2.6,0.4-5,1.4-7.6,2.1c-2.8,0.7-5.6,1.7-8.4,1.8c-5.6,0.3-11.3,0.1-17,0.1c0,0.7,0,1.4,0,2.2
		c29.6,0,59.1,0,88.7,0c0,0.7,0,1.4,0,2c-38.6,0-77.2,0-115.8,0c0,0.7,0,1.4,0,2.2c13.5,0,27.1,0,40.6,0c0,0.5,0,1,0,1.5
		c-41.6,1.3-83.2,2.6-124.7,4c0,0.2,0,0.4,0,0.6c63.2,0.5,126.5,1,189.7,1.5c0,0.3,0,0.7,0,1c-8,0-16-0.2-24,0.1
		c-2.4,0.1-4.6,1.6-7,2.3c-1.2,0.4-2.5,0.6-3.8,0.6c-9.7,0-19.4,0-29.6,0c0.8-0.7,1.2-1.1,1.9-1.8c-4.6,0-8.9,0-13.3,0
		c0,0.2,0,0.4-0.1,0.6c1.3,0.1,2.6,0.2,4,0.3c0,0.2,0,0.5,0,0.7c-4.9,0-9.8,0-14.7,0c0,0.3-0.1,0.6-0.1,0.9c3,0.4,6,0.9,9,1.1
		c3.3,0.2,6.7,0,10,1.1c-11.3,0-22.7,0-34,0c-0.1,0.3-0.2,0.6-0.2,0.9c2,0.5,4.1,1,6.2,1.5c0,0,0,0.2,0,0.3
		c-0.1,0.1-0.3,0.1-0.4,0.2c-0.3,0.2-0.6,0.4-0.7,1.7c9.2,0,18.4,0,27.6,0c0,0.5,0.1,1,0.1,1.5c-4.2,0.4-8.4,0.7-12.7,1.1
		c0,0.4,0.1,0.9,0.1,1.3c3.3,0.2,6.6,0.4,9.9,0.5c-0.1,0.6-0.2,1.3-0.3,1.9c-5.5-1.1-11-2.5-16.6-3.2c-3.4-0.4-6.9,0.1-10.3,0.2
		c-1.9,0-3.9,0-5.9-0.6c0.8-0.3,1.6-0.5,2.4-0.8c0-0.3,0-0.6,0-0.8c-7.4,0-14.8,0-22.2,0c0,0.3,0,0.6,0,0.9
		c6.6,0.8,13.3,1.7,19.9,2.5c0,0.3,0,0.5,0,0.8c-8.6,0.7-17.3,1.5-25.9,2.2c0,0.4,0,0.8,0,1.2c19.2,0,38.3,0,57.5,0
		c0.1,0.6,0.1,1.3,0.2,1.9c-5.9,0.6-11.8,1.3-17.6,1.9c0,0.4,0,0.7,0.1,1.1c10.7-0.6,21.4-1.2,32.1-1.7c0,0.5,0.1,1,0.1,1.5
		c-3.1,0-6.1,0-9.2,0c0,0.5,0,1.1,0,1.6c2.6,0.2,5.2,0.3,8.7,0.6c-2,1.1-3.4,1.9-5.1,2.8c8.6,4.9,18.3-2.8,27.1,4
		c-3.7,0-6.5,0-9.3,0c-2.7,0-5.4,0-8.1,0c-2.5,0.1-5.3,0.9-7.5,0.2c-10-3.2-20.3-1.8-30.5-2.2c-1,0-2,0.6-2.8,1.8c6,0,12,0,18,0
		c0,0.5,0,1,0,1.4c-16.5,0-32.9,0-49.4,0c0,0.7,0,1.5,0,2.2c14.9,0,29.8,0,44.7,0c0,0.1,0,0.2,0.1,0.3c-1.4,0.1-2.7,0.3-5,0.5
		c2.8,1.1,4.7,1.8,6.7,2.6c-0.1,0.4-0.1,0.8-0.2,1.2c-9.8,0-19.6,0-29.3,0c0,0.7,0,1.4,0,2c21.3,0,42.5,0,63.8,0
		c0,0.6,0,1.1,0.1,1.7c-1.5,0.2-3.1,0.3-4.6,0.5c0,0.4,0,0.9,0,1.3c4.5,0,9.1,0,13.6,0c0,0.7,0,1.3,0,2c-17,0-33.9,0-50.9,0
		c0,0.4,0,0.8,0,1.2c15.2,0,30.4,0,45.6,0c0,0.3,0,0.5,0,0.8c-7.8,0.5-15.6,1.2-23.4,1.4c-13.3,0.2-26.7,0-40,0.1
		c-3.3,0-6.5,0.9-9.8,1.5c0.1,0.6,0.2,1.2,0.2,1.8c8-0.8,16-1.6,24-2.3c0.1,0.3,0.2,0.6,0.3,0.9c-1.3,0.6-2.6,1.1-5.1,2.2
		c7.1,0,13.1,0,19.1,0c5.2,0,10.5,0.8,15.5-0.2c8.5-1.8,16.9,1.5,25.2,0c5.3-0.9,10.1,0.9,15.1,1.1c-20.2,0.6-40.4,1.1-61.1,1.7
		c2.6,2.4,2.6,2.4,14.1,2.4c5,0,9.9,0,14.9,0c0,0.4,0,0.9,0,1.3c-6.7,0-13.3,0-20,0c0,0.7,0,1.4,0,2c6.3,0,12.6,0,18.8,0
		c0,0.3,0,0.7-0.1,1c-10.1,0-20.1,0-30.2,0c-0.1,0.4-0.1,0.9-0.2,1.3c2.4,0.2,4.8,0.5,7.2,0.5c2.8,0,5.7-0.3,8.5-0.1
		c0.8,0,1.6,1.2,3.3,2.7c-4.5,0-7.4,0-10.2,0c0,0.4,0,0.8,0,1.2c2.7,0,5.4,0,8.1,0c0,0.2,0,0.4,0,0.6c-4,0.4-8,0.8-12,1.2
		c0,0.2,0,0.3,0,0.5c19.3,1,38.6,1.9,58.1,2.9c-8.7,4-17.5,1.1-26.2,1.4c1.6,0.3,3.3,0.6,4.9,0.8c0,0.3,0,0.7,0,1
		c-3.2,0-6.4,0-9.6,0c0,0.4,0,0.9,0,1.3c2.3,0.2,4.6,0.3,7.4,0.5c-12.8,4.6-24.9-1.3-37.1-1.2c-0.1,1.3-0.1,2.4-0.2,3
		c6.6,0.3,13.5,0.6,20.5,1c19.7,0.9,39.3,1.9,59.1,3.3c-10.4,0-20.9,0-31.3,0c4.1,5.8,10.2,1,14.4,4c-2.3,1.4-4.8,3-6.5,4
		c-2.6-0.9-4.7-2.2-6.8-2.3c-10.2-0.2-20.3-0.1-30.6-0.6c1-0.3,2-0.7,3.1-1c-0.1-0.4-0.2-0.8-0.3-1.2c-4.2,0.9-8.3,1.8-13.3,2.9
		c3.5,1.8,5.9,3,8.4,4.3c-0.1,0.6-0.3,1.2-0.4,1.8c-8.6,0-17.2,0-25.8,0c0,0.6,0,1.1,0,1.7c20.9,1.6,41.8,3.2,63.1,4.9
		c-1.3,0.7-2.7,1.5-4.7,2.6c5.8,1.1,10.9,2.1,13.6,2.7C760.7,1054.1,731.4,1054.1,702.9,1054.1z M624.1,946.8
		c-0.2-0.5-0.4-1-0.6-1.5c-6.8,1.7-13.6,3.5-20.6,5.3c6.8,1,13.4,1.9,20,2.9c0.1-0.4,0.1-0.7,0.2-1.1c-1.1-0.2-2.2-0.5-4-0.9
		c9.6-2.2,15.9-1.6,25.6,0.4c6.3,1.2,12.8,1,19.3,1.5c0-0.6,0.1-1.1,0.1-1.7c-2.2-0.2-4.3-0.5-6.5-0.6s-4.4,0-6.7,0
		c0-0.3,0-0.6,0-0.8c2.3-0.1,4.6-0.3,6.8-0.4c0-0.3,0-0.6,0-0.9c-14.4,0-28.7,0-43.1,0c0-0.1,0-0.2,0-0.3
		C617.9,947.9,621,947.4,624.1,946.8z M721.7,1034.9c0,0.4,0,0.7,0,1.1c-4.5,0-9-0.1-13.4,0c-4.4,0.2-8.8,0.7-13.1,1.1
		c0,0.3,0,0.5,0,0.8c11.5,0,23.1,0,34.6,0c0-0.5,0-1,0-1.5c-1.5-0.2-3-0.4-4.5-0.7c0-0.2,0-0.5,0-0.7c3.4,0,6.8,0,10.7,0
		c-3.6-2.6-22.2-2.7-38-0.1C706,1034.9,713.8,1034.9,721.7,1034.9z M543.1,946.7c0,0.1,0,0.2,0,0.3c7.8,0,15.6-0.3,23.3,0.1
		c6.3,0.3,12.5,1.4,18.8,2c1.8,0.2,3.7-0.5,5.6-0.7c-0.1-0.6-0.1-1.1-0.2-1.7C574.8,946.7,559,946.7,543.1,946.7z M670.9,1054.6
		c0.1,0.2,0.3,0.4,0.4,0.6c3.8,0.9,7.5,2.1,11.4,2.7c2.9,0.4,6.1,0.6,8.9-0.1c2.3-0.5,4.2-2.3,6.4-3.5c0-0.3,0-0.7,0-1
		C689,1053.7,679.9,1054.2,670.9,1054.6z M150.8,1064.3c0,0.3,0,0.6,0,1c18.4,0,36.8,0,55.2,0c0-0.3,0-0.6,0-1
		C187.6,1064.3,169.2,1064.3,150.8,1064.3z M576.1,1019.2c0,0.2-0.1,0.4-0.1,0.6c10.3,0.5,20.5,1.1,30.8,1.6c0-0.7,0-1.5,0-2.2
		C596.6,1019.2,586.3,1019.2,576.1,1019.2z M688.6,1074.8c-0.1-0.4-0.2-0.8-0.3-1.3c-4.2-0.5-8.4-1.3-12.6-1.4
		c-2.7-0.1-5.5,0.5-8.1,1.2c-1,0.3-1.6,1.9-3.1,3.7C673.7,1076.2,681.2,1075.5,688.6,1074.8z M554.1,939.8c0,0.6-0.1,1.1-0.1,1.7
		c11.6,1.1,23.2,2.1,34.8,3.2c0-0.5,0.1-1.1,0.1-1.6c-5.6,0-11.3,0-16.9,0c0-0.4-0.1-0.9-0.1-1.3c2.7-0.3,5.4-0.7,8.1-1
		c0-0.3,0-0.6,0-0.9C571.3,939.8,562.7,939.8,554.1,939.8z M650,1050.2c0.1,0.4,0.1,0.8,0.2,1.2c12.6,0,25.1,0,37.7,0
		c0-0.4,0-0.8,0-1.2C675.3,1050.2,662.6,1050.2,650,1050.2z M674.2,989.3c0-0.5,0-1,0-1.5c-16.7,0-33.4,0-50,0c0,0.5,0,1,0,1.5
		C640.8,989.3,657.5,989.3,674.2,989.3z M577.9,1050.9c7.7,1.3,15.4,2.6,23.4,3.9C600.8,1049.8,593.5,1048.8,577.9,1050.9z
		 M509.9,1033.3c0-0.4,0-0.9,0-1.3c-16.3,0-32.6,0-48.9,0c0,0.4,0,0.9,0,1.3C477.3,1033.3,493.6,1033.3,509.9,1033.3z M593.9,970.8
		c0,0.5,0,0.9,0.1,1.4c12.6-1.8,25.4,1.8,37.9-1.4C619.3,970.8,606.6,970.8,593.9,970.8z M131.9,954.4c0-0.3,0-0.7,0-1
		c-14.3,0-28.5,0-42.8,0c0,0.3,0,0.7,0,1C103.4,954.4,117.7,954.4,131.9,954.4z M606.2,923.8c0-0.4,0-0.7,0-1.1c-16,0-32,0-48,0
		c0,0.4,0,0.7,0,1.1C574.2,923.8,590.2,923.8,606.2,923.8z M688.4,1020.6c0-0.3-0.1-0.6-0.1-0.9c-9.4-0.8-18.8-1.7-28.2-2.5
		c0,0.2-0.1,0.4-0.1,0.6c1.2,0.2,2.4,0.4,3.6,0.6c-0.4,0.8-0.7,1.7-1.1,2.5c1,0.2,2.1,0.5,3.1,0.5c4,0,8-0.1,11.9-0.3
		C681.1,1020.9,684.7,1020.7,688.4,1020.6z M644.9,1002.8c0-0.3,0-0.6,0-0.9c-14.2,0-28.5,0-42.7,0c0,0.3,0,0.6,0,0.9
		C616.4,1002.8,630.6,1002.8,644.9,1002.8z M95.8,909.3c0-0.4,0-0.8,0.1-1.2c-11,0-22,0-32.9,0c0,0.4,0,0.8,0,1.2
		C73.9,909.3,84.8,909.3,95.8,909.3z M565.5,1002.6c-11.1,0-20.7,0-30.3,0c0,0.4,0,0.9,0.1,1.3
		C544.9,1003.5,554.6,1005.1,565.5,1002.6z M595.7,1072.7c0,0.3,0,0.7,0,1c13.7,0,27.4,0,41.2,0c0-0.3,0-0.7,0-1
		C623.2,1072.7,609.5,1072.7,595.7,1072.7z M758.7,1051.9c-4.5-2.8-25.1-2.6-27.7,0C740,1051.9,748.9,1051.9,758.7,1051.9z
		 M727.1,988.5c0,0.3,0.1,0.6,0.1,0.9c8.5,0,17,0,25.5,0c0-0.3,0-0.6-0.1-0.9C744.2,988.5,735.7,988.5,727.1,988.5z M772.4,1034.3
		c0-0.7,0.1-1.5,0.1-2.2c-7.8,0.5-15.6,1-23.4,1.5c0,0.2,0.1,0.4,0.1,0.6C756.9,1034.3,764.7,1034.3,772.4,1034.3z M541,913.2
		c0-0.2,0-0.3,0-0.5c-13.3,0-26.6,0-39.9,0c0,0.2,0,0.3,0,0.5C514.4,913.2,527.7,913.2,541,913.2z M661.9,918.6c0,0.5,0,1.1,0.1,1.6
		c10-0.5,19.9-1,29.9-1.5C681.9,918.4,671.9,917.3,661.9,918.6z M420.2,1041.7c-0.1,0.3-0.1,0.7-0.2,1c11.3,0,22.5,0,33.8,0
		c0-0.3,0-0.7,0-1C442.6,1041.7,431.4,1041.7,420.2,1041.7z M677.9,958.9c0-0.1,0-0.2-0.1-0.4c-8.2,0-16.4,0-25.9,0
		c5.3,1,9.4,2.3,13.6,2.3C669.6,960.9,673.8,959.6,677.9,958.9z M734.5,918.7c7.4,3.6,15.5,3,15.6,0
		C744.9,918.7,739.7,918.7,734.5,918.7z M689,1004.8c0,0.4,0,0.8,0,1.3c8.9-1.2,18,3,26.9-1.3C706.9,1004.8,697.9,1004.8,689,1004.8
		z M477.6,925.7c0.1,0.4,0.1,0.8,0.2,1.2c5.8,0.3,11.7,0.6,17.5,0.9c0-0.7,0-1.4,0-2.1C489.4,925.7,483.5,925.7,477.6,925.7z
		 M686.2,1011.9c6.3,0,12.6,0,19,0C698.8,1006.6,692.5,1010.6,686.2,1011.9z M444.1,1022.3c0,0.3,0,0.7,0,1c8.8,0,17.5,0,26.3,0
		c0-0.3,0-0.7,0-1C461.6,1022.3,452.9,1022.3,444.1,1022.3z M741.8,972.7c0-0.3,0-0.6,0-1c-6.5,0-13.1,0-19.6,0c0,0.3,0,0.6,0,1
		C728.7,972.7,735.3,972.7,741.8,972.7z M23.7,907.2c9.9,3.9,15.2,3.8,16,0C34.8,907.2,30,907.2,23.7,907.2z M596.3,960.8
		c-0.1,0.3-0.1,0.7-0.2,1c10.3,0,20.5,0,30.8,0c0-0.3,0-0.7,0-1C616.7,960.8,606.5,960.8,596.3,960.8z M679.8,966.2
		c0.1-0.2,0.1-0.4,0.2-0.5c-6.4-0.3-12.9-0.6-19.3-0.9c0,0.5-0.1,1-0.1,1.5C666.9,966.2,673.3,966.2,679.8,966.2z M640.5,908.2
		c0-0.5,0-1,0-1.6c-7.7,0-15.4,0-23.1,0v0.1C625.1,907.2,632.8,907.7,640.5,908.2z M673.8,1003.3c0.1-0.5,0.1-1,0.2-1.5
		c-5.6,0-11.3,0-16.9,0c0,0.5,0,1,0,1.5C662.6,1003.3,668.2,1003.3,673.8,1003.3z M641.3,1032.1c11,1.7,17.9,1.2,20.8-1.4
		C654.7,1031.2,648,1031.6,641.3,1032.1z M610.9,1023.8c0,0.4,0.1,0.9,0.1,1.3c7,0,13.9,0,20.9,0c0-0.4,0-0.9,0-1.3
		C624.9,1023.8,617.9,1023.8,610.9,1023.8z M32,1042.7c0-0.6,0-1.2,0-1.8c-7.3,0.5-14.5,0.9-21.8,1.4c0,0.1,0,0.3,0,0.4
		C17.5,1042.7,24.7,1042.7,32,1042.7z M621.7,944.7c0.1-0.3,0.2-0.6,0.2-0.9c-8.6,0-17.2,0-25.9,0c0,0.3,0,0.6,0,0.9
		C604.7,944.7,613.2,944.7,621.7,944.7z M447.1,956.5c0.1,0.2,0.1,0.4,0.2,0.6c6.1,0.4,12.3,0.7,18.4,1.1c0-0.5,0.1-1.1,0.1-1.6
		C459.6,956.5,453.3,956.5,447.1,956.5z M588.4,998.1c-0.1,0.2-0.1,0.3-0.2,0.5c9.8,0,19.6,0,29.5,0c0-0.2,0-0.3,0-0.5
		C607.9,998.1,598.1,998.1,588.4,998.1z M693.1,989.1c6.4,0,12.9,2.3,18.9-1.4C705.7,988.2,699.4,988.6,693.1,989.1z M688.9,924.8
		c0-0.2,0-0.3,0-0.5c-9.6,0-19.1,0-28.7,0c0,0.2,0,0.3,0,0.5C669.8,924.8,679.3,924.8,688.9,924.8z M584.2,1003.1c0-0.3,0-0.5,0-0.8
		c-5.7,0-11.5,0-17.2,0c0,0.3,0,0.5,0.1,0.8C572.7,1003.1,578.5,1003.1,584.2,1003.1z M627.3,1018.7c-0.1,0.5-0.1,0.9-0.2,1.4
		c5.9,0.4,11.9,0.8,17.8,1.2c0-0.5,0.1-1,0.1-1.5C639.1,1019.4,633.2,1019.1,627.3,1018.7z M405.7,959.3c0.1-0.3,0.1-0.7,0.2-1
		c-7.6,0-15.2,0-22.8,0c0,0.3,0,0.7,0,1C390.6,959.3,398.1,959.3,405.7,959.3z M707.1,1024.8c5,0,10.6,4.6,16.8,0
		C717.4,1024.8,712.3,1024.8,707.1,1024.8z M451.6,992.9c0.1-0.2,0.1-0.3,0.2-0.5c-8.5,0-17,0-25.4,0c0,0.2,0,0.3,0,0.5
		C434.8,992.9,443.2,992.9,451.6,992.9z M607.1,1053.8c0,0.3,0,0.6,0,0.9c6.5,0,13,0,19.6,0c0-0.3,0-0.6,0-0.9
		C620.2,1053.8,613.7,1053.8,607.1,1053.8z M696.1,945.2c0-0.5,0-1,0-1.5c-6.7,0-13.3,0-20.4,0C682.8,944.2,689.5,944.7,696.1,945.2
		z M349,926.2c-0.1-0.5-0.1-1-0.2-1.5c-4.2,0-8.3,0-12.5,0c0,0.5,0,1,0,1.5C340.6,926.2,344.8,926.2,349,926.2z M575,907.1
		c0,0.4,0,0.8,0.1,1.2c7-0.5,13.9-1,20.9-1.5c0-0.4,0-0.7-0.1-1.1C588.9,906.2,582,906.6,575,907.1z M699,972.5
		c0-0.2-0.1-0.4-0.1-0.5c-5.6,0-11.1,0-16.7,0c0,0.2,0,0.4,0,0.5C687.8,972.5,693.4,972.5,699,972.5z M668.4,1025.7
		c0,0.2,0,0.4-0.1,0.6c7.5,0,14.9,0,22.4,0c0-0.2,0-0.4,0-0.6C683.3,1025.7,675.9,1025.7,668.4,1025.7z M687.9,1016.9
		c0.1,0.5,0.1,0.9,0.2,1.4c5.2-0.3,10.5-0.5,15.7-0.8c0-0.5-0.1-1.1-0.1-1.6C698.5,1016.2,693.2,1016.5,687.9,1016.9z M640.6,1051.3
		c0-0.4-0.1-0.8-0.1-1.3c-5.8,0.4-11.5,0.8-17.3,1.2c0,0,0,0.1,0.1,0.1C629.1,1051.3,634.8,1051.3,640.6,1051.3z M623.5,1027.2
		c-0.2,0.4-0.4,0.8-0.6,1.2c0.9,0.4,1.9,1.3,2.8,1.2c2.1-0.3,4.1-1.3,6.2-1.5c3.3-0.3,6.6-0.1,9.9-0.1c0-0.3,0-0.5,0-0.8
		C635.7,1027.2,629.6,1027.2,623.5,1027.2z M662.3,1059.3c0.1-0.5,0.2-1.1,0.2-1.6c-5.2,0-10.3,0-16.1,0
		C652.1,1058.3,657.2,1058.8,662.3,1059.3z"/>
	<path class="st6" d="M753.7,955c22.2-4.8,44.7-4.3,67.2-1.4c-11.1,0.1-22.1,0.3-33.2,0.3c-1.4,0-2.8-0.5-4.1-1.1
		c-1.7-0.8-3.3-1.8-2.4,1.5c0,0-1.4,0.6-2.1,0.6C770.7,955,762.2,955,753.7,955z"/>
	<path class="st6" d="M731,982.9c22.6,0,45.1,0,67.7,0c0,0.5,0.1,1,0.1,1.5c-3.9,0-7.8,0-12.9,0c1.3,1.4,1.7,1.8,2,2.1
		c-18.9-0.9-37.9-1.9-56.9-2.8C731,983.4,731,983.1,731,982.9z"/>
	<path class="st6" d="M829.8,1075.2c-24.4,0-48.7,0-73.1,0c0-0.5,0-0.9,0-1.4c24.4,0,48.8,0,73.1,0
		C829.8,1074.3,829.8,1074.8,829.8,1075.2z"/>
	<path class="st6" d="M710.1,1058.8c12.6,0,25.1,0,37.7,0c0,0.5,0,0.9,0,1.4c-12.7-1.6-25.3,2.7-38,0.1
		C709.9,1059.7,710,1059.2,710.1,1058.8z"/>
	<path class="st6" d="M871,1068.1c-10.6,0-21.2,0-28.9,0c7.6-0.4,18.3-0.9,28.9-1.3C871,1067.2,871,1067.7,871,1068.1z"/>
	<path class="st6" d="M830,984.7c-8.5,0-17.1,0-25.6,0c0-0.3,0-0.6,0-0.9c8.5,0,17.1,0,25.6,0C830,984.1,830,984.4,830,984.7z"/>
	<path class="st6" d="M779.1,959.8c8.9,0,17.9,0,26.8,0c0,0.5,0,0.9,0,1.4c-8.9,0-17.9,0-26.8,0
		C779.1,960.7,779.1,960.3,779.1,959.8z"/>
	<path class="st6" d="M806.9,990.9c-7.3,0-14.5,0-21.8,0c0-0.3,0-0.7,0-1c7.3,0,14.6,0,21.8,0C806.9,990.2,806.9,990.5,806.9,990.9z
		"/>
	<path class="st6" d="M854.9,1003.8c-10.9,0-21.7,0-32.6,0c0-0.2,0-0.3,0-0.5c10.9,0,21.7,0,32.6,0
		C854.9,1003.5,854.9,1003.6,854.9,1003.8z"/>
	<path class="st6" d="M803,921.8c8.6,0,17.2,0,25.8,0c0,0.3,0,0.6,0,0.9c-8.6,0-17.2,0-25.8,0C803,922.4,803,922.1,803,921.8z"/>
	<path class="st6" d="M744.1,1011.2c5.1,0.3,10.1,0.6,15.2,0.9c0,0.5,0,1.1,0,1.6c-5.1-0.3-10.1-0.6-15.2-0.9
		C744.1,1012.3,744.1,1011.7,744.1,1011.2z"/>
	<path class="st6" d="M807.7,1063.4c8.5-1,9.1-0.9,9.8,3.1c-3.5-0.6-6.8-1.2-10-1.8C807.5,1064.2,807.6,1063.8,807.7,1063.4z"/>
	<path class="st6" d="M761.3,1007.3c5.2-0.5,10.4-1,15.6-1.5c0,0.4,0.1,0.9,0.1,1.3c-5.2,0.6-10.4,1.2-15.6,1.9
		C761.4,1008.3,761.3,1007.8,761.3,1007.3z"/>
	<path class="st6" d="M763.7,900.8c-8.1,0-16.1,0-24.2,0c0-0.2,0-0.3,0-0.5c8.1,0,16.1,0,24.2,0
		C763.7,900.5,763.7,900.6,763.7,900.8z"/>
	<path class="st6" d="M728.4,1057.9c-4.8-0.5-9.7-1.1-14.5-1.6c0-0.4,0.1-0.8,0.1-1.2c4.8,0.3,9.5,0.6,14.3,0.9
		C728.3,1056.6,728.4,1057.2,728.4,1057.9z"/>
	<path class="st6" d="M783.6,1038.3c4.5,0,9,0,13.5,0c0,0.3,0,0.6,0,0.9c-4.5,0-9,0-13.5,0C783.6,1038.8,783.6,1038.6,783.6,1038.3z
		"/>
</g>
</svg>
