<?xml version="1.0" encoding="utf-8"?>
<!-- Generator: Adobe Illustrator 28.2.0, SVG Export Plug-In . SVG Version: 6.00 Build 0)  -->
<svg version="1.1" id="Layer_1" xmlns="http://www.w3.org/2000/svg" xmlns:xlink="http://www.w3.org/1999/xlink" x="0px" y="0px"
	 viewBox="0 0 1920 1080" style="enable-background:new 0 0 1920 1080;" xml:space="preserve">
<style type="text/css">
	.st0{fill:#006DB6;}
	.st1{fill:#0061A0;}
	.st2{fill:#0097D5;}
	.st3{fill:#53B8E8;}
</style>
<rect width="1920" height="1080"/>
<g>
	<g>
		<path class="st0" d="M1073.06,472.46c-12.65-12.65-25-25-37.35-37.35c-0.26,0.23-0.51,0.47-0.77,0.7
			c11.81,13.07,23.62,26.15,36.66,40.59c-5.77-0.68-4.84,8.24-11.44,4.66c0.62,0.99,1.17,1.88,1.78,2.87
			c-3.77,3.77-7.53,7.53-11.35,11.35c-4.83-3.17-9.56-6.28-14.29-9.39c-0.16,0.18-0.32,0.37-0.48,0.55
			c3.79,3.79,7.59,7.59,11.64,11.64c-1.74,1.74-3.55,3.55-5.67,5.67c-5.27-5.87-10.55-11.73-15.82-17.6c-0.55,0.5-1.11,1-1.66,1.51
			c5.58,5.58,11.17,11.17,16.89,16.89c-2.28,2.28-4,4-6.15,6.15c-4.22-4.22-8.43-8.43-12.63-12.63c-0.25,0.25-0.49,0.5-0.74,0.75
			c4.1,4.1,8.19,8.19,12.53,12.53c-23.75,23.75-47.19,47.19-70.94,70.94c-11.71-11.71-23.36-23.36-35-35
			c-0.24,0.24-0.49,0.48-0.73,0.71c11.6,11.6,23.2,23.2,35.03,35.03c-11.54,11.54-22.67,22.67-33.92,33.92
			c-1.34-1.1-2.64-2.15-3.93-3.21c-0.14,0.14-0.28,0.28-0.42,0.42c1,1.18,2.01,2.37,3.49,4.11c-2.71,2.71-5.51,5.51-8.3,8.3
			c-10.19,10.19-20.38,20.38-30.57,30.57c-19.33,19.33-38.62,38.7-58.06,57.92c-1.77,1.75-4.53,2.49-7.26,3.93
			c-0.07-0.11,0.61,0.88,1.22,1.76c-0.2,0.39-0.24,0.58-0.36,0.7c-12.19,11.58-5.44,12.11-27.01,4.43
			c-13.87-4.94-27.63-10.75-40.46-17.92c-14.22-7.94-27.36-17.82-40.89-26.98c-3.47-2.35-6.61-5.18-9.84-7.73
			c2.01-2.39,3.65-4.33,5.6-6.65c4.15,4.15,8.19,8.19,12.23,12.23c0.1-0.14,0.2-0.27,0.3-0.41c-3.21-4.71-6.42-9.42-9.66-14.18
			c4.95-4.95,9.73-9.73,14.8-14.8c1.52,1.34,3.04,2.69,4.57,4.04c0.15-0.15,0.3-0.29,0.45-0.44c-1.22-1.42-2.44-2.83-3.97-4.61
			c0.88-1.09,1.82-2.26,3.16-3.91c5.7,5.03,11.19,9.88,17.18,15.17c-1.23-8.71-9.53-11.34-13.21-18.59
			c2.52,2.28,4.36,3.95,6.21,5.62c0.19-0.17,0.38-0.34,0.57-0.51c-1.74-1.99-3.48-3.99-5.46-6.25c2.52-2.52,5.18-5.18,7.53-7.53
			c2.58,2.83,5.05,5.54,7.52,8.24c0.27-0.19,0.54-0.37,0.81-0.56c-0.92-1.53-1.7-3.17-2.8-4.55c-1.2-1.5-2.7-2.77-4.31-4.38
			c3.29-3.29,6.37-6.37,9.61-9.61c1.04,0.78,2.13,1.59,4.47,3.33c-1.7-2.33-2.49-3.4-3.39-4.63c2.03-2.03,4.02-4.02,6.72-6.72
			c4.81,4.24,9.64,8.49,14.46,12.73c0.21-0.16,0.42-0.33,0.64-0.49c-4.49-4.49-8.97-8.97-13.63-13.63c1.5-1.5,2.72-2.72,4.26-4.26
			c7.2,7.2,14.45,14.45,22.12,22.12c-0.12-4.71-0.7-7.93-5.81-8.54c-1.45-0.17-2.59-2.97-3.88-4.55c-3.2-3.92-6.41-7.84-9.75-11.93
			c1.41-1.23,2.71-2.36,3.89-3.39c4.13,1.77,8.12,3.47,12.25,5.24c-2.84-2.84-5.67-5.67-8.77-8.77c8.02-8.77,15.83-17.3,23.64-25.84
			c6.17,6.17,11.95,11.95,17.72,17.72c0.22-0.21,0.45-0.41,0.67-0.62c-0.46-0.87-0.92-1.74-1.61-3.05c1.16,0.61,1.95,1.03,4.06,2.14
			c-6.27-7.07-11.61-13.1-17.33-19.57c8.71-8.71,17.24-17.43,26.11-25.81c0.9-0.85,4.16-0.19,5.67,0.78
			c3.47,2.23,6.54,5.08,10.28,7.1c-3.86-3.86-7.73-7.73-11.83-11.83c2.82-2.82,5.37-5.37,8.25-8.25
			c12.48,12.48,24.88,24.88,37.28,37.28c0.34-0.34,0.69-0.67,1.03-1.01c-12.37-12.37-24.73-24.73-37.53-37.53
			c3.78-2.42,4.31-8.17,9.72-5.71c-1.31-3.16,0.75-6.1,9.33-12.52c2.29,2.29,4.63,4.63,6.97,6.97c0.24-0.22,0.47-0.44,0.71-0.67
			c-2.36-2.36-4.71-4.71-7.85-7.85c2.27-1.07,3.78-1.75,5.25-2.52c0.29-0.15,0.52-0.63,0.59-0.99c0.73-4.11,5.34-7.07,7.41-6.08
			c0.94-2.13,1.89-4.29,3.09-6.99c4.15,4.15,7.45,7.45,10.74,10.74c0.34-0.32,0.67-0.65,1.01-0.97c-3.34-3.34-6.69-6.69-10.03-10.03
			c0.4-0.42,0.8-0.83,1.19-1.25c11.96,11.96,23.92,23.92,35.88,35.88c0.32-0.32,0.63-0.63,0.95-0.95
			c-11.9-11.9-23.79-23.79-35.84-35.84c1.21-1.21,2.03-2.03,2.81-2.81c10.17,10.17,20.21,20.21,30.25,30.25
			c0.33-0.33,0.66-0.65,0.99-0.98c-10.07-10.07-20.15-20.15-30.31-30.31c9.99-9.99,19.52-19.52,29.48-29.48
			c2.79,2.79,5.48,5.48,8.66,8.66c-0.66-5.12-8.55-5.93-5.69-12.96c2.08,1.79,3.35,2.89,4.62,3.99c0.14-0.13,0.28-0.27,0.42-0.4
			c-1.01-1.28-2.03-2.57-3.18-4.03c2.15-2.15,4.25-4.25,6.43-6.43c4.26,4.26,8.38,8.38,12.51,12.51c0.26-0.25,0.51-0.51,0.77-0.76
			c-4.03-4.03-8.06-8.06-12.38-12.38c4.11-4.11,7.93-7.93,12.13-12.13c2.62,2.02,5.41,4.17,8.21,6.32c0.17-0.19,0.35-0.38,0.52-0.57
			c-2.56-2.8-5.11-5.6-7.67-8.4c0.4-0.35,0.8-0.7,1.2-1.05c1.8,1.62,3.59,3.24,5.39,4.87c0.27-0.19,0.53-0.39,0.8-0.58
			c-1.36-2.03-2.73-4.06-4.3-6.4c1.64-1.64,3.46-3.46,5.45-5.45c2.11,1.66,4.21,3.31,6.47,5.09c1.73-3.93-7.68-4.89-2.37-9.55
			c2.09,1.67,4.08,3.26,6.07,4.85c0.24-0.23,0.49-0.45,0.73-0.68c-1.42-2.12-2.83-4.23-5.12-7.64c7.65,0.17,10.05,6.62,15.11,8.85
			c-3.6-3.6-7.19-7.19-10.88-10.88c5.94-5.94,11.45-11.45,17.24-17.24c6.29,5.25,12.61,10.52,18.94,15.8
			c0.28-0.29,0.56-0.59,0.84-0.88c-5.82-5.82-11.63-11.63-17.45-17.45c0.39-0.41,0.78-0.83,1.18-1.24
			c6.45,6.45,12.9,12.9,19.35,19.35c0.35-0.35,0.7-0.7,1.04-1.05c-6.4-6.4-12.8-12.8-19.62-19.62c3.02-1.41,3.4-6.7,7.27-3.66
			c0.34-1.33,0.32-3.28,1.28-4.32c0.68-0.74,2.69-0.26,3.94-0.31c-0.28-0.55-0.79-1.55-1.3-2.55c0.26-0.27,0.51-0.53,0.77-0.8
			c1.64,1.3,3.28,2.59,4.91,3.89c0.12-0.11,0.25-0.21,0.37-0.32c-1.24-1.49-2.48-2.97-3.88-4.64c2.31-2.31,4.55-4.55,7.37-7.37
			c4.14,4.14,8.24,8.49,12.62,12.54c4.09,3.79,6.58,9.91,13.91,10.21c-8.43-8.43-16.45-16.45-24.64-24.64
			c3.72-3.72,7.44-7.44,11.69-11.69c1.59,1.59,3.21,3.13,4.74,4.75c7.37,7.83,14.58,15.81,22.15,23.44
			c2.34,2.36,5.64,3.77,8.49,5.62c0.3-0.36,0.59-0.73,0.89-1.09c-8.79-8.34-17.63-16.63-26.33-25.06c-2.74-2.65-5.23-5.59-7.54-8.62
			c-0.4-0.52,0.68-2.17,1.37-4.17c2.18,2.56,3.68,4.34,5.19,6.11c0.37-0.32,0.73-0.64,1.1-0.96c-1.47-1.77-2.94-3.54-4.98-5.99
			c2.23-1.18,4.2-2.22,5.86-3.1c0.7-1.65,1.44-3.39,2.66-6.27c5.72,5.72,10.64,10.64,15.56,15.56c0.32-0.29,0.64-0.57,0.96-0.86
			c-4.93-4.93-9.86-9.86-14.79-14.79c0.44-0.46,0.88-0.92,1.32-1.38c12.32,11.7,24.65,23.39,36.97,35.09
			c0.2-0.22,0.41-0.44,0.61-0.67c-11.74-11.74-23.48-23.48-35.82-35.82c2.03-1.87,4.62-4.27,6.74-7.09
			c2.74-3.65,6.39-6.61,10.28-10.5c16.82,17.67,33.42,35.12,50.02,52.56c0.57-0.53,1.14-1.07,1.71-1.6
			c-16.61-17.49-33.23-34.97-50.12-52.76c6.31-4.45,6,5.83,10.73,4.05c-2.14-2.14-4.49-4.49-7.06-7.06
			c1.66-1.66,2.97-2.97,4.55-4.55c10.47,6.93,14.75,20.43,27.41,25.03c-8.61-8.61-17.22-17.22-25.7-25.7
			c2.19-3.51,2.19-3.51,9.84,2.48c-1.4-2.5-4.93-5.95-4.43-8.66c0.56-3.01,4.78-5.34,7.81-8.37c7.83,7.83,15.56,15.56,23.29,23.29
			c0.34-0.34,0.68-0.68,1.02-1.02c-7.68-7.68-15.35-15.35-23.11-23.11c4.88-5.38,9.2-11.05,14.44-15.66
			c4.66-4.09,7.02-10.29,13.48-13.21c1.92,1.75,4.2,3.83,6.49,5.91c0.17-0.17,0.33-0.34,0.5-0.51c-2.07-2.07-4.15-4.15-6.48-6.48
			c6.55-6.55,12.81-12.81,19.42-19.42c0.93,0.57,2.13,1.32,4.67,2.89c-1.3-2.67-1.92-3.93-2.34-4.8
			c12.67-12.67,25.25-25.25,38.48-38.48c8.13,11.23,16.32,22.53,24.5,33.83c-0.2,0.19-0.39,0.39-0.59,0.58
			c-0.84-0.43-1.68-0.86-3.66-1.87c6.05,8.01,11.39,15.07,16.72,22.13c-0.39,0.32-0.77,0.65-1.16,0.97
			c-1.14-0.94-2.27-1.87-3.41-2.81c13.62,14.4,17.91,33.39,25.5,50.71c0.97,2.2,1.76,4.49,2.8,7.19
			c-5.01,2.51-6.53,10.24-13.76,10.16c-0.14,0.6-0.01,2.42-0.86,3.3c-10.33,10.79-20.76,21.49-31.27,32.1
			c-12.25,12.38-24.62,24.65-37.38,37.41c-9.4-9.4-18.62-18.62-27.85-27.85c-0.24,0.24-0.49,0.49-0.73,0.73
			c9.12,9.12,18.24,18.24,27.79,27.79c-6.55,5.26-10.3,13.27-18.21,16.07c-0.38-0.44-0.75-0.88-1.13-1.32
			c0.43,1.13,0.86,2.25,1.29,3.38c-0.25,0.19-0.51,0.38-0.76,0.56c-1.78-1.52-3.56-3.05-5.34-4.57c-0.18,0.15-0.36,0.3-0.53,0.46
			c1.5,1.64,2.99,3.27,4.69,5.13c-2.18,2.18-4.25,4.25-6.63,6.63c-8.53-8.53-16.94-16.94-25.34-25.34
			c-0.23,0.23-0.46,0.46-0.69,0.69c8.33,8.33,16.65,16.65,25.26,25.26C1103.59,441.93,1088.68,456.84,1073.06,472.46z
			 M1037.67,475.77c2.7-4.86-0.98-7.07-3.58-9.68c-6.66-6.69-13.22-13.5-20.07-20c-6.18-5.87-12.68-11.4-19.04-17.08
			c-0.2,0.19-0.39,0.39-0.59,0.58c5.2,5.2,10.4,10.4,16.62,16.62c-3.26-1.89-5.14-2.99-6.91-4.01
			C1015.34,453.44,1026.5,464.6,1037.67,475.77z M886.34,545.8c11.2,14.28,23.1,27.82,36.97,39.44c0.41-0.41,0.82-0.82,1.24-1.23
			C911.81,571.26,899.07,558.53,886.34,545.8z M1138.55,293.01c0.29-0.42,0.59-0.84,0.88-1.26c-8.14-8.14-16.28-16.28-24.41-24.41
			c-0.3,0.3-0.61,0.6-0.91,0.9c3.12,3.12,6.25,6.25,9.37,9.37c-0.16,0.19-0.32,0.38-0.47,0.57c-1.17-0.78-2.34-1.57-3.51-2.35
			c-0.24,0.34-0.48,0.68-0.71,1.02C1125.37,282.23,1131.96,287.62,1138.55,293.01z M891.34,579.64c-0.48,0.47-0.96,0.94-1.44,1.42
			c8.24,8.24,16.47,16.47,24.71,24.71c0.47-0.48,0.95-0.96,1.42-1.43C907.8,596.1,899.57,587.87,891.34,579.64z M1149.19,296.05
			c1,5.41,20.17,23.18,25.97,22.61C1166.64,311.24,1158.11,303.82,1149.19,296.05z M881.83,605.15
			c-10.51-10.51-20.29-20.29-30.06-30.06C863.04,590.61,876.28,603.76,881.83,605.15z M1153.39,326.05
			c0.28-0.23,0.56-0.46,0.84-0.68c-8.29-8.29-16.59-16.59-24.88-24.88c-0.26,0.25-0.52,0.5-0.77,0.75
			C1136.85,309.51,1145.12,317.78,1153.39,326.05z M905.61,535.57c0.41-0.39,0.82-0.77,1.23-1.16c-7.6-7.6-15.2-15.2-19.91-19.91
			C892.29,518.6,895.45,530.39,905.61,535.57z M1044.46,426.99c-0.43,0.44-0.87,0.88-1.3,1.32c8.29,7.88,15.4,16.96,25.56,22.94
			C1060.64,443.17,1052.55,435.08,1044.46,426.99z M817.3,635.27c-0.55,0.67-1.09,1.35-1.64,2.02c9.09,8.42,18.18,16.83,27.26,25.25
			c0.26-0.29,0.51-0.58,0.77-0.87C834.89,652.87,826.09,644.07,817.3,635.27z M954,427.93c-0.4,0.34-0.8,0.68-1.2,1.02
			c8.99,8.99,17.97,17.97,26.96,26.96c0.37-0.37,0.74-0.74,1.11-1.11C971.92,445.84,962.96,436.89,954,427.93z M1018.6,484.19
			c0.37-0.38,0.75-0.76,1.12-1.14c-7.6-7.6-15.2-15.2-22.79-22.79c-0.38,0.38-0.75,0.76-1.13,1.14
			C1003.4,468.99,1011,476.59,1018.6,484.19z M1184.41,315.26c-0.45,0.39-0.91,0.79-1.36,1.18c6.11,6.91,12.23,13.81,18.34,20.72
			c0.42-0.37,0.84-0.73,1.26-1.1C1196.57,329.13,1190.49,322.19,1184.41,315.26z M841,590.17c0.21-0.21,0.41-0.43,0.62-0.64
			c-6.39-7.01-12.78-14.01-19.17-21.02c-0.52,0.51-1.05,1.03-1.57,1.54C827.59,576.76,834.3,583.46,841,590.17z M912.29,539.41
			c4.15,11.71,14.58,17.26,21.9,25.5C927.01,556.54,919.82,548.17,912.29,539.41z M794.8,606.04c-0.27,0.33-0.55,0.67-0.82,1
			c7.54,7.54,15.08,15.08,22.62,22.62c0.31-0.3,0.62-0.6,0.92-0.9C809.95,621.19,802.37,613.61,794.8,606.04z M908.19,605.91
			c0.49-0.54,0.99-1.09,1.48-1.63c-5.24-4.79-10.47-9.57-15.71-14.36c-0.28,0.3-0.57,0.6-0.85,0.9
			C898.13,595.86,903.16,600.88,908.19,605.91z M1145.37,359.37c-0.14,0.1-0.28,0.21-0.42,0.31c5.11,5.11,10.21,10.21,15.32,15.32
			c0.12-0.12,0.24-0.25,0.36-0.37C1155.54,369.55,1150.45,364.46,1145.37,359.37z M953.03,543.56c-0.14,0.17-0.27,0.34-0.41,0.51
			c5.8,5.8,11.6,11.6,17.4,17.4c0.41-0.44,0.83-0.87,1.24-1.31C965.18,554.63,959.1,549.1,953.03,543.56z M807.03,626.12
			c-0.44-3.04-8.68-12.01-14.73-14.73C797.28,616.37,802.26,621.35,807.03,626.12z M1129.12,399.6c0.35-0.36,0.7-0.71,1.05-1.07
			c-4.17-7.34-12.34-10.58-18.25-16.13C1117.65,388.13,1123.38,393.86,1129.12,399.6z M853.99,676.85
			c-5.41-5.91-9.96-12.77-16.86-17.05c-0.36,0.4-0.72,0.79-1.07,1.19C842.04,666.28,848.02,671.57,853.99,676.85z M1084.33,366.47
			c0.24-0.27,0.47-0.54,0.71-0.8c-6.73-6.73-13.47-13.47-20.2-20.2c-0.25,0.25-0.5,0.5-0.76,0.75
			C1070.83,352.97,1077.58,359.72,1084.33,366.47z M810.05,684.67c0.13-0.15,0.26-0.3,0.39-0.45c-7.12-7.12-14.23-14.23-21.35-21.35
			c-0.13,0.15-0.25,0.31-0.38,0.46C795.83,670.45,802.94,677.56,810.05,684.67z M798.45,661.18c-0.26,0.24-0.52,0.49-0.78,0.73
			c4.3,4.3,8.59,8.59,12.89,12.89c0.25-0.26,0.49-0.51,0.74-0.77C807.02,669.75,802.73,665.47,798.45,661.18z M773.29,700.24
			c0.23-0.28,0.45-0.55,0.68-0.83c-6.18-6.18-12.36-12.36-18.55-18.55c-0.25,0.25-0.5,0.51-0.75,0.76
			C760.88,687.83,767.08,694.03,773.29,700.24z M1190.75,261.25c0.16-0.07,0.32-0.15,0.48-0.22c-4.14-4.71-8.28-9.42-12.42-14.14
			c-0.4,0.35-0.8,0.69-1.2,1.04c1.24,2.01,2.15,4.39,3.81,5.96C1184.28,256.6,1187.61,258.82,1190.75,261.25z M769.46,688.37
			c-0.4,0.46-0.8,0.92-1.21,1.38c4.85,4.36,9.7,8.72,14.54,13.08c0.17-0.2,0.34-0.41,0.51-0.61
			C778.69,697.61,774.07,692.99,769.46,688.37z M1147.05,344.37c0.17-0.21,0.33-0.42,0.5-0.63c-4.96-4.96-9.93-9.93-14.89-14.89
			c-0.17,0.2-0.34,0.41-0.52,0.61C1137.11,334.43,1142.08,339.4,1147.05,344.37z M1108.28,293.22c-0.3,0.27-0.6,0.54-0.9,0.8
			c4.24,4.24,8.49,8.49,12.73,12.73c0.29-0.28,0.58-0.55,0.88-0.83C1116.75,301.69,1112.52,297.45,1108.28,293.22z M1153.67,269.26
			c0.2-0.19,0.41-0.38,0.61-0.57c-3.35-3.35-6.7-6.7-10.04-10.04c-0.2,0.19-0.4,0.38-0.6,0.58
			C1146.98,262.57,1150.33,265.92,1153.67,269.26z M887.72,522.78c-2.42-5.84-9.75-12.93-13.09-13.09
			C878.84,513.9,883.19,518.24,887.72,522.78z M766.52,687.4c0.23-0.23,0.46-0.47,0.69-0.7c-3.78-3.78-7.57-7.57-11.35-11.35
			c-0.23,0.23-0.46,0.47-0.69,0.7C758.95,679.83,762.74,683.61,766.52,687.4z M1033.91,484.64c0.25-0.25,0.5-0.51,0.75-0.76
			c-3.18-3.18-6.35-6.35-9.53-9.53c-0.25,0.25-0.5,0.51-0.75,0.76C1027.56,478.29,1030.73,481.47,1033.91,484.64z"/>
	</g>
	<g>
		<path class="st1" d="M928.03,703.32c4.28-3.27,5.92-10.03,12.61-10.1c0.12-0.79-0.21-2.84,0.66-3.72
			c13.46-13.69,27.07-27.23,40.79-40.95c1.31,0.99,2.39,1.81,4.64,3.52c-1.61-2.26-2.37-3.32-3.25-4.56
			c4.33-4.33,8.68-8.68,13.32-13.32c1.75,1.75,3.33,3.33,4.92,4.92c0.23-0.21,0.47-0.42,0.7-0.63c-1.5-1.66-2.99-3.32-4.67-5.19
			c5.47-5.47,10.81-10.81,16.39-16.39c2.27,2.27,4.38,4.38,6.48,6.48c0.24-0.19,0.49-0.38,0.73-0.56c-1.68-2.55-3.36-5.11-4.98-7.57
			c16.5-16.5,33.08-33.08,50.02-50.02c1.45,1.22,3.28,2.75,5.11,4.29c0.32-0.23,0.64-0.46,0.96-0.69c-1.38-1.88-2.76-3.77-4.5-6.15
			c3.69-3.69,7.48-7.48,11.28-11.28c4.28-4.28,8.56-8.56,12.83-12.83c4.15-4.15,8.29-8.32,12.46-12.45
			c4.23-4.2,8.52-8.35,12.74-12.56c4.08-4.08,8.1-8.24,12.16-12.34c4.14-4.17,8.3-8.31,12.45-12.46c3.99-3.99,7.49-8.7,12.1-11.75
			c4.41-2.93,6.48-7.57,10.31-10.82c4.6-3.9,8.63-8.47,12.91-12.74c4.15-4.15,8.3-8.3,12.46-12.46s8.3-8.3,12.46-12.46
			c4.28-4.28,8.42-8.71,12.88-12.79c3.9-3.57,8.46-6.44,12.18-10.18c3.91-3.93,7-8.66,10.76-12.76c4.08-4.46,8.51-8.6,12.79-12.87
			c4.15-4.15,8.19-8.43,12.49-12.42c4.14-3.84,8.85-7.1,12.77-11.14c3.89-4.01,7.09-8.69,11.31-12.76c4.56,31.47,1.98,62.38-3,93.63
			c-1.2-0.42-2.22-0.77-3.27-1.13c-0.05,0.44-0.27,0.96-0.11,1.12c3.53,3.71,1.93,7.73,0.84,11.77
			c-3.69,13.73-7.34,27.47-11.16,41.78c-3.34-3.34-5.76-5.76-8.18-8.18c-0.23,0.21-0.47,0.42-0.7,0.63
			c2.69,2.69,5.38,5.38,7.86,7.86c-14.13,38.76-34.38,73-61.75,103.41c-1.44-1.44-2.79-2.79-4.13-4.13c-0.2,0.17-0.4,0.34-0.59,0.52
			c1.22,1.46,2.44,2.92,3.83,4.58c-4.88,4.88-9.74,9.74-14.73,14.73c-1.38-1.11-2.68-2.17-3.99-3.22c-0.13,0.13-0.25,0.27-0.38,0.4
			c1,1.2,1.99,2.41,3.03,3.66c-7.06,7.06-14.11,14.11-21.61,21.61c-6.13-6.13-11.83-11.83-17.54-17.54c-0.25,0.25-0.5,0.5-0.76,0.75
			c5.55,5.55,11.1,11.1,17.06,17.06C1096.92,688.05,1016.84,710.28,928.03,703.32z M1222.94,411.72
			c0.38,6.14,10.78,16.97,16.38,18.53C1234.21,424.47,1228.98,418.55,1222.94,411.72z M1026.55,638.1
			c-0.47,0.44-0.94,0.88-1.41,1.32c5.91,5.91,11.83,11.83,17.74,17.74c0.2-0.17,0.4-0.35,0.6-0.52
			C1037.84,650.46,1032.19,644.28,1026.55,638.1z M1166.46,477.11c-0.16,0.13-0.32,0.26-0.48,0.4c4.73,4.73,9.46,9.46,14.19,14.19
			c0.16-0.13,0.32-0.26,0.48-0.4C1175.92,486.58,1171.19,481.85,1166.46,477.11z M1060.24,609.22c0.24-0.1,0.48-0.2,0.72-0.3
			c-4.69-4.7-9.39-9.39-14.09-14.09c-0.18,0.16-0.37,0.31-0.55,0.47C1050.96,599.94,1055.6,604.58,1060.24,609.22z M1177.87,575
			c-0.2,0.21-0.41,0.42-0.61,0.64c5.73,5.73,11.46,11.46,17.18,17.18c0.2-0.21,0.41-0.42,0.61-0.63
			C1189.33,586.46,1183.6,580.73,1177.87,575z"/>
	</g>
	<g>
		<path class="st2" d="M838.31,285.4c8.16,8.16,16.25,16.38,24.54,24.4c1.27,1.23,3.46,1.46,5.17,2.27c1.22,0.58,2.6,1.13,3.47,2.09
			c2.06,2.29,3.86,4.81,5.77,7.24c0.52-0.39,1.03-0.78,1.55-1.17c-1.84-2.5-3.68-5.01-5.52-7.51c0.4-0.38,0.79-0.77,1.19-1.15
			c5.65,5.65,11.3,11.3,16.95,16.95c0.42-0.42,0.85-0.84,1.27-1.26c-9.05-9.05-18.1-18.1-27.98-27.98c1.09,3.04,1.75,4.88,2.41,6.73
			c-0.35,0.19-0.7,0.38-1.04,0.57c-6.17-6.17-12.35-12.32-18.49-18.53c-0.71-0.71-0.97-1.9-1.73-2.53c-5.5-4.58-5.53-4.77,0.45-8.93
			c11.46,9.62,23.04,19.34,35.15,29.51c-4.44-4.44-8.42-8.42-12.39-12.39c0.28-0.28,0.57-0.57,0.85-0.85
			c7.2,7.2,13.34,16.28,21.89,21.07c8.79,4.92,12.02,15.24,21.88,18.98c-1.49-2.24-2.66-4-3.83-5.77c0.41-0.33,0.81-0.66,1.22-1
			c9.62,9.62,19.24,19.24,28.99,28.99c-4.28,4.28-8.02,8.02-11.8,11.8c-2.49-1.52-4.9-3-7.31-4.47c-0.26,0.29-0.53,0.58-0.79,0.87
			c1.13,1.4,2.4,2.72,3.34,4.23c0.59,0.95,0.69,2.21,1.02,3.34c-1.25-0.35-2.86-0.32-3.69-1.1c-3.07-2.89-5.85-6.08-8.83-9.07
			c-0.56-0.56-1.55-0.67-3.09-0.18c2.72,2.72,5.42,5.45,8.16,8.15c2.06,2.03,4.34,3.98,2.01,8.5c-6.71-6.71-12.85-12.85-18.99-18.99
			c-0.33,0.35-0.66,0.69-0.99,1.04c6.02,6.02,12.04,12.04,17.98,17.98c-1.35,3.44-2.8,4.07-5.07,1.52
			c-1.39-1.56-2.94-2.97-5.02-3.86c2.1,2.32,4.2,4.63,6.3,6.95c-0.38,0.41-0.76,0.82-1.14,1.23c-14.07-13.19-28.13-26.37-42.2-39.56
			c-0.32,0.31-0.63,0.62-0.95,0.93c5.62,5.62,11.24,11.24,16.86,16.86c-0.26,0.27-0.52,0.53-0.78,0.8c-1.83-1.66-3.67-3.32-5.5-4.98
			c-0.19,0.22-0.38,0.44-0.58,0.65c10.49,8.72,20.98,17.43,31.78,26.41c-3.26,3.26-5.84,5.84-8.56,8.56
			c-1.06-0.84-2.14-1.7-3.51-2.78c0.65,1.65,1.17,2.96,1.69,4.28c-0.3,0.25-0.61,0.5-0.91,0.74c-10.12-9.41-20.24-18.81-30.36-28.22
			c-0.31,0.32-0.61,0.63-0.92,0.95c0.82,0.96,1.6,1.96,2.45,2.88c6.12,6.63,12.24,13.26,18.4,19.85c2.08,2.22,4.51,4.16,6.35,6.55
			c0.61,0.79-0.13,2.61-0.36,5.13c-3.59-3.59-6.06-6.06-8.52-8.52c-0.35,0.32-0.71,0.65-1.06,0.97c2.47,2.47,4.94,4.94,7.42,7.42
			c-0.1,0.41-0.2,0.81-0.3,1.22c-1.33-0.13-2.66-0.27-3.08-0.31c-0.79,1.99-1.71,4.33-3.05,7.7c-4.29-4.29-7.6-7.6-10.9-10.9
			c-0.33,0.31-0.66,0.62-1,0.93c3.01,3.51,6.01,7.03,9.12,10.66c-2.08,2.08-4.1,4.1-6.89,6.89c-5.77-5.77-11.58-11.58-17.38-17.38
			c-0.36,0.43-0.71,0.86-1.07,1.3c1.96,1.66,3.91,3.31,5.87,4.97c-0.25,0.27-0.5,0.55-0.75,0.82c-5.48-5.48-10.97-10.97-16.37-16.37
			c0.7,0.36,1.67,0.85,2.63,1.34c0.14-0.16,0.28-0.31,0.41-0.47c-8.83-8.83-17.65-17.65-26.48-26.48c-7.48,1.44-9.74-5.42-13.35-9.2
			c-7.34-7.67-13.62-16.35-20.34-24.62c0.51-0.49,1.02-0.99,1.53-1.48c20.84,20.84,41.68,41.68,62.52,62.52
			c0.46-0.45,0.93-0.91,1.39-1.36c-3.09-3.65-6.27-7.24-9.26-10.98c-3.22-4.04-6.04-8.42-9.43-12.3c-5.8-6.64-11.93-13-17.87-19.51
			c-1.5-1.64-2.83-3.44-3.49-5.92c0.9,0.62,1.8,1.24,2.7,1.86c0.34-0.48,0.69-0.95,1.03-1.43c-4.5-3.13-9.12-6.12-13.46-9.45
			c-2.44-1.88-4.44-4.33-6.94-6.84c3.36,1.68,6.24,3.12,9.12,4.57c0.35-0.44,0.69-0.88,1.04-1.32c-1.83-2-3.93-3.81-5.37-6.06
			c-0.85-1.32-0.64-3.31-0.9-5c1.41,0.71,3.01,1.2,4.19,2.18c3.63,3.02,7.31,6.03,10.58,9.42c6.26,6.47,12.34,13.12,18.32,19.85
			c1.35,1.52,1.99,3.66,2.96,5.52c2.38-3.24,2.45,1.06,3.81,1.2c0.23,0.02,0.42,0.53,0.59,0.83c1.3,2.18,2.12,5.65,3.96,6.33
			c8.84,3.22,13.45,10.7,19.9,17.29c-0.13-1.52-0.25-3.04-0.37-4.48c0.4,0.13,1.02,0.33,1.64,0.53c0.2-0.2,0.4-0.4,0.6-0.6
			c-19.17-19.17-38.34-38.34-57.51-57.51c7.73,2.8,11.79,9.97,17.66,15c5.92,5.08,11.7,10.31,17.79,15.28
			c-5.85-6.44-11.7-12.88-17.55-19.32c0.3-0.28,0.59-0.56,0.89-0.83c6.62,6.62,13.24,13.24,19.86,19.86
			c0.23-0.22,0.47-0.43,0.7-0.65c-4.79-4.79-9.58-9.58-14.36-14.36c0.34-0.38,0.68-0.75,1.02-1.13c4.09,4.09,8.17,8.17,12.26,12.26
			c0.45-0.43,0.9-0.86,1.35-1.29c-2.26-2.26-4.52-4.52-6.77-6.77c0.22-0.3,0.45-0.61,0.67-0.91c3.42,2.32,6.84,4.63,10.25,6.95
			c0.12-0.14,0.24-0.28,0.37-0.41c-3.67-3.67-7.34-7.34-11.01-11.01c0.37-0.42,0.74-0.84,1.11-1.26c2.36,1.97,4.72,3.93,7.08,5.9
			c0.31-0.34,0.63-0.68,0.94-1.02c-10.25-10.25-20.5-20.49-30.71-30.78c-0.21-0.21,0.11-0.93,0.24-1.8
			c9.41,9.41,18.57,18.57,28.09,28.09c-0.03-1.97-0.04-3.32-0.08-5.95c-2.82-3.74-6.31-9.24-10.69-13.91
			c-3.54-3.78-8.25-6.44-12.21-9.87c-1.8-1.55-6.32-3.03-1.27-6.65c15.72,17.55,32.68,33.67,50.6,48.77
			c0.38-0.36,0.76-0.73,1.15-1.09c-5.5-5.5-10.99-10.99-16.49-16.49c0.27-0.3,0.54-0.59,0.82-0.89c6.33,5.17,12.67,10.35,19,15.52
			c0.25-0.26,0.51-0.51,0.76-0.77c-2.87-3.35-5.75-6.7-8.62-10.05c0.18-0.16,0.36-0.31,0.54-0.47c0.84,0.44,1.68,0.88,1.22,0.64
			c-5.65-5.65-12.22-12.22-18.79-18.79c0.26-0.28,0.52-0.55,0.77-0.83c5.34,4.66,10.67,9.31,16.01,13.97
			c0.26-0.27,0.52-0.54,0.79-0.81c-12.48-12.48-24.96-24.96-37.45-37.45C837.55,286.18,837.93,285.79,838.31,285.4z M839.38,367.77
			c0.2-2.24,1.26-4.89,0.38-6.41c-1.43-2.47-3.96-4.45-6.34-6.19c-4.18-3.06-8.6-5.8-12.92-8.67c-0.07,0.13-0.15,0.26-0.22,0.39
			C826.78,354,833.3,361.12,839.38,367.77z M915.69,345.06c-0.26,0.38-0.53,0.76-0.79,1.14c3.84,2.67,7.68,5.35,11.52,8.02
			c0.3-0.39,0.61-0.78,0.91-1.17c-5.23-5.23-10.45-10.45-15.68-15.68c-0.29,0.29-0.57,0.57-0.86,0.86c3.08,3.08,6.16,6.16,9.25,9.25
			c-0.14,0.17-0.27,0.33-0.41,0.5C918.32,347,917.01,346.03,915.69,345.06z M875.23,389.52c4.34,9.63,6.66,11.65,10.47,10.47
			C882.64,396.92,879.43,393.71,875.23,389.52z M814.65,331.62c-0.41,0.44-0.82,0.88-1.23,1.32c4.96,4.46,9.91,8.93,14.87,13.39
			c0.17-0.19,0.33-0.38,0.5-0.57C824.08,341.05,819.36,336.34,814.65,331.62z"/>
		<path class="st2" d="M966.46,245.95c0.89-0.1,1.99-0.6,2.63-0.25c9.4,5.19,17.38,12.16,24.67,19.99c1.16,1.25,2.41,2.42,4.51,2.73
			c-7.06-7.06-14.12-14.12-21.18-21.18c0.19-0.26,0.38-0.52,0.57-0.78c1.93,1.27,3.87,2.55,6.04,3.98
			c-0.17-0.61-0.33-1.17-0.77-2.76c3.03,3.66,5.51,6.66,8,9.66c0.61-0.53,1.21-1.05,1.82-1.58c-11.58-12.5-23.16-25-34.74-37.5
			c-0.58,4.95,2.99,6.74,5.8,9.27c2.9,2.62,5.29,5.8,7.9,8.73c-0.44,0.38-0.89,0.77-1.33,1.15c-7.97-8.78-15.95-17.55-23.92-26.33
			c-0.24-0.26-0.4-0.66-0.69-0.79c-3.93-1.66-6.08-4.77-7.17-8.75l0.01,0.21c0.56-0.21,1.12-0.42,2.45-0.92
			c-3.18-3.18-6.36-6.36-9.77-9.77c1.65-1.65,3.21-3.21,5.11-5.11c2.39,2.39,4.84,4.84,7.3,7.3c0.23-0.15,0.46-0.31,0.69-0.46
			c-0.24-0.67-0.48-1.33-0.8-2.25c1.35,0.26,2.56,0.5,4.95,0.97c-3.55-3.55-6.26-6.26-8.97-8.97c0.26-0.45,0.52-0.91,0.79-1.36
			c1.22,0.52,2.78,0.71,3.59,1.6c6.71,7.28,13.28,14.69,19.89,22.06c0.43,0.48,1.2,1.43,1.26,1.39c3.46-2.43,4.75,1.94,7.24,2.42
			c0.31-0.47,0.61-0.94,0.92-1.41c-2.74-1.9-5.48-3.8-8.22-5.7c-0.11,0.26-0.22,0.52-0.32,0.78c-2.16-2.8-4.11-5.79-6.53-8.34
			c-4.87-5.16-9.99-10.08-15.01-15.1c0.44-0.42,0.89-0.84,1.33-1.26c16.56,16.56,33.11,33.11,49.67,49.67
			c0.26-0.25,0.53-0.51,0.79-0.76c-4.15-4.96-8.31-9.92-12.46-14.88c0.21-0.29,0.42-0.58,0.64-0.87
			c5.58,5.58,11.16,11.16,16.74,16.74c0.54-0.54,1.09-1.07,1.63-1.61c-6.67-6.67-13.34-13.34-20.01-20.01
			c0.27-0.44,0.54-0.87,0.8-1.31c0.99,0.19,1.98,0.38,2.8,0.54c-9.01-10.69-18.01-21.36-27.02-32.04c0.11-0.15,0.22-0.3,0.33-0.46
			c22.65,20.99,45.31,41.99,67.96,62.98c0.31-0.21,0.61-0.42,0.92-0.63c-4.26-5.49-8.17-11.32-12.89-16.38
			c-5.4-5.79-11.54-10.88-17.32-16.31c-0.44-0.42-0.63-1.11-0.93-1.67c0.34-0.37,0.68-0.73,1.02-1.1
			c12.88,11.47,25.75,22.94,38.63,34.41c0.2-0.2,0.39-0.4,0.59-0.59c-3.2-3.68-6.47-7.3-9.56-11.07c-1.7-2.07-2.81-4.68-4.67-6.57
			c-10.67-10.86-21.49-21.58-32.25-32.34c-8.48-8.48-16.95-16.95-25.43-25.43c0.34-0.36,0.68-0.72,1.02-1.08
			c0.46,0.16,1.03,0.2,1.36,0.51c7.4,6.84,14.55,13.97,22.21,20.51c10.37,8.87,21.24,17.15,31.65,25.97
			c3.29,2.79,5.18,8.02,8.79,9.48c9.67,3.93,15.19,12.84,23.72,17.96c2.06,1.24,3.55,3.43,5.98,5.86
			c-5.42,2.21-6.28,10.5-14.11,6.75c0.86,1.46,1.61,2.73,2.37,4c-0.31,0.29-0.63,0.57-0.94,0.86c-2.76-2.76-5.53-5.53-8.29-8.29
			c-0.12,0.16-0.24,0.33-0.35,0.49c1.9,3.36,3.79,6.71,5.85,10.37c-1.68,1.68-3.5,3.5-5.44,5.44
			c-10.85-7.96-17.54-20.78-30.57-26.34c-1.14,5.36-1.13,5.34,4.05,6.24c0.67,0.12,1.44,0.35,1.9,0.81
			c7.31,7.24,14.57,14.52,22.19,22.14c-4.75,4.75-9.23,9.55-14.13,13.86c-0.96,0.85-3.88,0.42-5.3-0.42
			c-2.04-1.2-3.53-3.32-5.87-4.46c2.52,2.52,5.04,5.04,7.86,7.86c-4.09,4.09-7.91,7.91-12.17,12.17c-2.58-2.58-5.27-5.27-7.96-7.96
			c-0.25,0.25-0.49,0.49-0.74,0.74c2.59,2.59,5.18,5.18,7.69,7.69c-3.17,4.77-3.17,4.77-13.58-3.13c2.86,2.86,5.72,5.72,9,9
			c-3.68,3.13-6.94,5.91-10.2,8.69c-0.03-0.21-0.07-0.43-0.1-0.64c-1.36,2.29-2.72,4.58-4.53,7.61c-4.51-4.51-8.41-8.34-12.17-12.29
			c-0.33-0.35,0.27-1.54,0.37-2.35c0.44-3.56-1.71-5.52-4.44-7.08c-1.83-1.05-4.08-1.67-5.48-3.12
			c-8.26-8.51-16.29-17.23-24.47-25.81c-1.41-1.48-3.14-2.64-4.45-4.27c10.68,4.68,15.79,15.63,25.37,21.83
			c-7.11-7.94-14.22-15.89-21.33-23.83c0.42-0.42,0.85-0.85,1.27-1.27c4.41,4.41,8.82,8.82,13.23,13.23
			c-9.83-19.47-26.7-32.47-40.86-47.89c14.76,10.29,29.44,20.62,38.99,36.61c-2.02-1.54-4.03-3.09-6.05-4.63
			c-0.21,0.24-0.41,0.48-0.62,0.72c6.66,6.66,13.31,13.31,19.97,19.97c-0.18,0.29-0.37,0.57-0.55,0.86
			c-1.56-0.73-3.13-1.45-4.69-2.18c-0.26,0.27-0.52,0.54-0.78,0.81c3.47,3.47,6.93,6.93,10.4,10.4c0.33-0.27,0.66-0.55,1-0.82
			c-1.58-2.18-3.16-4.36-4.74-6.55c0.41-0.31,0.82-0.61,1.22-0.92c3.29,3.82,6.58,7.65,9.87,11.47c0.55-0.5,1.11-1,1.66-1.51
			c-8.02-8.02-16.03-16.03-24.05-24.05c0.61-0.59,1.22-1.18,1.84-1.77c12.55,12.55,25.1,25.1,37.65,37.65
			c0.36-0.37,0.72-0.75,1.08-1.12c-6.16-6.16-12.08-12.61-18.58-18.39c-4.26-3.79-6.69-9.61-12.64-11.62
			c-0.27-0.09,0.19-2.35,0.32-3.59c0.52-0.13,1.05-0.26,1.57-0.39c-4.48-4.48-8.96-8.96-13.44-13.44c0.35-0.34,0.69-0.69,1.04-1.03
			c14.3,14.3,28.6,28.6,42.9,42.9c0.36-0.36,0.72-0.73,1.09-1.09c-26.3-27.41-52.6-54.82-79.02-82.36c3.97-3.93,5.79-0.29,7.33,1.73
			c2.27,2.99,3.37,6.97,5.9,9.65c8.72,9.21,17.85,18.04,26.83,27.01c0.33-0.32,0.65-0.63,0.98-0.95
			c-5.55-5.55-11.11-11.11-16.66-16.66c0.59-0.59,1.17-1.18,1.76-1.77c4.68,4.58,9.45,9.08,14.01,13.79c2.9,3,5.48,6.31,8.21,9.48
			c0.73,1.92,1.03,4.22,2.29,5.69c3.19,3.72,6.88,7.01,10.25,10.6c2.12,2.26,4,4.73,5.99,7.11
			C981.21,259.63,975.42,251.45,966.46,245.95z M966.98,219c-8.17-8.17-16.35-16.35-24.52-24.52c-0.33,0.33-0.66,0.66-0.99,0.99
			c3.22,3.22,6.43,6.43,9.65,9.65c-0.27,0.28-0.55,0.55-0.82,0.83c-3.59-3.59-7.19-7.19-10.78-10.78c-0.3,0.36-0.6,0.72-0.89,1.08
			C945.83,206.55,957.81,211.13,966.98,219z M995.93,229.39c-0.33,0.32-0.65,0.64-0.98,0.96c5.9,5.9,11.8,11.8,17.7,17.7
			C1007.98,240.95,1002.65,234.48,995.93,229.39z M979.03,237.19c0.32-0.31,0.64-0.62,0.96-0.93c-4.29-4.29-8.57-8.57-12.86-12.86
			c-0.32,0.31-0.64,0.62-0.96,0.92C970.46,228.62,974.75,232.9,979.03,237.19z M997.57,236.04c-0.24,0.31-0.47,0.62-0.71,0.93
			c5.95,5.95,11.89,11.89,17.84,17.84c0.27-0.28,0.53-0.56,0.8-0.84C1009.53,247.99,1003.55,242.02,997.57,236.04z"/>
		<path class="st2" d="M1066.51,158.84c-1.58-1.58-3.17-3.17-4.75-4.75c-0.16,0.16-0.33,0.32-0.49,0.48
			c3.69,3.69,7.38,7.38,11.07,11.07c0.32-0.22,0.64-0.44,0.96-0.67c-4.14-5.92-8.27-11.85-11.69-16.74
			c2.29,1.91,5.65,4.71,9.02,7.52c0.27-0.26,0.53-0.51,0.8-0.77c-1.71-1.95-3.41-3.9-5.12-5.84c0.47-0.31,0.93-0.62,1.4-0.93
			c2.29,3.73,4.15,7.83,6.99,11.08c2.15,2.46,5.53,3.84,9.05,6.15c-4.84-6.25-9.06-11.68-13.27-17.11c0.57-0.45,1.15-0.91,1.72-1.36
			c4.13,5.07,7.99,10.41,12.52,15.09c1.75,1.81,5,2.17,7.61,3.07c0.15,0.05,0.87-0.99,1-1.59c0.08-0.38-0.4-0.93-0.7-1.34
			c-6.29-8.64-14.25-15.51-22.16-22.44c-0.36,0.36-0.72,0.73-1.08,1.09c1.22,1.23,2.45,2.45,3.68,3.68
			c-0.35,0.45-0.71,0.9-1.06,1.35c-5.78-5.09-11.56-10.18-17.98-15.83c0.38,1.92,0.65,3.24,1.06,5.28c-4.75-2.63-9.58-4.46-13.3-7.6
			c-4.39-3.71-7.77-8.61-11.7-12.89c-3.69-4.02-7.53-7.9-11.31-11.85c0.68-0.66,1.36-1.32,2.05-1.98
			c10.77,9.39,21.54,18.77,32.31,28.16c0.48-0.25,0.96-0.49,1.45-0.74c-1.19-2.5-2.39-5-4-8.37c4.8,4.8,9.01,9.01,13.23,13.23
			c0.15-0.11,0.29-0.21,0.44-0.32c-0.97-1.38-1.94-2.75-2.9-4.13c0.26-0.25,0.51-0.49,0.77-0.74
			c12.72,12.72,25.44,25.44,39.19,39.19c-0.08-2.2-0.11-2.81-0.15-3.92c5.18,5.18,10.11,10.11,15.26,15.26
			c-2.5,2.5-4.8,4.8-7.34,7.34c-3.24-3.24-6.35-6.35-9.49-9.49c-2.43,5.54,1.94,7.8,4.48,11.03c0.64,0.81,0.44,3.29-0.32,4.03
			c-4.61,4.49-9.6,8.61-14.24,13.07c-1.56,1.5-2.5,3.66-3.68,5.45c-2.25-1.05-4.02-1.87-5.8-2.69c-0.11,0.21-0.23,0.41-0.35,0.62
			c1.06,1.18,2.13,2.36,3.45,3.83c-2.84,2.84-5.65,5.65-8.79,8.79c-1.16-0.97-2.45-2.05-3.75-3.13c-0.12,0.1-0.24,0.2-0.36,0.3
			c1.02,1.4,2.04,2.79,3.05,4.19c-0.26,0.4-0.52,0.79-0.78,1.19c-3.52-2.1-7.05-4.2-11.9-7.09c3.73,3.73,6.43,6.43,9.27,9.27
			c-2.41,2.41-4.4,4.4-6.64,6.64c-4.32-4.32-8.62-8.62-12.91-12.91c0.3-0.37,0.6-0.74,0.9-1.11c2.98,2.73,5.96,5.45,8.94,8.18
			c0.26-0.19,0.52-0.37,0.78-0.56c-1.01-1.48-1.82-3.15-3.06-4.41c-6.35-6.48-12.84-12.82-19.18-19.31
			c-1.32-1.35-2.35-3.06-3.24-4.74c-0.74-1.41-0.67-3.41-1.67-4.49c-4.07-4.4-8.41-8.55-12.05-13.46
			c11.16,8.48,20.21,19.36,30.73,28.54c0.35-0.3,0.69-0.61,1.04-0.91c-0.52-1.23-0.72-2.79-1.61-3.62
			c-3.48-3.28-7.27-6.22-10.73-9.52c-1.68-1.6-4.54-2.65-2.93-6.39c0.52-1.21-1.79-4.06-3.34-5.64
			c-9.33-9.54-18.6-19.15-28.35-28.25c-4.29-4-9.87-6.6-14.46-10.32c-2.36-1.92-3.84-4.92-5.16-7.81c3.01,2.38,6.02,4.76,9.03,7.14
			c0.15-0.15,0.31-0.3,0.46-0.44c-2.44-2.81-4.88-5.61-7.33-8.42c0.46-0.38,0.92-0.76,1.37-1.14
			c14.61,14.61,29.23,29.23,43.84,43.84c0.35-0.24,0.69-0.48,1.04-0.72c-0.98-1.55-1.95-3.1-2.93-4.66
			c0.24-0.24,0.47-0.48,0.71-0.73c5.54,5.54,11.08,11.08,16.62,16.62c0.49-0.5,0.99-1,1.48-1.5c-17.91-20-38.38-37.38-58.22-55.61
			c1.35-1.62,3-3.59,4.75-5.68c21.25,21.25,42.27,42.27,63.28,63.28c0.4-0.39,0.81-0.78,1.21-1.17
			c-6.48-6.48-12.96-12.96-20.19-20.19c1.73,0.68,2.63,0.79,3.19,1.28c4.73,4.18,10.43,6.73,14.63,12.11
			c7.51,9.63,16.73,17.91,25.3,26.71c0.38,0.39,1.29,0.26,3.03,0.55c-4.53-6.07-8.53-11.44-12.85-17.23
			c1.49,1.16,2.65,2.05,3.81,2.95c-4.85-8.19-11.01-15.07-19.33-19.77c-2.65-1.49-9.32-9.06-11.2-11.49
			c-2.69-3.49-6.14-6.39-9.27-9.54c-1.81-1.82-3.59-3.68-5.46-5.44c-1.38-1.3-2.93-2.44-4.31-3.73c-0.84-0.79-1.53-1.75-1.42-3.17
			c7.57,6.82,15.14,13.65,22.71,20.47c0.22-0.21,0.44-0.41,0.66-0.62c-3.07-3.07-6.02-6.29-9.25-9.2c-8.61-7.76-17.4-15.32-26-23.09
			c-3.64-3.29-6.98-6.92-9.71-11.11c20.03,14.96,37.34,32.83,54.95,50.36c0.31-0.31,0.62-0.62,0.93-0.92
			c-16.76-17.8-33.53-35.6-50.29-53.41c0.13-0.17,0.26-0.34,0.39-0.51c3.31,2.87,6.62,5.74,9.93,8.61c0.25-0.29,0.49-0.59,0.74-0.88
			c-3.03-3.03-6.05-6.05-9.08-9.08c0.21-0.21,0.43-0.43,0.64-0.64c8.3,8.3,16.6,16.6,24.9,24.9c0.27-0.26,0.54-0.53,0.81-0.79
			c-7.97-8.76-15.93-17.52-23.9-26.28c0.34-0.31,0.67-0.62,1.01-0.93c16.6,17.48,33.19,34.96,49.79,52.43
			C1067.09,158.52,1066.8,158.68,1066.51,158.84z M1097.42,179.62c0.23-0.14,0.47-0.28,0.7-0.42c-1.16-2.41-1.91-5.19-3.62-7.11
			c-1.11-1.25-3.63-1.24-6.77-2.16C1091.46,173.67,1094.44,176.65,1097.42,179.62z M1067.58,215.48c0.18-0.2,0.36-0.4,0.53-0.61
			c-2.73-2.73-5.34-5.62-8.24-8.16c-2.87-2.52-6.03-4.69-9.07-7.02c-0.17,0.21-0.35,0.41-0.52,0.62
			C1056.04,205.37,1061.81,210.42,1067.58,215.48z M1061.44,158.68c-0.09,0.1-0.19,0.2-0.28,0.3c5.69,5.69,11.38,11.38,17.06,17.06
			c0.09-0.1,0.19-0.2,0.28-0.3C1072.82,170.05,1067.13,164.36,1061.44,158.68z"/>
		<path class="st2" d="M786.8,411.24c1.09-0.49,0.14-4.72,3.61-1c9.58,10.25,20,19.7,30.15,29.41c0.53,0.5,1.57,0.47,2.82,0.18
			c-21.19-25.27-48.83-44.33-68.42-71.03c12.46,12.46,24.91,24.91,37.37,37.37c0.33-0.3,0.66-0.6,0.99-0.89
			c-8.89-10.7-17.78-21.4-26.67-32.1c0.1-0.1,0.19-0.2,0.29-0.3c1.36,1.17,2.73,2.33,4.1,3.5c0.18-0.19,0.35-0.39,0.53-0.58
			c-4.07-4.07-8.14-8.14-12.45-12.45c4.25-0.04,21.17,16.58,36.44,35.6c-2.9-1.33-4.42-2.03-5.94-2.73
			c-0.18,0.16-0.37,0.32-0.55,0.48c2.88,2.88,5.76,5.76,8.7,8.7c-1.02-1.3-2.06-2.63-3.1-3.97c0.27-0.28,0.54-0.55,0.8-0.83
			c3.97,3.97,7.95,7.95,11.92,11.92c0.33-0.37,0.67-0.73,1-1.1c-3.79-3.79-7.58-7.58-11.37-11.37c0.16-0.4,0.33-0.8,0.49-1.2
			c1.82,0.3,3.64,0.61,6.27,1.04c-3.84-4.76-6.98-9.38-10.86-13.24c-3.82-3.8-8.41-6.84-12.42-10.56c1.14,0.77,2.27,1.53,3.41,2.3
			c0.28-0.28,0.57-0.56,0.85-0.83c-6.42-6.42-12.83-12.83-19.25-19.25c0.31-0.32,0.62-0.64,0.92-0.95
			c11.43,10.02,22.86,20.03,34.3,30.05c0.08-0.07,0.15-0.14,0.23-0.21c-1.96-1.96-3.92-3.92-5.89-5.89c0.35-0.43,0.7-0.86,1.06-1.29
			c3.11,2.67,6.45,5.12,9.27,8.06c4.62,4.83,8.42,10.54,13.46,14.84c4.82,4.12,10.78,6.9,17.01,10.75
			c-7.94-7.94-15.42-15.42-22.91-22.91c0.4-0.4,0.8-0.81,1.2-1.21c4.4,4.4,8.8,8.8,13.19,13.19c4.25,4.25,8.7,8.34,12.69,12.83
			c2.58,2.91,4.36,6.51,6.77,9.6c1.64,2.1,3.61,3.98,5.65,5.72c2.05,1.74,4.37,3.18,6.86,4.95c-3.51,3.51-6.49,6.49-9.74,9.74
			c-3.7-3.26-7.4-6.53-11.11-9.8c-0.33,0.37-0.66,0.73-0.99,1.1c3.37,3.37,6.75,6.75,10.06,10.06
			c-9.66,9.66-18.98,18.98-28.88,28.88c-16.47-16.47-33.19-33.19-49.91-49.91c0.22-0.34,0.44-0.68,0.66-1.02
			c1.26,0.09,2.52,0.17,4.19,0.29c-5.08-5.07-9.82-9.82-14.57-14.57c0.27-0.33,0.54-0.66,0.81-0.99
			c5.38,3.77,12.52,6.48,15.62,11.62c2.77,4.6,6.63,7.04,9.98,10.45c0.4,0.41,1.2,0.43,2.51,0.85
			c-13.34-18.75-33.41-29.51-47.45-46.45c3.64,2.89,7.18,5.91,10.93,8.64c3.48,2.53,7.19,4.74,10.79,7.1
			c0.87,0.57,1.81,1.09,2.56,1.8c9.24,8.69,18.4,17.45,27.68,26.1c3.88,3.62,8.1,6.88,11.95,10.54c5.16,4.91,10.06,10.1,15.19,15.05
			c1.26,1.21,2.94,1.99,5.05,2.11c-7.44-7.44-15.09-14.68-22.23-22.39c-4.33-4.67-9.73-8.68-11.5-15.35
			c-0.17-0.63-0.73-1.19-1.2-1.71c-4.46-4.99-8.8-10.12-13.46-14.92c-7.75-7.99-15.69-15.79-23.59-23.63
			c-1.52-1.51-3.24-2.83-4.87-4.24c0.5-0.51,1-1.02,1.5-1.53c12.52,12.52,25.05,25.05,37.58,37.57
			c6.43,6.42,12.85,12.84,19.26,19.26c0.46-0.51,0.93-1.01,1.39-1.52C800.61,423.05,793.71,417.15,786.8,411.24z M790.67,435.4
			c-0.09,0.12-0.18,0.23-0.27,0.35c5.54,6.89,10.97,13.87,16.7,20.61c1.62,1.91,4.1,3.1,6.19,4.62c0.44-0.55,0.88-1.09,1.32-1.64
			C806.63,451.35,798.65,443.38,790.67,435.4z M810.71,408.11c-0.18,0.21-0.36,0.42-0.54,0.63c8.27,8.27,16.54,16.54,24.81,24.81
			c0.2-0.19,0.4-0.38,0.6-0.58C827.28,424.69,819,416.4,810.71,408.11z M820.24,442.13c-0.34,0.34-0.68,0.69-1.03,1.03
			c4.95,4.95,9.9,9.9,14.84,14.84c0.34-0.34,0.69-0.68,1.03-1.03C830.14,452.03,825.19,447.08,820.24,442.13z M811.35,452.24
			c0.07-0.05,0.14-0.1,0.21-0.15c-4.56-5.22-9.12-10.44-13.68-15.66c-0.42,0.37-0.83,0.73-1.25,1.1
			C801.54,442.43,806.44,447.33,811.35,452.24z"/>
		<path class="st2" d="M1179.72,106.31c1.26,2.75,2.05,4.46,2.89,6.3c-2.45,2.45-4.94,4.94-8.06,8.06
			c-2.63-3.26-5.04-6.37-7.59-9.36c-2.46-2.87-5.07-5.61-7.62-8.4c-0.48,0.44-0.95,0.88-1.43,1.32c2.5,2.5,4.99,4.99,7.49,7.49
			c-0.3,0.26-0.61,0.52-0.91,0.78c-7.82-7.82-15.64-15.64-23.47-23.47c0.25-0.29,0.5-0.58,0.74-0.87c1.84,1.84,3.69,3.69,5.53,5.53
			c0.36-0.32,0.72-0.64,1.08-0.96c-3.11-6.29-9.08-10.25-13.76-15.21c-4.9-5.2-10.26-9.97-15.33-15.03
			c-4.84-4.83-9.54-9.82-14.33-14.69c-4.62-4.7-11.83-6.68-15.02-12.88c0.34-0.36,0.69-0.72,1.03-1.09c3.2,3.2,6.13,6.74,9.66,9.51
			c4.45,3.48,9.52,6.17,14.09,9.52c2.28,1.68,4.08,4.04,6.02,6.16c5,5.46,9.98,10.95,14.94,16.45c2.81,3.12,5.57,6.29,8.35,9.44
			c0.42-0.35,0.83-0.71,1.25-1.06c-8.67-10.2-17.34-20.39-26.01-30.59c0.64-0.58,1.28-1.17,1.92-1.75
			c10.5,12.72,22.02,24.35,35.08,34.43c-8.67-9.33-17.75-18.34-23.95-29.65c9.63,8.18,19.26,16.36,28.89,24.54
			c0.36-0.34,0.72-0.68,1.09-1.02c-8.7-10.72-21.29-17.73-29.19-29.34c-7.47-10.99-18.91-18.41-28.48-28.28
			c4.92-0.96,4.84,7.96,11.22,3.72c12.21,12.21,24.74,24.74,37.26,37.26c0.29-0.3,0.58-0.61,0.87-0.91
			c-5.76-6.53-11.53-13.06-17.29-19.59c0.15-0.15,0.3-0.3,0.45-0.44c2.71,2.71,5.41,5.41,8.12,8.12c0.39-0.39,0.79-0.77,1.18-1.16
			c-4.89-4.89-9.78-9.78-14.68-14.68c0.34-0.3,0.69-0.59,1.04-0.89c6.38,6.38,12.77,12.77,20.25,20.25
			c-2.04-1.08-2.8-1.48-3.55-1.88c-0.28,0.22-0.55,0.43-0.83,0.65c1.28,1.4,2.38,3.07,3.89,4.16c3.48,2.5,7.41,4.42,10.69,7.15
			c3.8,3.16,7.19,6.85,10.59,10.47c6.87,7.31,13.73,14.64,20.32,22.2c0.78,0.9,0.45,3.56-0.32,4.83c-1.15,1.92-3.13,3.33-5.02,5.22
			c-2.81-2.81-5.48-5.48-8.44-8.44c-0.81,5.21,8.95,5.85,4.15,12.24C1183.09,109.21,1181.82,108.12,1179.72,106.31z"/>
		<path class="st2" d="M1118.27,176.94c-9.18-9.18-18.07-18.07-26.96-26.96c-0.29,0.28-0.58,0.55-0.87,0.83
			c1.12,1.24,2.23,2.48,3.35,3.72c0.03-0.04,0.05-0.09,0.08-0.13c-14.13-14.13-28.26-28.26-42.39-42.39
			c0.43-0.47,0.86-0.95,1.3-1.42c1.41,1.07,2.81,2.15,4.22,3.22c0.34-0.32,0.67-0.64,1.01-0.96c-7.62-8.39-15.95-16.11-24.56-23.98
			c0.89-0.89,1.95-1.95,3.2-3.2c4.16,5,8.18,10.01,12.4,14.84c4.88,5.58,9.69,11.25,14.96,16.44c17.45,17.19,35.1,34.18,52.68,51.24
			c0.49,0.47,1.07,0.85,2.29,0.61c-20.11-21.99-40.22-43.98-60.32-65.97c0.16-0.16,0.32-0.32,0.47-0.48
			c7.45,7.45,14.9,14.9,22.35,22.35c0.3-0.27,0.59-0.53,0.89-0.8c-1.1-1.41-2.21-2.82-3.32-4.23c0.21-0.22,0.42-0.44,0.63-0.66
			c3.07,3.07,6.13,6.13,9.2,9.2c0.24-0.2,0.47-0.39,0.71-0.59c-1.36-1.89-2.5-4-4.12-5.65c-7.89-8.05-15.91-15.98-23.88-23.95
			c-6.01-6.01-12.01-12.01-18.5-18.5c0.56-0.77,1.41-1.94,2.64-3.64c5.69,5.69,11.01,11.01,16.34,16.34
			c0.25-0.24,0.5-0.48,0.75-0.72c-3.42-3.92-6.85-7.84-10.27-11.76c0.19-0.22,0.39-0.45,0.58-0.67c1.91,1.38,3.8,2.79,5.74,4.13
			c3.27,2.27,6.83,4.2,9.79,6.82c2.6,2.3,4.23,5.68,6.81,8.01c5.52,4.98,11.39,9.56,17.08,14.36c1.33,1.12,2.49,2.46,3.23,4.26
			c-2.14-1.81-4.27-3.62-6.41-5.42c-0.27,0.24-0.54,0.48-0.82,0.72c0.35,0.66,0.58,1.42,1.07,1.96c2.9,3.22,5.85,6.07,8.12,10.17
			c2.01,3.63,6.23,6.82,9.18,10.8c4.42,5.97,10.95,10.37,16.79,15.63c-0.39-1.06-0.75-2.01-1.1-2.97c0.23-0.24,0.45-0.49,0.68-0.73
			c4.37,3.76,8.73,7.53,13.39,11.54c-1.88,1.88-3.8,3.8-5.61,5.61c-5.99-5.99-11.8-11.8-17.6-17.6c-0.3,0.29-0.59,0.57-0.89,0.86
			c5.83,5.83,11.66,11.66,17.35,17.35c-3.04,6.58-4.87-0.39-7.82,0.08c1.12,1.85,2.12,3.49,3.21,5.29
			C1123.09,172.11,1120.86,174.35,1118.27,176.94z M1097.23,138.19c5.84,10.12,14.61,17.49,22.8,25.44
			c0.44-0.44,0.88-0.88,1.32-1.33C1113.31,154.27,1105.27,146.23,1097.23,138.19z M1064.3,93.28c-0.23,0.28-0.46,0.55-0.69,0.83
			c4,3.4,8.01,6.8,12.01,10.2c0.46-0.58,0.92-1.15,1.38-1.73C1072.76,99.48,1068.53,96.38,1064.3,93.28z"/>
		<path class="st2" d="M914.37,287.7c2.5-3.9,1.03-6.81-1.69-9.45c-8.64-8.41-17.3-16.79-25.89-25.25c-1.5-1.47-2.7-3.25-3.39-5.4
			c7.96,7.96,15.92,15.92,23.89,23.89c0.31-0.29,0.62-0.58,0.93-0.87c-3.18-3.18-6.34-6.36-9.53-9.53c-3.28-3.26-6.5-6.57-9.89-9.71
			c-2.55-2.37-5.39-4.44-7.96-6.78c-0.59-0.54-0.64-1.66-0.94-2.52c0.89-0.01,1.97-0.36,2.63,0.02c1.8,1.02,3.55,2.19,5.09,3.57
			c6.04,5.42,11.93,11,18.05,16.34c0.9,0.78,2.69,0.53,4.39,0.81c-2.4,5.89,4.32,4.03,6.32,6.58c1.45,1.86,4.09,2.79,5.54,4.65
			c1.41,1.81,1.99,4.27,1.81,7.04c2.63,1.62,5.27,3.24,8.33,5.12c0.37-1.04,0.79-2.19,1.25-3.47c0.77,0.47,1.63,1.01,2.49,1.54
			c0.35-0.38,0.71-0.76,1.06-1.14c-8.89-8.11-17.78-16.23-26.67-24.34c10.98,2.97,15.42,15.13,26.54,19.26
			c5.34,5.34,11.43,11.43,17.52,17.52c0.41-0.37,0.83-0.74,1.24-1.11c-2.65-3.11-5.3-6.22-7.95-9.33c0.38-0.3,0.76-0.61,1.14-0.91
			c4.96,4.96,9.91,9.91,14.87,14.87c0.44-0.39,0.88-0.78,1.32-1.17c-3.6-3.84-7.29-7.61-10.79-11.54
			c-3.67-4.13-7.17-8.41-10.41-12.94c2.8,2.34,5.59,4.69,8.39,7.03c0.23-0.18,0.47-0.35,0.7-0.53c-0.35-0.9-0.71-1.8-1.44-3.66
			c3.04,3.04,5.4,5.4,7.76,7.76c-0.14,0.18-0.27,0.37-0.41,0.55c-1.09-0.85-2.18-1.71-3.27-2.56c-0.33,0.53-0.65,1.07-0.98,1.6
			c4.04,2.42,8.09,4.84,12.13,7.26c-0.17,0.3-0.33,0.6-0.5,0.89c-1.21-0.8-2.41-1.6-3.62-2.4c-0.22,0.25-0.43,0.49-0.65,0.74
			c4.47,4.47,8.95,8.95,13.95,13.95c-1.02-0.3-1.51-0.45-3.33-0.99c3.81,3.81,6.82,6.82,9.83,9.83c-0.38,0.4-0.75,0.79-1.13,1.19
			c-3.33-3.33-6.66-6.66-9.99-9.99c-0.35,0.38-0.7,0.76-1.05,1.14c3.24,3.24,6.48,6.48,9.89,9.89c-4.65,4.65-8.88,8.88-13.47,13.47
			c-8.5-8.5-17.02-17.02-25.54-25.54c-0.46,0.37-0.92,0.75-1.38,1.12c7.7,9.44,17.96,16.99,22.83,28.43
			C946.36,317.63,930.35,302.64,914.37,287.7z"/>
		<path class="st2" d="M700.66,468.04c17.11,15.97,34.22,31.95,51.33,47.92c0.31-0.24,0.62-0.47,0.94-0.71
			c-0.41-0.97-0.6-2.15-1.27-2.89c-4.56-5.04-9.35-9.88-13.8-15c-1.67-1.92-2.54-4.53-4.01-6.65c-0.61-0.88-1.83-1.35-2.79-1.97
			c-0.81-0.52-1.8-0.85-2.44-1.52c-2.75-2.86-5.38-5.84-8.1-8.72c-4.58-4.86-9.61-8.92-11.22-16.41c-0.95-4.39-6.08-7.95-9.53-11.7
			c-3.25-3.53-6.86-6.73-10.1-10.26c-1.27-1.38-2-3.27-2.61-5.15c19.03,14.29,31.89,35.01,52.42,49.74
			c-0.6-2.66-0.79-3.52-0.99-4.38c0.32-0.23,0.64-0.46,0.96-0.7c7.78,7.31,15.55,14.62,23.34,21.91c4.01,3.75,7.91,7.63,12.09,11.18
			c2.51,2.13,3.31,3.83-0.28,6.26c-6.81-6.14-13.73-12.38-20.64-18.61c-0.27,0.18-0.53,0.36-0.8,0.54
			c2.46,3.89,4.46,8.19,7.49,11.55c3.09,3.43,7.19,5.94,11.16,9.1c-1.12,1.35-1.97,2.37-3.13,3.77c-3.55-3.55-6.86-6.86-10.17-10.17
			c-0.35,0.31-0.7,0.62-1.05,0.94c3.21,3.21,6.42,6.42,9.92,9.92c-4.24,4.24-7.85,7.85-11.85,11.85
			c-5.84-5.84-11.79-11.79-17.75-17.75c-0.24,0.24-0.47,0.48-0.71,0.73c5.12,5.12,10.21,10.3,15.4,15.35
			c1.99,1.94,3.03,3.55,0.24,4.82c-10.66-10.66-21.15-21.15-31.64-31.64c0.25-0.35,0.5-0.7,0.75-1.04
			c3.86,2.68,7.71,5.37,11.71,8.15c-6.32-7.08-12.55-14.06-18.78-21.05c0.23-0.17,0.45-0.35,0.68-0.52
			c7.68,6.54,15.36,13.08,23.04,19.63c0.26-0.27,0.52-0.55,0.78-0.82c-7.87-7.87-15.74-15.74-23.73-23.73
			c-2.64,3.25-4.18,2.19-5.57-0.77c-3.23-6.88-6.6-13.7-9.92-20.55C700.24,468.45,700.45,468.25,700.66,468.04z M741.75,491.94
			c-0.21,0.26-0.43,0.52-0.64,0.78c3.47,3.47,6.94,6.94,10.42,10.42c0.23-0.24,0.47-0.48,0.7-0.72
			C748.73,498.92,745.24,495.43,741.75,491.94z"/>
		<path class="st2" d="M722.49,434.14c-0.92-1.17-1.84-2.34-2.76-3.51c0.23-0.17,0.46-0.34,0.69-0.51
			c5.07,6.39,10.14,12.78,15.21,19.17c0.61-0.49,1.23-0.98,1.84-1.47c-6.63-8.28-13.27-16.55-19.48-24.31
			c0.21,0.14,1.1,0.73,1.99,1.33c0.13-0.13,0.25-0.27,0.38-0.4c-0.92-1.11-1.84-2.23-2.88-3.5c0.47-0.08,0.8-0.24,0.91-0.14
			c4.89,4.31,9.9,8.49,14.55,13.05c1.49,1.47,2.02,3.93,2.95,5.96c0.28,0.62,0.26,1.47,0.69,1.91c5.1,5.19,10.26,10.32,16.38,14.81
			c-0.39-1.09-0.78-2.18-1.16-3.27c9.37,9.37,18.73,18.73,28.1,28.09c-0.17,0.26-0.34,0.52-0.51,0.78c-0.91-0.33-1.82-0.67-2.74-1
			c-0.16,0.18-0.32,0.37-0.49,0.55c6.67,5.69,13.34,11.37,20.2,17.23c-5.21,4.59-10.31,9.1-14.94,13.18
			c-21.82-13.16-38.47-31.59-52.74-50.53c5.05,4.26,11.18,9.43,17.3,14.6c0.46-0.52,0.93-1.05,1.39-1.57
			c-9.06-9.06-18.13-18.13-27.19-27.19c0.42-0.42,0.84-0.84,1.26-1.26c12.71,12.71,25.42,25.42,38.14,38.14
			c0.43-0.35,0.86-0.69,1.28-1.04c-3.51-5.18-6.4-10.94-10.64-15.43c-11.63-12.3-23.83-24.06-35.8-36.03
			c0.34-0.36,0.69-0.72,1.03-1.08c2.16,1.32,4.32,2.64,6.48,3.95C722.11,434.47,722.3,434.3,722.49,434.14z M779.34,494.12
			c0.43-0.35,0.87-0.71,1.3-1.06c-12.44-12.44-24.89-24.89-38.44-38.44C755.69,468.16,764.73,483.77,779.34,494.12z"/>
		<path class="st2" d="M807.9,487.19c-0.96,0.96-2.17,2.17-3.82,3.82c-3.63-3.63-7.33-7.33-11.02-11.02
			c-0.25,0.24-0.49,0.49-0.74,0.73c3.55,3.55,7.09,7.09,10.92,10.92c-1.84,1.84-3.38,3.38-5.04,5.04
			c-21.93-21.93-43.94-43.94-65.94-65.94c0.2-0.24,0.4-0.48,0.59-0.72c9.27,7.78,18.53,15.56,27.8,23.35
			c0.11-0.17,0.22-0.35,0.33-0.52c-6.92-7.64-13.84-15.27-20.77-22.91c0.45-0.5,0.9-1.01,1.34-1.51c4.33,3.29,8.66,6.58,13.08,9.93
			c0.1-0.91,0.2-1.84,0.44-3.99C773.05,452.34,790.39,469.67,807.9,487.19z M762.7,453.08c4.38,4.38,8.59,8.59,12.8,12.8
			C765.05,451.97,765.05,451.97,762.7,453.08z"/>
		<path class="st2" d="M862.27,429.44c-2.69-2.96-5.28-6.02-8.09-8.86c-7.62-7.73-15.08-15.63-23.07-22.96
			c-7.33-6.73-11.98-15.31-17.58-23.25c-1.21-1.72-2.89-3.09-4.2-4.76c-1.38-1.75-4.76-2.69-2.7-6.08c0.09-0.14-1.31-1.13-1.96-1.77
			c-5.7-5.68-11.38-11.37-17.07-17.06c0.31-0.31,0.63-0.61,0.94-0.92c7.49,7.49,14.98,14.98,23.03,23.03
			c-1.52-0.19-2.4-0.3-3.64-0.46c1.78,1.78,3.37,3.37,5.34,5.34c0.13-1.35,0.21-2.26,0.35-3.74c6.68,6.68,13.02,13.02,19.36,19.36
			c0.34-0.32,0.68-0.64,1.02-0.97c-15.33-15.33-30.66-30.66-45.99-45.99c0.43-0.43,0.86-0.86,1.3-1.28
			c3.37,3.37,6.73,6.73,10.1,10.1c5.65,5.65,11.29,11.29,16.93,16.94c10.56,10.57,21.08,21.18,31.73,31.66
			c2.87,2.82,6.23,5.13,9.18,7.87c0.65,0.6,0.53,2.03,0.77,3.08c-0.37,0.33-0.74,0.66-1.12,0.98c4.23,1.97,8.47,3.94,12.86,5.99
			c0.11-0.65,0.27-1.52,0.5-2.86c2.13,2.13,3.95,3.95,6.17,6.17c-3.4,3.4-6.66,6.89-10.21,10.04c-0.81,0.72-2.63,0.28-3.98,0.38
			C862.26,429.43,862.27,429.44,862.27,429.44z M863.62,420.7c0.18-0.07,0.36-0.14,0.54-0.21c-6.16-6.16-12.32-12.32-18.49-18.49
			c-0.12,0.13-0.25,0.26-0.37,0.38C851.41,408.49,857.51,414.6,863.62,420.7z"/>
		<path class="st2" d="M916.63,320.76c0.65-0.54,1.29-1.09,2.12-1.79c4.25,4.25,8.5,8.5,12.76,12.76c0.23-0.21,0.46-0.41,0.69-0.62
			c-4.32-4.84-8.63-9.68-12.95-14.52c0.11-0.16,0.21-0.32,0.32-0.48c4.67,4.67,9.34,9.34,14.01,14.01c0.33-0.33,0.67-0.65,1-0.98
			c-1.6-1.78-3.2-3.56-4.8-5.34c0.24-0.26,0.48-0.53,0.72-0.79c2.61,2.38,5.3,4.69,7.83,7.16c4.43,4.32,8.76,8.73,13.32,13.28
			c-3.27,3.27-6.49,6.49-10.05,10.05c-1.13-0.98-2.34-1.93-3.42-3c-8.31-8.28-16.78-16.41-24.85-24.91
			c-13.24-13.95-26.27-28.11-39.28-42.27c-5.58-6.08-10.91-12.39-16.42-18.66c2.23-3.65,4.5-4.18,7.72-0.66
			c4.57,4.99,9.64,9.52,14.28,14.45c4.16,4.42,8.03,9.12,11.68,13.96c-6.04-5.12-12.09-10.23-18.13-15.35
			c-0.39,0.48-0.77,0.95-1.16,1.43c4.43,2.64,5.88,8.8,12.26,9.36c1.07,0.09,1.77,2.82,2.91,4.08c7.07,7.86,13.14,16.71,23.46,21.2
			c2.61,1.13,4.03,4.99,6.01,7.6c5.86,7.96,12.23,15.39,20.41,20.97c-3.68-5.01-7.62-9.75-11.92-14.12
			C922.61,325.01,919.49,323.02,916.63,320.76z"/>
		<path class="st2" d="M1211.34,84.54c-3.19-3.19-5.94-5.94-8.68-8.68c-0.42,0.37-0.85,0.74-1.27,1.12
			c1.17,1.17,2.28,2.39,3.51,3.49c1.58,1.41,3.25,2.72,5.2,4.34c-3.02,3.02-5.83,5.83-8.76,8.76c-5.52-5.52-11.08-11.08-16.64-16.64
			c-0.33,0.29-0.66,0.59-0.99,0.88c5.21,6.02,10.43,12.05,15.64,18.07c-0.42,0.36-0.84,0.73-1.26,1.09
			c-19.38-18.89-38.2-38.31-55.5-59.14c0.59-0.57,1.18-1.14,1.77-1.71c8.56,8.56,17.12,17.12,25.68,25.68
			c0.31-0.21,0.63-0.42,0.94-0.62c-0.98-1.83-1.95-3.65-3.65-6.83c5.64,5.64,10.28,10.28,14.92,14.92c0.23-0.24,0.47-0.47,0.7-0.71
			c-6.75-6.75-13.51-13.51-20.26-20.26c7.82,0.96,9.24,8.86,14.41,12.67c5.14,3.79,10.22,7.67,15.71,11.38
			c-4.19-4.78-8.37-9.56-12.56-14.35c0.26-0.26,0.52-0.53,0.79-0.79c5.38,5.38,10.77,10.77,16.15,16.15
			c0.27-0.23,0.55-0.46,0.82-0.69c-1.87-1.87-3.74-3.74-6.37-6.37C1199.36,68.42,1212.46,80.35,1211.34,84.54z"/>
		<path class="st2" d="M1079.18,94.11c5.07,5.07,10.14,10.14,15.21,15.21c0.33-0.27,0.67-0.55,1-0.82
			c-3.85-3.85-7.7-7.7-11.55-11.55c0.33-0.34,0.65-0.68,0.98-1.02c2.01,1.7,4.01,3.39,6.02,5.09c0.35-0.37,0.7-0.74,1.05-1.11
			c-4.84-4.84-9.67-9.67-14.51-14.51c0.36-0.35,0.71-0.69,1.07-1.04c9.24,9.24,18.48,18.48,27.73,27.73
			c-0.32,0.36-0.64,0.71-0.96,1.07c-3.88-3.88-7.76-7.76-11.63-11.63c-0.35,0.36-0.71,0.72-1.06,1.08
			c6.38,6.38,12.75,12.75,19.13,19.13c0.08-0.04,0.16-0.08,0.25-0.12c-1.21-1.49-2.42-2.98-3.63-4.47c0.21-0.23,0.43-0.47,0.64-0.7
			c5,5,10,10,15,15c0.37-0.3,0.74-0.6,1.11-0.89c-5.72-6.45-11.43-12.91-17.15-19.36c0.46-0.45,0.92-0.9,1.39-1.36
			c12.56,12.56,25.12,25.12,37.93,37.93c-3.08,3.08-6.14,6.14-8.67,8.67c-20.33-20.33-40.58-40.58-60.83-60.83
			C1078.19,95.11,1078.69,94.61,1079.18,94.11z"/>
		<path class="st2" d="M895.39,282.08c-4.45-4.45-9.13-8.71-13.27-13.44c-2.19-2.5-6.93-3.82-5.01-9.03
			c0.28-0.76-2.52-2.67-4.57-4.72c0.35,2.03,0.56,3.25,0.77,4.48c-0.34,0.13-0.68,0.25-1.03,0.38c-1.02-2.45-2.05-4.91-3.07-7.36
			c0.48-0.36,0.96-0.73,1.44-1.09c1.22,0.72,2.64,1.25,3.64,2.21c3.98,3.81,7.95,7.65,11.66,11.73c1.04,1.15,0.93,3.26,1.74,4.71
			c0.99,1.75,2.23,3.44,3.65,4.86c8.8,8.82,17.59,17.64,26.56,26.27c4.14,3.99,8.69,7.55,13.05,11.31c0.32-0.36,0.63-0.73,0.95-1.09
			c-7.25-7.25-14.51-14.51-21.76-21.76c0.1-0.16,0.2-0.32,0.3-0.48c7.13,5.8,14.63,11.21,21.29,17.51
			c7.3,6.9,13.83,14.63,20.7,21.99c0.36,0.39,0.74,0.78,1.15,1.11c6.61,5.4,6.55,6.56-1.07,12.57c-1.17-1.17-2.96-2.18-3.52-3.65
			c-2.98-7.81-10.85-10.94-15.85-16.87c-7.23-8.59-15.75-16.1-23.72-24.06c-3.68-3.68-7.25-7.47-11.11-10.96
			c-0.97-0.88-3.13-0.4-4.2-1.24c-2.39-1.86-4.47-4.14-6.62-6.29c-1.37-1.37-2.82-4.17-3.94-4.03c-4.97,0.63-6.01-4.76-9.76-5.75
			c-0.32-0.08-0.29-1.49-0.56-3.1c7.5,5.94,14.34,11.36,21.19,16.79C894.76,282.74,895.08,282.41,895.39,282.08z"/>
		<path class="st2" d="M1079.12,43.06c2.22,2.22,4.37,4.51,6.67,6.64c5.81,5.39,11.9,10.51,17.46,16.15
			c2.86,2.89,4.49,6.97,7.26,9.98c6.57,7.15,13.51,13.96,20.24,20.97c4.74,4.94,9.16,10.21,14.14,14.88
			c2.99,2.8,6.87,4.61,10.22,7.06c4.03,2.95,7.91,6.1,11.91,9.2c-2.85,2.85-5.38,5.38-8.48,8.48
			c-18.98-18.98-38.03-38.03-57.07-57.07c0.28-0.29,0.55-0.59,0.83-0.88c10.9,9.74,21.81,19.48,32.71,29.22
			c0.24-0.24,0.48-0.49,0.72-0.73c-19.24-20.93-38.49-41.86-57.73-62.8C1078.37,43.8,1078.74,43.43,1079.12,43.06z"/>
		<path class="st2" d="M768.98,442.32c2.19,2.19,4.38,4.38,6.56,6.56c0.21-0.22,0.42-0.44,0.62-0.66
			c-5.25-5.25-10.51-10.51-15.76-15.76c-1-1.01-2.76-1.99-2.84-3.07c-0.43-6.35-5.99-7.71-9.73-11c-3.2-2.81-5.4-6.76-8.05-10.21
			c-0.34,0.27-0.67,0.53-1.01,0.8c1.86,1.86,3.72,3.72,5.58,5.58c-0.3,0.32-0.6,0.64-0.9,0.96c-2.07-2.07-4.13-4.13-6.2-6.2
			c-2.25-2.25-4.51-4.51-6.76-6.76c0.21-0.23,0.42-0.47,0.63-0.7c1.39,1.39,2.78,2.78,4.17,4.17c0.34-0.34,0.68-0.67,1.02-1.01
			c-3.2-3.2-6.4-6.4-9.6-9.6c0.32-0.35,0.64-0.7,0.96-1.06c1.1,0.88,2.3,1.67,3.29,2.66c20.13,20.09,40.33,40.11,60.28,60.38
			c5.3,5.39,9.72,11.65,14.67,17.41c1.36,1.58,3.4,2.59,4.65,4.23c0.89,1.16,0.97,2.93,1.42,4.43c-1.65,0.05-3.99,0.82-4.83,0.02
			c-3.15-3.02-5.58-6.79-8.7-9.85c-5.17-5.06-10.76-9.68-16-14.67c-5.16-4.91-10.1-10.05-15.14-15.09
			C767.86,443.35,768.42,442.83,768.98,442.32z"/>
		<path class="st2" d="M1080.3,73.61c5.37,4.64,10.91,9.11,16.08,13.97c12.13,11.4,24.12,22.95,36.08,34.53
			c6.74,6.53,13.29,13.25,19.92,19.89c-0.27,0.79-0.54,1.57-0.8,2.36c-1.45,0.01-3.52,0.65-4.26-0.07
			c-10.46-10.18-20.93-20.38-31.01-30.94c-6.54-6.84-12.32-14.41-18.71-21.4c-2.85-3.12-6.52-5.46-9.57-8.42
			c-2.99-2.91-5.66-6.16-8.47-9.26C1079.81,74.05,1080.06,73.83,1080.3,73.61z"/>
		<path class="st2" d="M1159.82,111.25c-1.95-1.71-3.9-3.41-5.85-5.12c-0.36,0.33-0.73,0.66-1.09,1c2.11,2.11,4.44,4.06,6.28,6.39
			c1.76,2.23,2.46,6.12,4.59,7.03c3.19,1.37,5.41,2.3,4.72,6.25c-6.65-7.22-16.04-11.82-20.02-21.56c-0.5-1.23-1.79-2.17-2.79-3.17
			c-8.04-8.07-16.1-16.12-23.38-23.39c0.06-2.04,0.58-3.58,0.04-4.31c-1.47-1.96-3.39-3.57-5.14-5.32
			c-7.34-7.34-14.69-14.69-22.03-22.03c0.71-0.67,1.41-1.33,2.12-2c4.22,5.08,7.99,10.64,12.79,15.11
			c4.73,4.41,10.49,7.71,15.51,11.97c-0.75-0.22-1.51-0.45-3.75-1.11c13.68,13.68,26.41,26.41,39.13,39.13
			C1160.56,110.49,1160.19,110.87,1159.82,111.25z"/>
		<path class="st2" d="M782.72,359.24c2.39,2.39,4.77,4.77,7.16,7.16c0.38-0.4,0.76-0.8,1.14-1.2c-4.07-1.8-3.76-7.71-9.31-8.29
			c-0.98-0.1-2-1.56-2.65-2.61c-1.32-2.13-2.53-4.35-3.48-6.66c-0.24-0.57,0.66-1.61,1.46-3.34c15.13,18.32,34.76,31.28,48.19,50.24
			c-0.36,0.37-0.73,0.74-1.09,1.11c-8.9-8.9-17.81-17.81-26.71-26.71c-0.51,0.48-1.02,0.96-1.52,1.44
			c5.43,5.43,10.85,10.85,16.28,16.28c-0.49,0.5-0.98,1-1.47,1.51C800.25,379.63,791.09,369.71,782.72,359.24z"/>
		<path class="st2" d="M956.81,165.35c2.05-2.05,3.76-3.76,5.75-5.75c0.69,11.44,11.74,14.56,16.65,22.53
			c0.4-0.34,0.81-0.67,1.21-1.01c-5.08-5.08-10.16-10.16-15.24-15.24c0.57-0.55,1.14-1.1,1.71-1.65
			c9.73,7.42,15.75,18.42,25.12,26.19c-0.36,0.37-0.72,0.74-1.09,1.11c-1.17-0.93-2.33-1.85-4.22-3.35c0.9,1.78,1.41,2.81,1.93,3.83
			c-0.38,0.34-0.75,0.68-1.13,1.02c-2.63-2.63-5.12-5.42-7.92-7.85c-6.23-5.42-12.64-10.65-18.93-16
			C959.35,168.05,958.19,166.73,956.81,165.35z"/>
		<path class="st2" d="M945.25,271.36c-2.46-2.46-4.92-4.92-7.37-7.37c-0.23,0.2-0.46,0.4-0.68,0.61c1.17,1.42,2.34,2.85,3.51,4.27
			c-0.13,0.11-0.26,0.23-0.39,0.34c-14.53-14.53-29.07-29.07-43.6-43.6c0.55-0.69,1.1-1.38,1.65-2.06c2.04,1.42,5.66,2.68,5.82,4.28
			c0.5,5.06,4.67,6.09,7.48,8.66c1.96,1.79,3.78,3.74,5.33,6.09c-1.26-0.8-2.52-1.61-4.3-2.74c5.99,5.99,11.51,11.51,17.02,17.02
			c0.06-0.03,0.13-0.06,0.19-0.1c-1.68-2.13-3.37-4.26-5.05-6.38c0.28-0.23,0.57-0.46,0.85-0.69c6.87,6.87,13.74,13.74,20.6,20.6
			C945.95,270.65,945.6,271.01,945.25,271.36z"/>
		<path class="st2" d="M767.63,424.96c-12.15-11.05-24.31-22.1-36.76-33.42c1.4-1.4,2.28-2.28,2.81-2.81
			c5.81,4.97,9.01,12.3,17.38,14.39c2.39,0.6,3.85,4.78,5.84,7.24c2.38,2.95,4.76,5.93,7.35,8.69c1.47,1.57,3.35,2.74,5.05,4.08
			C768.74,423.74,768.18,424.35,767.63,424.96z"/>
		<path class="st2" d="M914.84,250.46c-2.61-2.61-5.81-5.81-9.02-9.02c0.56-0.51,1.12-1.01,1.68-1.52
			c10.95,12.11,21.9,24.21,32.29,35.71c-3.33-1.68-7.91-3.09-11.32-5.92c-5.37-4.44-10.01-9.78-14.76-14.92
			C913.28,254.33,914.27,252.54,914.84,250.46z"/>
		<path class="st2" d="M1012.64,190.67c-1.44-0.12-2.89,0.21-3.57-0.36c-5.08-4.35-10.39-8.52-14.9-13.42
			c-7.59-8.24-14.64-16.98-21.39-26.07C985.84,163.87,998.9,176.93,1012.64,190.67z"/>
		<path class="st2" d="M1038.85,212.19c-19.22-19.22-38.44-38.44-57.66-57.66c0.22-0.23,0.44-0.46,0.66-0.68
			c19.18,19.18,38.37,38.37,57.55,57.55C1039.21,211.66,1039.03,211.93,1038.85,212.19z"/>
		<path class="st2" d="M816.84,478.97c-1.13-0.36-2.61-0.37-3.33-1.12c-10.32-10.7-20.57-21.47-30.74-32.3
			c-2.35-2.5-4.37-5.3-6.17-8.23c13.54,13.54,27.08,27.08,40.62,40.62C817.1,478.29,816.97,478.63,816.84,478.97z"/>
		<path class="st2" d="M701.17,421.04c16.02,16.02,32.05,32.05,48.07,48.07c-0.37,0.37-0.74,0.73-1.11,1.1
			c-16.02-16.02-32.05-32.05-48.07-48.07C700.43,421.77,700.8,421.41,701.17,421.04z"/>
		<path class="st2" d="M1002.35,172.21c-8-9.29-15.99-18.58-23.99-27.86c0.02-0.51,0.03-1.01,0.05-1.52
			c1.46,0.09,4.01-0.24,4.22,0.32C986.89,154.48,997.9,160.98,1002.35,172.21z"/>
		<path class="st2" d="M730.08,521.74c6.8,6.8,13.61,13.61,20.61,20.61c-0.93,2.54-2.27,3.94-4.56,1.09
			c-5.63-7-11.14-14.1-16.69-21.16C729.65,522.1,729.87,521.92,730.08,521.74z"/>
		<path class="st2" d="M1071.75,50.94c8.03,8.78,16.07,17.56,24.1,26.34c-0.31,0.29-0.63,0.58-0.94,0.87
			c-8.39-8.39-16.78-16.78-25.18-25.18C1070.41,52.29,1071.08,51.62,1071.75,50.94z"/>
		<path class="st2" d="M862.26,429.43c-0.4,1.53-0.81,3.05-1.12,4.23c-9.1-9.1-18.3-18.3-27.5-27.5c0.34-0.39,0.67-0.78,1.01-1.17
			c0.88,0.57,1.93,0.98,2.63,1.72c6.36,6.77,12.54,13.71,19.06,20.32c1.38,1.39,3.93,1.63,5.94,2.4
			C862.27,429.44,862.26,429.43,862.26,429.43z"/>
		<path class="st2" d="M1133.82,113.95c7.89,7.89,15.78,15.78,23.67,23.67c-0.24,0.27-0.48,0.54-0.72,0.81
			c-8.23-7.5-16.46-15-24.68-22.5C1132.66,115.28,1133.24,114.62,1133.82,113.95z"/>
		<path class="st2" d="M1023.94,146.03c-8.16-4.83-22.7-20.44-23.2-23.2C1008.22,130.31,1016.08,138.17,1023.94,146.03z"/>
		<path class="st2" d="M710.79,447.42c12.71,6.52,18.08,20.02,24.11,24.11C729.8,466.43,720.29,456.92,710.79,447.42z"/>
		<path class="st2" d="M890.55,261.76c6.24,6.24,12.48,12.48,18.72,18.72C901.1,276.23,895.27,269.62,890.55,261.76z"/>
		<path class="st2" d="M1030.57,208.72c7.95,6.03,15.89,12.05,24.01,18.21C1042.95,225.34,1038.59,214.56,1030.57,208.72z"/>
		<path class="st2" d="M1074.78,81.91c-5.75-5.75-11.51-11.51-17.26-17.26c0.19-0.17,0.39-0.34,0.58-0.51
			c5.75,5.75,11.49,11.49,17.24,17.24C1075.16,81.56,1074.97,81.73,1074.78,81.91z"/>
		<path class="st2" d="M810.45,344.04c-5.38-5.38-10.75-10.75-16.13-16.13c0.17-0.2,0.35-0.41,0.52-0.61
			c5.36,5.36,10.72,10.72,16.08,16.08C810.77,343.6,810.61,343.82,810.45,344.04z"/>
		<path class="st2" d="M717.8,404.32c4.44-2.42,4.44-2.42,9.25,9.25C724.23,410.75,721.05,407.57,717.8,404.32z"/>
		<path class="st2" d="M993.55,203.03c-5.27-4.81-10.55-9.62-15.82-14.44c0.33-0.38,0.67-0.76,1-1.13
			c5.39,4.68,10.78,9.36,16.17,14.04C994.46,202.01,994,202.52,993.55,203.03z"/>
		<path class="st2" d="M769.75,402.23c6.16,6.16,12.32,12.32,18.48,18.48c-0.14,0.16-0.29,0.32-0.43,0.48
			c-6.17-6.17-12.33-12.33-18.5-18.5C769.45,402.54,769.6,402.39,769.75,402.23z"/>
		<path class="st2" d="M1087.39,64.1c-3.96-5.33-7.92-10.67-11.89-16c0.26-0.24,0.52-0.48,0.78-0.71c4.35,5,8.69,9.99,13.04,14.99
			C1088.67,62.95,1088.03,63.52,1087.39,64.1z"/>
		<path class="st2" d="M938.59,201.54c-1.05,0.74-2.09,1.49-2.98,2.12c-2.94-2.52-6-5.14-9.06-7.76c3.08-3.54,4.67-0.67,6.73,1.66
			c1.47,1.66,3.52,2.8,5.31,4.19C938.6,201.76,938.59,201.54,938.59,201.54z"/>
		<path class="st2" d="M933.61,207.26c2.51,2.51,6.75,6.75,10.99,10.99C936.06,218.4,937.11,208.57,933.61,207.26z"/>
		<path class="st2" d="M829.77,326.56c-7.03-1.26-9.48-7.34-12.68-12.68C821.32,318.11,825.55,322.33,829.77,326.56z"/>
		<path class="st2" d="M851.43,312.98c-6.26-5.29-12.52-10.57-18.78-15.86c0.24-0.29,0.47-0.57,0.71-0.86
			c6.24,5.12,12.49,10.25,18.73,15.37C851.87,312.09,851.65,312.54,851.43,312.98z"/>
		<path class="st2" d="M873.37,293.74c-4.45-4.45-8.89-8.89-13.34-13.34c0.13-0.18,0.26-0.36,0.39-0.54
			c4.45,4.45,8.91,8.91,13.36,13.36C873.64,293.39,873.51,293.56,873.37,293.74z"/>
		<path class="st2" d="M914.76,233.19c3.8,4.49,7.59,8.97,11.61,13.72c-4.44-4.44-8.59-8.59-12.73-12.73
			C914.01,233.85,914.39,233.52,914.76,233.19z"/>
	</g>
	<g>
		<path class="st3" d="M773.46,265.8c-1.37-1.37-2.75-2.75-4.12-4.12c-0.37,0.14-0.74,0.29-1.12,0.43c0.44,1.45,1.06,2.88,1.27,4.37
			c0.2,1.43-0.03,2.93-0.1,5.59c-4.19-4.19-7.29-7.29-10.4-10.4c0.1-0.24,0.21-0.49,0.31-0.73c1.78,0.65,3.56,1.3,6.68,2.44
			c-19.76-19.76-38.48-38.48-57.2-57.2c0.33-0.37,0.67-0.74,1-1.12c2.24,1.97,4.55,3.86,6.7,5.92
			c11.25,10.81,21.84,22.45,34.01,32.11c4.66,3.7,10.09,6.77,14.34,11.17c3.35,3.47,6.37,7.26,9.53,10.9
			C774.06,265.38,773.76,265.59,773.46,265.8z"/>
		<path class="st3" d="M636.19,347.04c9.39,9.13,21.41,15.59,27.76,27.79c-0.36,0.38-0.72,0.75-1.07,1.13
			c-4.95-4.53-9.97-8.98-14.82-13.62c-4.64-4.43-9.1-9.05-13.64-13.59C635.02,348.18,635.6,347.61,636.19,347.04z"/>
		<path class="st3" d="M765.29,237.25c-1.52-2.19-3.04-4.39-4.56-6.58c0.61-0.4,1.23-0.79,1.84-1.19c1.55,2.5,2.99,5.08,4.68,7.48
			c1.73,2.46,3.56,4.9,5.62,7.08c3.7,3.94,7.61,7.68,11.44,11.5c-0.64,0.65-1.28,1.3-1.92,1.95c-9.98-8.85-19.54-18.12-27.22-29.37
			c3.2,3.2,6.4,6.4,9.61,9.61C764.94,237.58,765.11,237.41,765.29,237.25z"/>
		<path class="st3" d="M918.29,121.46c-12.82-13.58-25.64-27.16-38.46-40.74c0.12-0.12,0.23-0.23,0.35-0.35
			c4.85,4.14,9.93,8.05,14.48,12.49c4.65,4.53,8.73,9.64,13.16,14.4c4.02,4.33,8.57,8.24,12.38,12.72
			C919.56,120.48,918.92,120.97,918.29,121.46z"/>
		<path class="st3" d="M874.14,111.36c-5.94-5.94-11.88-11.88-17.83-17.83c-5.79-5.79-11.58-11.58-17.37-17.37
			c0.44-0.43,0.89-0.87,1.33-1.3c11.77,11.77,23.54,23.54,35.31,35.31C875.11,110.56,874.62,110.96,874.14,111.36z"/>
		<path class="st3" d="M903.66,59.56c-0.85-0.99-1.71-1.98-2.5-2.9c0.19-0.35,0.25-0.47,0.32-0.59c6.17,5.12,12.34,10.23,19.42,16.1
			c-5.94,1.37-6.53-4.12-9.65-5.33c-3.22-1.25-6.49-2.71-9.22-4.76c-3.07-2.31-5.56-5.39-8.31-8.13c0.34-0.42,0.68-0.84,1.02-1.26
			c2.8,2.43,5.6,4.86,8.4,7.29C903.32,59.84,903.49,59.7,903.66,59.56z"/>
		<path class="st3" d="M631.91,352.86c7.78,6.85,15.56,13.69,23.34,20.54c-0.4,0.46-0.8,0.92-1.19,1.38
			c-9.96-4.39-15.3-14.18-23.5-20.63C631.01,353.72,631.46,353.29,631.91,352.86z"/>
		<path class="st3" d="M963.01,78.1c-1.7,0.27-2.88,0.78-3.19,0.46c-8.02-8.37-15.94-16.83-23.88-25.27
			c0.38-0.38,0.76-0.75,1.14-1.13C945.51,60.6,953.94,69.03,963.01,78.1z"/>
		<path class="st3" d="M797.93,166.87c12.27,12.27,24.54,24.54,36.81,36.81c-0.22,0.22-0.44,0.44-0.66,0.66
			c-12.27-12.27-24.54-24.54-36.81-36.81C797.49,167.31,797.71,167.09,797.93,166.87z"/>
		<path class="st3" d="M669.79,294.77c-5.22-5.22-10.43-10.43-15.65-15.65c0.5-0.5,1-1.01,1.5-1.51
			c5.22,5.22,10.44,10.44,15.66,15.66C670.8,293.77,670.29,294.27,669.79,294.77z"/>
		<path class="st3" d="M662.84,344.51c7.65,3.39,13.15,8.78,17.65,15.1c-0.44,0.41-0.88,0.81-1.32,1.22
			C673.72,355.39,668.28,349.95,662.84,344.51z"/>
		<path class="st3" d="M667.17,370.78c-6.63-6.63-12.85-12.85-19.57-19.57c4.98,1.67,7.38,5.18,10.01,8.57
			C660.48,363.47,667.45,363.34,667.17,370.78z"/>
		<path class="st3" d="M734.64,201.56c5.08,5.08,10.17,10.17,15.25,15.25c-0.32,0.33-0.63,0.65-0.95,0.98
			C743.16,213.53,738.01,208.59,734.64,201.56z"/>
		<path class="st3" d="M743.83,262.08c5.51,5.51,11.02,11.02,16.53,16.53c-0.25,0.25-0.5,0.5-0.75,0.76
			c-5.56-5.56-11.12-11.12-16.68-16.68C743.22,262.48,743.53,262.28,743.83,262.08z"/>
		<path class="st3" d="M762.79,111.11c4.72,4.72,9.43,9.43,14.15,14.15c-0.22,0.19-0.44,0.39-0.67,0.58
			c-4.73-4.73-9.46-9.46-14.19-14.19C762.32,111.47,762.56,111.29,762.79,111.11z"/>
		<path class="st3" d="M659.9,301.15c7.78-0.24,4.91,10.56,8.6,10.89c-1.99-1.99-5.76-5.76-9.54-9.54
			C659.27,302.05,659.59,301.6,659.9,301.15z"/>
		<path class="st3" d="M824.37,188.23c-5.79-5.08-11.58-10.16-17.37-15.24c0.32-0.36,0.64-0.73,0.96-1.09
			C815.02,175.67,819.09,182.83,824.37,188.23z"/>
		<path class="st3" d="M809.66,214.79c-4.53-4.53-9.06-9.06-13.6-13.6c0.11-0.15,0.22-0.31,0.33-0.46
			c4.75,4.29,9.51,8.58,14.26,12.87C810.33,214,810,214.4,809.66,214.79z"/>
		<path class="st3" d="M672.96,288.92c4.27,4.27,8.55,8.55,12.82,12.82c-0.24,0.24-0.47,0.48-0.71,0.71
			c-4.27-4.27-8.55-8.55-12.82-12.82C672.48,289.39,672.72,289.16,672.96,288.92z"/>
		<path class="st3" d="M735.48,304.46c-5.17-5.17-10.34-10.34-15.5-15.5c0.12-0.13,0.25-0.25,0.37-0.38
			c5.49,4.83,10.97,9.66,16.46,14.5C736.36,303.54,735.92,304,735.48,304.46z"/>
		<path class="st3" d="M777.62,235.72c4.43,4.43,8.87,8.87,13.3,13.3c-0.44,0.42-0.89,0.84-1.33,1.26
			c-4.19-4.67-8.39-9.34-12.58-14.02C777.22,236.09,777.42,235.91,777.62,235.72z"/>
		<path class="st3" d="M875.99,137c-7.21-7.21-14.43-14.43-21.64-21.64c0.11-0.11,0.22-0.23,0.34-0.34
			c7.21,7.21,14.43,14.43,21.64,21.64C876.21,136.78,876.1,136.89,875.99,137z"/>
		<path class="st3" d="M795.44,225.73c3.32,2.91,9.35,3.65,10.16,8.8c-0.6,0.5-1.2,1-1.8,1.51
			C801.01,232.61,798.23,229.17,795.44,225.73z"/>
		<path class="st3" d="M872.4,157.01c-3.24-3.24-6.47-6.47-9.71-9.71c0.22-0.28,0.44-0.55,0.65-0.83c3.51,3.06,7.01,6.13,10.52,9.19
			C873.37,156.12,872.89,156.57,872.4,157.01z"/>
		<path class="st3" d="M937.65,48.45c6.19,6.19,12.38,12.38,18.57,18.57c-0.1,0.1-0.2,0.2-0.29,0.31
			c-6.19-6.19-12.38-12.38-18.57-18.57C937.45,48.65,937.55,48.55,937.65,48.45z"/>
		<path class="st3" d="M868.73,147.04c-4.7-4.7-9.4-9.4-14.1-14.1c0.25-0.25,0.5-0.5,0.76-0.75c4.73,4.73,9.46,9.46,14.2,14.2
			C869.29,146.6,869.01,146.82,868.73,147.04z"/>
	</g>
</g>
</svg>
