<?xml version="1.0" encoding="utf-8"?>
<!-- Generator: Adobe Illustrator 28.2.0, SVG Export Plug-In . SVG Version: 6.00 Build 0)  -->
<svg version="1.1" id="Layer_1" xmlns="http://www.w3.org/2000/svg" xmlns:xlink="http://www.w3.org/1999/xlink" x="0px" y="0px"
	 viewBox="0 0 1920 1080" style="enable-background:new 0 0 1920 1080;" xml:space="preserve">
<style type="text/css">
	.st0{fill:#006DB6;}
	.st1{fill:#0061A0;}
	.st2{fill:#0097D5;}
	.st3{fill:#53B8E8;}
</style>
<rect width="1920" height="1080"/>
<g>
	<g>
		<path class="st0" d="M1034.9,346.3c-8.4-8.3-16.6-16.6-24.7-24.8c-0.2,0.1-0.3,0.3-0.5,0.5c7.8,8.7,15.6,17.3,24.3,26.9
			c-3.8-0.5-3.2,5.4-7.6,3.1c0.4,0.7,0.8,1.3,1.2,1.9c-2.5,2.5-5,5-7.5,7.6c-3.2-2.1-6.4-4.2-9.5-6.2c-0.1,0.1-0.2,0.3-0.3,0.3
			c2.5,2.5,5,5,7.7,7.7c-1.1,1.1-2.4,2.3-3.8,3.8c-3.5-3.9-7-7.8-10.5-11.7c-0.4,0.3-0.7,0.7-1.1,1c3.7,3.7,7.4,7.4,11.2,11.2
			c-1.5,1.5-2.7,2.7-4.1,4c-2.8-2.8-5.6-5.6-8.3-8.3c-0.1,0.1-0.3,0.3-0.5,0.5c2.7,2.7,5.4,5.4,8.3,8.3c-15.8,15.8-31.3,31.3-47,47
			c-7.8-7.8-15.5-15.5-23.2-23.2c-0.1,0.1-0.3,0.3-0.5,0.5c7.7,7.7,15.4,15.4,23.2,23.2c-7.6,7.6-15,15-22.5,22.5
			c-0.9-0.7-1.7-1.5-2.6-2.1c-0.1,0.1-0.2,0.2-0.3,0.3c0.7,0.8,1.3,1.6,2.3,2.7c-1.8,1.8-3.6,3.6-5.5,5.5
			c-6.8,6.8-13.5,13.5-20.3,20.3c-12.8,12.8-25.6,25.6-38.5,38.4c-1.2,1.2-3,1.7-4.8,2.6c-0.1-0.1,0.4,0.6,0.8,1.2
			c-0.1,0.3-0.1,0.4-0.3,0.5c-8.1,7.7-3.6,8-17.9,2.9c-9.2-3.2-18.3-7.2-26.8-11.9c-9.4-5.2-18.2-11.8-27.1-17.9
			c-2.3-1.5-4.4-3.4-6.5-5.1c1.3-1.6,2.5-2.8,3.7-4.4c2.8,2.8,5.4,5.4,8.1,8.1c0.1-0.1,0.1-0.2,0.2-0.3c-2.1-3.1-4.2-6.2-6.4-9.4
			c3.3-3.3,6.4-6.4,9.8-9.8c1,0.9,2,1.8,3,2.7c0.1-0.1,0.2-0.2,0.3-0.3c-0.8-0.9-1.6-1.9-2.7-3c0.6-0.7,1.2-1.5,2.1-2.6
			c3.8,3.3,7.4,6.6,11.4,10.1c-0.8-5.8-6.3-7.5-8.7-12.3c1.7,1.5,2.9,2.7,4.1,3.7c0.1-0.1,0.3-0.2,0.4-0.3c-1.1-1.3-2.3-2.7-3.6-4.1
			c1.7-1.7,3.4-3.4,5-5c1.7,1.9,3.3,3.6,5,5.4c0.2-0.1,0.3-0.3,0.5-0.4c-0.6-1-1.1-2.1-1.9-3c-0.8-1-1.8-1.9-2.8-2.9
			c2.2-2.2,4.2-4.2,6.4-6.4c0.7,0.5,1.4,1.1,3,2.2c-1.1-1.5-1.7-2.3-2.3-3c1.3-1.3,2.7-2.7,4.4-4.4c3.2,2.8,6.4,5.6,9.6,8.4
			c0.1-0.1,0.3-0.2,0.4-0.3c-3-3-6-6-9-9c1-1,1.8-1.8,2.8-2.8c4.8,4.8,9.6,9.6,14.6,14.6c-0.1-3.1-0.5-5.2-3.8-5.6
			c-1-0.1-1.7-2-2.6-3c-2.1-2.6-4.2-5.2-6.5-7.9c0.9-0.8,1.8-1.6,2.6-2.3c2.7,1.2,5.4,2.3,8.1,3.4c-1.9-1.9-3.8-3.8-5.8-5.8
			c5.3-5.8,10.5-11.5,15.6-17.1c4.1,4.1,8,8,11.7,11.7c0.1-0.1,0.3-0.3,0.5-0.4c-0.3-0.6-0.6-1.1-1.1-2c0.8,0.4,1.3,0.7,2.7,1.4
			c-4.2-4.7-7.7-8.7-11.5-13c5.8-5.8,11.4-11.5,17.3-17.1c0.6-0.5,2.8-0.1,3.8,0.5c2.3,1.5,4.3,3.4,6.8,4.7
			c-2.6-2.6-5.1-5.1-7.8-7.8c1.9-1.9,3.6-3.6,5.4-5.4c8.3,8.3,16.5,16.5,24.7,24.7c0.2-0.2,0.5-0.5,0.7-0.7
			c-8.2-8.2-16.4-16.4-24.9-24.9c2.5-1.6,2.8-5.4,6.4-3.8c-0.9-2.1,0.5-4,6.2-8.3c1.5,1.5,3,3,4.6,4.6c0.1-0.1,0.3-0.3,0.5-0.5
			c-1.6-1.6-3.1-3.1-5.2-5.2c1.5-0.7,2.5-1.2,3.4-1.7c0.2-0.1,0.3-0.4,0.4-0.7c0.5-2.7,3.5-4.7,4.9-4c0.6-1.4,1.3-2.8,2.1-4.6
			c2.8,2.7,5,5,7.1,7.1c0.2-0.2,0.5-0.4,0.7-0.7c-2.2-2.2-4.4-4.4-6.6-6.6c0.3-0.3,0.5-0.5,0.8-0.8c8,8,15.8,15.8,23.8,23.8
			c0.2-0.2,0.4-0.4,0.7-0.7c-7.9-7.9-15.8-15.8-23.7-23.7c0.8-0.8,1.3-1.3,1.9-1.9c6.8,6.8,13.4,13.4,20,20.1
			c0.2-0.2,0.5-0.5,0.7-0.7c-6.7-6.7-13.4-13.3-20.1-20.1c6.6-6.6,12.9-12.9,19.5-19.5c1.9,1.9,3.6,3.6,5.8,5.8
			c-0.5-3.4-5.6-3.9-3.8-8.6c1.4,1.2,2.2,1.9,3,2.7c0.1-0.1,0.2-0.2,0.3-0.3c-0.7-0.9-1.3-1.7-2.1-2.7c1.5-1.4,2.8-2.8,4.2-4.2
			c2.8,2.8,5.6,5.6,8.3,8.3c0.2-0.1,0.3-0.3,0.5-0.5c-2.7-2.7-5.4-5.4-8.2-8.2c2.7-2.7,5.2-5.2,8-8c1.7,1.3,3.6,2.8,5.4,4.2
			c0.1-0.1,0.2-0.3,0.3-0.4c-1.7-1.9-3.4-3.7-5.1-5.6c0.3-0.3,0.5-0.5,0.8-0.7c1.2,1.1,2.4,2.1,3.6,3.2c0.2-0.1,0.3-0.3,0.5-0.4
			c-0.9-1.3-1.8-2.7-2.8-4.2c1.1-1.1,2.3-2.3,3.6-3.6c1.4,1.1,2.8,2.2,4.3,3.4c1.1-2.6-5.1-3.2-1.6-6.3c1.4,1.1,2.7,2.2,4,3.2
			c0.1-0.1,0.3-0.3,0.5-0.5c-0.9-1.4-1.9-2.8-3.4-5c5.1,0.1,6.6,4.4,10,5.9c-2.4-2.4-4.8-4.8-7.2-7.2c3.9-3.9,7.6-7.6,11.4-11.4
			c4.2,3.4,8.3,7,12.5,10.5c0.2-0.2,0.4-0.4,0.5-0.6c-3.8-3.8-7.7-7.7-11.6-11.6c0.3-0.3,0.5-0.5,0.8-0.8c4.3,4.3,8.5,8.5,12.8,12.9
			c0.2-0.3,0.5-0.5,0.7-0.7c-4.2-4.2-8.5-8.5-13-13c2-0.9,2.3-4.4,4.8-2.5c0.2-0.9,0.2-2.2,0.9-2.8c0.5-0.5,1.8-0.2,2.6-0.2
			c-0.2-0.3-0.5-1-0.9-1.7c0.2-0.2,0.3-0.3,0.5-0.5c1.1,0.9,2.2,1.7,3.2,2.6c0.1-0.1,0.1-0.1,0.3-0.2c-0.8-1-1.7-2-2.6-3
			c1.5-1.5,3-3,4.9-4.9c2.7,2.7,5.4,5.6,8.3,8.3c2.7,2.5,4.4,6.6,9.2,6.8c-5.6-5.6-10.9-10.9-16.3-16.3c2.5-2.5,4.9-4.9,7.8-7.8
			c1.1,1.1,2.1,2.1,3.1,3.2c4.9,5.2,9.7,10.5,14.7,15.5c1.5,1.6,3.7,2.5,5.6,3.7c0.2-0.3,0.4-0.5,0.6-0.7
			c-5.8-5.5-11.7-11-17.4-16.6c-1.8-1.7-3.4-3.7-5-5.7c-0.3-0.3,0.5-1.5,0.9-2.8c1.5,1.7,2.5,2.8,3.4,4c0.3-0.2,0.5-0.4,0.7-0.7
			c-1-1.2-1.9-2.3-3.3-4c1.5-0.8,2.8-1.5,3.9-2.1c0.5-1.1,0.9-2.3,1.8-4.2c3.8,3.8,7,7,10.3,10.3c0.2-0.2,0.4-0.4,0.7-0.6
			c-3.2-3.2-6.6-6.6-9.8-9.8c0.3-0.3,0.6-0.6,0.9-0.9c8.2,7.8,16.4,15.5,24.5,23.3c0.1-0.1,0.3-0.3,0.4-0.5
			c-7.8-7.8-15.6-15.6-23.7-23.7c1.3-1.3,3-2.8,4.4-4.7c1.8-2.4,4.2-4.4,6.8-7c11.1,11.7,22.1,23.3,33.1,34.9
			c0.4-0.3,0.7-0.7,1.1-1.1c-11-11.6-22-23.2-33.2-35c4.2-3,4,3.8,7.1,2.7c-1.4-1.4-3-3-4.7-4.7c1.1-1.1,2-2,3-3
			c7,4.6,9.8,13.5,18.2,16.6c-5.7-5.7-11.4-11.4-17-17c1.5-2.3,1.5-2.3,6.5,1.7c-0.9-1.7-3.2-4-2.9-5.8c0.4-2,3.2-3.5,5.2-5.6
			c5.2,5.2,10.3,10.3,15.4,15.4c0.2-0.2,0.5-0.5,0.7-0.7c-5.1-5.1-10.1-10.2-15.3-15.3c3.2-3.6,6.1-7.3,9.5-10.4
			c3.1-2.7,4.6-6.8,8.9-8.7c1.3,1.2,2.8,2.5,4.3,3.9c0.1-0.1,0.2-0.2,0.3-0.3c-1.4-1.4-2.8-2.7-4.3-4.3c4.4-4.3,8.5-8.5,12.9-12.9
			c0.6,0.4,1.4,0.9,3.1,1.9c-0.9-1.8-1.3-2.6-1.5-3.2c8.4-8.4,16.7-16.7,25.5-25.5c5.4,7.4,10.8,14.9,16.2,22.4
			c-0.1,0.1-0.3,0.3-0.4,0.4c-0.5-0.3-1.1-0.6-2.5-1.3c4,5.3,7.6,10,11.1,14.6c-0.3,0.2-0.5,0.4-0.8,0.7c-0.7-0.6-1.5-1.3-2.3-1.9
			c9,9.5,11.9,22.1,16.9,33.6c0.7,1.5,1.2,3,1.9,4.8c-3.3,1.7-4.3,6.8-9.1,6.8c-0.1,0.4,0,1.6-0.6,2.2c-6.8,7.2-13.8,14.2-20.7,21.3
			c-8.1,8.2-16.3,16.3-24.8,24.8c-6.2-6.2-12.3-12.3-18.4-18.5c-0.1,0.1-0.3,0.3-0.5,0.5c6,6,12.1,12.1,18.4,18.4
			c-4.4,3.5-6.8,8.8-12.1,10.7c-0.3-0.3-0.5-0.6-0.7-0.9c0.3,0.7,0.6,1.5,0.9,2.3c-0.1,0.1-0.3,0.3-0.5,0.4c-1.2-1-2.4-2-3.5-3
			c-0.1,0.1-0.3,0.2-0.3,0.3c1,1.1,2,2.2,3.1,3.4c-1.5,1.5-2.8,2.8-4.4,4.4c-5.6-5.6-11.2-11.2-16.8-16.8c-0.1,0.1-0.3,0.3-0.5,0.5
			c5.5,5.5,11.1,11,16.8,16.8C1055.1,326.1,1045.2,335.9,1034.9,346.3z M1011.4,348.5c1.8-3.2-0.7-4.7-2.4-6.4
			c-4.4-4.4-8.7-8.9-13.3-13.3c-4.1-3.9-8.4-7.6-12.6-11.3c-0.1,0.1-0.3,0.3-0.4,0.4c3.4,3.4,6.9,6.9,11,11c-2.2-1.3-3.4-2-4.6-2.7
			C996.5,333.7,1004,341.1,1011.4,348.5z M911.1,394.9c7.4,9.5,15.3,18.4,24.5,26.1c0.3-0.3,0.5-0.5,0.8-0.8
			C928,411.8,919.5,403.3,911.1,394.9z M1078.3,227.4c0.2-0.3,0.4-0.5,0.6-0.9c-5.4-5.4-10.8-10.8-16.2-16.2
			c-0.2,0.2-0.4,0.4-0.6,0.6c2.1,2.1,4.1,4.1,6.2,6.2c-0.1,0.1-0.2,0.3-0.3,0.4c-0.8-0.5-1.5-1.1-2.3-1.6c-0.1,0.2-0.3,0.5-0.5,0.7
			C1069.5,220.2,1073.9,223.8,1078.3,227.4z M914.4,417.3c-0.3,0.3-0.7,0.6-0.9,0.9c5.4,5.4,10.9,10.9,16.4,16.4
			c0.3-0.3,0.7-0.7,0.9-0.9C925.3,428.3,919.9,422.8,914.4,417.3z M1085.3,229.4c0.7,3.6,13.4,15.4,17.2,15
			C1096.8,239.5,1091.2,234.6,1085.3,229.4z M908.1,434.3c-7-7-13.5-13.5-19.9-19.9C895.6,424.6,904.4,433.4,908.1,434.3z
			 M1088.1,249.3c0.2-0.1,0.4-0.3,0.5-0.5c-5.5-5.5-11-11-16.5-16.5c-0.2,0.1-0.3,0.3-0.5,0.5
			C1077.1,238.3,1082.6,243.8,1088.1,249.3z M923.9,388.2c0.3-0.3,0.5-0.5,0.8-0.8c-5-5-10.1-10.1-13.2-13.2
			C915,376.9,917.2,384.7,923.9,388.2z M1015.9,316.2c-0.3,0.3-0.6,0.6-0.9,0.9c5.5,5.2,10.2,11.3,17,15.2
			C1026.6,326.9,1021.3,321.6,1015.9,316.2z M865.3,454.2c-0.3,0.5-0.7,0.9-1.1,1.3c6,5.6,12.1,11.1,18.1,16.7
			c0.2-0.2,0.3-0.4,0.5-0.6C877,465.9,871.2,460.1,865.3,454.2z M955.9,316.8c-0.3,0.2-0.5,0.5-0.8,0.7c6,6,11.9,11.9,17.9,17.9
			c0.3-0.3,0.5-0.5,0.7-0.7C967.8,328.7,961.9,322.8,955.9,316.8z M998.7,354.1c0.3-0.3,0.5-0.5,0.7-0.7c-5-5-10.1-10.1-15.1-15.1
			c-0.3,0.3-0.5,0.5-0.7,0.7C988.7,344,993.7,349.1,998.7,354.1z M1108.6,242.2c-0.3,0.3-0.6,0.5-0.9,0.8c4,4.6,8.1,9.1,12.1,13.7
			c0.3-0.3,0.5-0.5,0.9-0.7C1116.7,251.3,1112.7,246.7,1108.6,242.2z M881,424.3c0.1-0.1,0.3-0.3,0.4-0.4
			c-4.2-4.6-8.5-9.3-12.7-13.9c-0.3,0.3-0.7,0.7-1.1,1C872.2,415.5,876.6,419.9,881,424.3z M928.3,390.7c2.8,7.8,9.7,11.5,14.5,16.9
			C938,402,933.3,396.5,928.3,390.7z M850.4,434.8c-0.2,0.2-0.3,0.5-0.5,0.7c5,5,10,10,15,15c0.2-0.2,0.4-0.4,0.6-0.6
			C860.5,444.9,855.5,439.9,850.4,434.8z M925.6,434.7c0.3-0.3,0.7-0.7,1-1.1c-3.4-3.2-7-6.4-10.4-9.5c-0.2,0.2-0.4,0.4-0.5,0.6
			C918.9,428.1,922.3,431.4,925.6,434.7z M1082.8,271.4c-0.1,0.1-0.2,0.1-0.3,0.2c3.4,3.4,6.8,6.8,10.1,10.1
			c0.1-0.1,0.1-0.1,0.3-0.3C1089.5,278.1,1086.1,274.8,1082.8,271.4z M955.3,393.5c-0.1,0.1-0.2,0.2-0.3,0.3
			c3.8,3.8,7.7,7.7,11.5,11.5c0.3-0.3,0.5-0.6,0.8-0.9C963.3,400.8,959.3,397.1,955.3,393.5z M858.5,448.1c-0.3-2-5.8-8-9.7-9.7
			C852.1,441.7,855.4,445,858.5,448.1z M1072,298c0.2-0.3,0.5-0.5,0.7-0.7c-2.8-4.8-8.2-7-12.1-10.7
			C1064.4,290.4,1068.2,294.3,1072,298z M889.7,481.7c-3.6-3.9-6.6-8.5-11.2-11.3c-0.3,0.3-0.5,0.5-0.7,0.8
			C881.7,474.8,885.7,478.3,889.7,481.7z M1042.3,276.1c0.1-0.2,0.3-0.3,0.5-0.5c-4.4-4.4-8.9-8.9-13.4-13.4
			c-0.1,0.1-0.3,0.3-0.5,0.5C1033.3,267.2,1037.8,271.6,1042.3,276.1z M860.5,487c0.1-0.1,0.2-0.2,0.3-0.3
			c-4.7-4.7-9.4-9.4-14.1-14.1c-0.1,0.1-0.1,0.2-0.3,0.3C851.1,477.6,855.8,482.3,860.5,487z M852.9,471.4c-0.2,0.1-0.3,0.3-0.5,0.5
			c2.8,2.8,5.7,5.7,8.5,8.5c0.1-0.2,0.3-0.3,0.5-0.5C858.5,477.1,855.7,474.2,852.9,471.4z M836.2,497.2c0.1-0.2,0.3-0.3,0.5-0.5
			c-4.1-4.1-8.2-8.2-12.3-12.3c-0.1,0.1-0.3,0.3-0.5,0.5C828,489,832.1,493.1,836.2,497.2z M1112.9,206.3c0.1-0.1,0.2-0.1,0.3-0.1
			c-2.7-3.1-5.5-6.2-8.2-9.3c-0.3,0.3-0.5,0.5-0.8,0.7c0.8,1.3,1.5,2.9,2.5,4C1108.5,203.3,1110.7,204.7,1112.9,206.3z M833.7,489.4
			c-0.3,0.3-0.5,0.6-0.8,0.9c3.2,2.9,6.4,5.8,9.6,8.7c0.1-0.1,0.2-0.3,0.3-0.4C839.8,495.5,836.7,492.5,833.7,489.4z M1083.9,261.5
			c0.1-0.1,0.2-0.3,0.3-0.4c-3.3-3.3-6.6-6.6-9.9-9.9c-0.1,0.1-0.2,0.3-0.3,0.4C1077.3,254.8,1080.6,258.1,1083.9,261.5z
			 M1058.2,227.5c-0.2,0.2-0.4,0.3-0.6,0.5c2.8,2.8,5.6,5.6,8.4,8.4c0.2-0.2,0.4-0.3,0.6-0.5C1063.8,233.2,1061,230.4,1058.2,227.5z
			 M1088.3,211.7c0.1-0.1,0.3-0.3,0.4-0.4c-2.2-2.3-4.4-4.4-6.6-6.6c-0.1,0.1-0.3,0.3-0.4,0.4C1083.8,207.2,1086,209.4,1088.3,211.7
			z M912,379.7c-1.6-3.8-6.5-8.5-8.7-8.7C906.1,373.8,909,376.6,912,379.7z M831.7,488.8c0.1-0.1,0.3-0.3,0.5-0.5
			c-2.5-2.5-5-5-7.5-7.5c-0.1,0.1-0.3,0.3-0.5,0.5C826.7,483.7,829.2,486.2,831.7,488.8z M1008.9,354.4c0.1-0.1,0.3-0.3,0.5-0.5
			c-2.1-2.1-4.2-4.2-6.3-6.3c-0.1,0.1-0.3,0.3-0.5,0.5C1004.7,350.2,1006.8,352.3,1008.9,354.4z"/>
	</g>
	<g>
		<path class="st1" d="M938.7,499.3c2.8-2.2,3.9-6.6,8.3-6.7c0.1-0.5-0.1-1.9,0.5-2.5c8.9-9.1,18-18,27-27.2c0.9,0.7,1.6,1.2,3,2.3
			c-1.1-1.5-1.6-2.2-2.1-3c2.8-2.8,5.8-5.8,8.8-8.8c1.2,1.2,2.2,2.2,3.2,3.2c0.1-0.1,0.3-0.3,0.5-0.4c-1-1.1-2-2.2-3.1-3.4
			c3.6-3.6,7.2-7.2,10.9-10.9c1.5,1.5,2.9,2.9,4.3,4.3c0.1-0.1,0.3-0.3,0.5-0.4c-1.1-1.7-2.3-3.4-3.3-5
			c10.9-10.9,21.9-21.9,33.1-33.1c0.9,0.8,2.2,1.9,3.4,2.8c0.2-0.1,0.4-0.3,0.7-0.5c-0.9-1.3-1.9-2.5-3-4.1c2.5-2.5,5-5,7.5-7.5
			c2.8-2.8,5.7-5.7,8.5-8.5s5.5-5.5,8.3-8.3c2.8-2.8,5.6-5.5,8.4-8.3c2.7-2.7,5.4-5.4,8.1-8.2c2.7-2.8,5.5-5.5,8.2-8.3
			c2.7-2.7,5-5.8,8-7.8c2.9-1.9,4.3-5,6.8-7.2c3-2.6,5.7-5.6,8.5-8.4c2.8-2.7,5.5-5.5,8.3-8.3c2.8-2.8,5.5-5.5,8.3-8.3
			c2.8-2.8,5.6-5.8,8.5-8.5c2.6-2.4,5.6-4.2,8.1-6.8c2.6-2.6,4.6-5.8,7.2-8.5c2.7-3,5.6-5.7,8.5-8.5c2.8-2.7,5.4-5.6,8.3-8.2
			c2.7-2.5,5.8-4.7,8.5-7.4c2.6-2.7,4.7-5.8,7.5-8.5c3,20.9,1.3,41.4-2,62c-0.8-0.3-1.5-0.5-2.2-0.7c-0.1,0.3-0.2,0.7-0.1,0.7
			c2.3,2.5,1.3,5.1,0.5,7.8c-2.5,9.1-4.8,18.2-7.4,27.7c-2.2-2.2-3.8-3.8-5.4-5.4c-0.1,0.1-0.3,0.3-0.5,0.4c1.8,1.8,3.6,3.6,5.2,5.2
			c-9.3,25.7-22.8,48.4-41,68.5c-0.9-0.9-1.9-1.9-2.7-2.7c-0.1,0.1-0.3,0.2-0.4,0.3c0.8,1,1.6,1.9,2.5,3c-3.2,3.2-6.4,6.4-9.7,9.7
			c-0.9-0.7-1.8-1.5-2.7-2.1c-0.1,0.1-0.1,0.2-0.3,0.3c0.7,0.8,1.3,1.6,2,2.5c-4.7,4.7-9.3,9.3-14.3,14.3c-4-4-7.8-7.8-11.6-11.6
			c-0.1,0.1-0.3,0.3-0.5,0.5c3.7,3.6,7.4,7.4,11.3,11.3C1050.6,489.2,997.5,503.9,938.7,499.3z M1134.1,306.1
			c0.3,4,7.2,11.3,10.9,12.3C1141.6,314.5,1138.2,310.6,1134.1,306.1z M1004,456.1c-0.3,0.3-0.6,0.6-0.9,0.9
			c3.9,3.9,7.8,7.8,11.7,11.7c0.1-0.1,0.3-0.2,0.4-0.3C1011.5,464.3,1007.7,460.2,1004,456.1z M1096.7,349.4
			c-0.1,0.1-0.2,0.2-0.3,0.3c3.1,3.1,6.3,6.3,9.4,9.4c0.1-0.1,0.2-0.2,0.3-0.3C1103,355.7,1099.9,352.6,1096.7,349.4z M1026.3,436.9
			c0.1-0.1,0.3-0.1,0.5-0.2c-3.1-3.1-6.2-6.2-9.3-9.3c-0.1,0.1-0.3,0.2-0.4,0.3C1020.2,430.8,1023.3,433.9,1026.3,436.9z
			 M1104.3,414.3c-0.1,0.1-0.3,0.3-0.4,0.4c3.8,3.8,7.6,7.6,11.4,11.4c0.1-0.1,0.3-0.3,0.4-0.4
			C1111.9,421.9,1108.1,418,1104.3,414.3z"/>
	</g>
	<g>
		<path class="st2" d="M879.3,222.4c5.4,5.4,10.7,10.9,16.2,16.2c0.9,0.8,2.3,1,3.4,1.5c0.8,0.4,1.7,0.7,2.3,1.4
			c1.4,1.5,2.6,3.2,3.8,4.8c0.3-0.3,0.7-0.5,1-0.8c-1.2-1.7-2.5-3.3-3.6-5c0.3-0.3,0.5-0.5,0.8-0.7c3.8,3.7,7.5,7.5,11.3,11.3
			c0.3-0.3,0.5-0.5,0.9-0.9c-6-6-12-12-18.6-18.6c0.7,2,1.2,3.2,1.6,4.4c-0.2,0.1-0.5,0.3-0.7,0.4c-4.1-4.1-8.2-8.2-12.3-12.3
			c-0.5-0.5-0.7-1.3-1.1-1.7c-3.6-3-3.6-3.2,0.3-5.9c7.6,6.4,15.2,12.8,23.3,19.5c-2.9-2.9-5.6-5.6-8.2-8.2c0.2-0.2,0.4-0.4,0.5-0.6
			c4.8,4.8,8.8,10.8,14.5,14c5.8,3.2,8,10.1,14.5,12.6c-1-1.5-1.8-2.7-2.5-3.8c0.3-0.2,0.5-0.5,0.8-0.7c6.4,6.4,12.7,12.7,19.2,19.2
			c-2.8,2.8-5.3,5.3-7.8,7.8c-1.7-1-3.2-2-4.8-3c-0.2,0.2-0.3,0.4-0.5,0.6c0.7,0.9,1.6,1.8,2.2,2.8c0.4,0.7,0.5,1.5,0.7,2.2
			c-0.8-0.3-1.9-0.2-2.5-0.7c-2.1-1.9-3.8-4-5.8-6c-0.4-0.4-1-0.5-2.1-0.1c1.8,1.8,3.6,3.6,5.4,5.4c1.4,1.3,2.8,2.7,1.3,5.6
			c-4.4-4.4-8.5-8.5-12.6-12.6c-0.2,0.3-0.5,0.5-0.7,0.7c4,4,8,8,11.9,11.9c-0.9,2.3-1.9,2.7-3.4,1c-0.9-1.1-1.9-2-3.3-2.6
			c1.4,1.5,2.8,3,4.2,4.6c-0.3,0.3-0.5,0.5-0.7,0.8c-9.3-8.7-18.6-17.5-28-26.2c-0.2,0.2-0.4,0.4-0.7,0.6c3.7,3.7,7.4,7.4,11.2,11.2
			c-0.2,0.2-0.3,0.3-0.5,0.5c-1.2-1.1-2.5-2.2-3.6-3.3c-0.1,0.1-0.3,0.3-0.4,0.4c7,5.8,13.9,11.5,21.1,17.5
			c-2.2,2.2-3.8,3.8-5.7,5.7c-0.7-0.5-1.4-1.1-2.3-1.9c0.5,1.1,0.8,2,1.1,2.8c-0.2,0.1-0.4,0.3-0.6,0.5
			c-6.7-6.2-13.4-12.5-20.1-18.7c-0.2,0.2-0.4,0.4-0.6,0.7c0.5,0.7,1.1,1.3,1.7,1.9c4,4.4,8.1,8.8,12.2,13.2c1.4,1.5,3,2.8,4.2,4.3
			c0.4,0.5-0.1,1.7-0.3,3.4c-2.4-2.4-4-4-5.6-5.6c-0.2,0.2-0.5,0.4-0.7,0.7c1.7,1.7,3.2,3.2,4.9,4.9c-0.1,0.3-0.1,0.5-0.2,0.8
			c-0.9-0.1-1.8-0.2-2.1-0.2c-0.5,1.3-1.1,2.8-2,5.1c-2.8-2.8-5-5-7.2-7.2c-0.2,0.2-0.5,0.4-0.7,0.6c2,2.3,4,4.6,6,7.1
			c-1.4,1.4-2.7,2.7-4.6,4.6c-3.8-3.8-7.7-7.7-11.5-11.5c-0.3,0.3-0.5,0.6-0.7,0.9c1.3,1.1,2.6,2.2,3.9,3.3
			c-0.1,0.2-0.3,0.3-0.5,0.5c-3.6-3.6-7.3-7.3-10.9-10.9c0.5,0.3,1.1,0.6,1.7,0.9c0.1-0.1,0.2-0.2,0.3-0.3
			c-5.8-5.8-11.7-11.7-17.6-17.6c-5,0.9-6.4-3.6-8.8-6.1c-4.8-5.1-9-10.9-13.5-16.3c0.3-0.3,0.7-0.7,1-1
			c13.8,13.8,27.6,27.6,41.4,41.4c0.3-0.3,0.6-0.6,0.9-0.9c-2.1-2.4-4.2-4.8-6.2-7.3c-2.1-2.7-4-5.6-6.2-8.2
			c-3.8-4.4-7.9-8.6-11.9-12.9c-1-1.1-1.9-2.3-2.3-3.9c0.6,0.4,1.2,0.8,1.8,1.3c0.2-0.3,0.5-0.7,0.7-0.9c-3-2.1-6-4-8.9-6.3
			c-1.6-1.3-2.9-2.8-4.6-4.5c2.3,1.1,4.1,2.1,6,3c0.2-0.3,0.5-0.6,0.7-0.9c-1.2-1.3-2.6-2.5-3.6-4c-0.5-0.9-0.4-2.2-0.6-3.3
			c0.9,0.5,2,0.8,2.8,1.5c2.4,2,4.8,4,7,6.2c4.2,4.3,8.2,8.7,12.1,13.2c0.9,1,1.3,2.5,2,3.6c1.6-2.1,1.7,0.7,2.5,0.8
			c0.1,0,0.3,0.3,0.4,0.5c0.9,1.5,1.4,3.7,2.7,4.2c5.8,2.1,8.9,7.1,13.2,11.5c-0.1-1-0.1-2-0.3-3c0.3,0.1,0.7,0.2,1.1,0.3
			c0.1-0.1,0.3-0.3,0.4-0.4c-12.7-12.7-25.4-25.4-38.1-38.1c5.1,1.9,7.8,6.6,11.7,9.9c3.9,3.4,7.8,6.8,11.8,10.1
			c-3.8-4.2-7.8-8.5-11.6-12.8c0.2-0.2,0.4-0.4,0.6-0.5c4.4,4.4,8.7,8.7,13.2,13.2c0.1-0.1,0.3-0.3,0.5-0.4
			c-3.2-3.2-6.4-6.4-9.5-9.5c0.2-0.3,0.5-0.5,0.7-0.7c2.7,2.7,5.4,5.4,8.2,8.2c0.3-0.3,0.6-0.6,0.9-0.9c-1.5-1.5-3-3-4.5-4.5
			c0.1-0.2,0.3-0.4,0.5-0.6c2.3,1.5,4.5,3,6.8,4.6c0.1-0.1,0.1-0.2,0.3-0.3c-2.5-2.5-4.8-4.8-7.3-7.3c0.3-0.3,0.5-0.5,0.7-0.9
			c1.6,1.3,3.1,2.6,4.7,3.9c0.2-0.2,0.4-0.5,0.6-0.7c-6.8-6.8-13.6-13.6-20.3-20.4c-0.1-0.1,0.1-0.6,0.1-1.2
			c6.2,6.2,12.3,12.3,18.6,18.6c0-1.3,0-2.2-0.1-4c-1.9-2.5-4.2-6.1-7.1-9.2c-2.3-2.5-5.4-4.2-8.1-6.6c-1.2-1-4.2-2-0.9-4.4
			c10.4,11.6,21.7,22.3,33.5,32.3c0.3-0.3,0.5-0.5,0.8-0.7c-3.6-3.6-7.3-7.3-10.9-10.9c0.2-0.2,0.3-0.4,0.5-0.6
			c4.2,3.4,8.4,6.9,12.6,10.3c0.1-0.2,0.3-0.3,0.5-0.5c-1.9-2.3-3.8-4.4-5.7-6.6c0.1-0.1,0.3-0.2,0.3-0.3c0.5,0.3,1.1,0.6,0.8,0.4
			c-3.8-3.7-8.1-8.1-12.5-12.5c0.2-0.2,0.3-0.3,0.5-0.5c3.5,3.1,7.1,6.2,10.6,9.3c0.2-0.2,0.3-0.3,0.5-0.5
			c-8.3-8.3-16.6-16.6-24.9-24.9C878.7,222.9,879,222.6,879.3,222.4z M880,277c0.1-1.5,0.9-3.2,0.3-4.2c-0.9-1.7-2.7-3-4.2-4.1
			c-2.8-2.1-5.7-3.8-8.5-5.8c-0.1,0.1-0.1,0.2-0.1,0.3C871.6,267.8,875.9,272.5,880,277z M930.5,261.9c-0.2,0.3-0.3,0.5-0.5,0.7
			c2.5,1.8,5.1,3.6,7.6,5.3c0.2-0.3,0.4-0.5,0.6-0.8c-3.4-3.4-7-7-10.4-10.4c-0.2,0.2-0.4,0.4-0.6,0.6c2.1,2.1,4.1,4.1,6.1,6.1
			c-0.1,0.1-0.2,0.2-0.3,0.3C932.3,263.2,931.4,262.5,930.5,261.9z M903.7,291.3c2.8,6.4,4.4,7.7,7,7
			C908.6,296.2,906.5,294.1,903.7,291.3z M863.6,253c-0.3,0.3-0.5,0.6-0.8,0.9c3.3,3,6.6,5.9,9.9,8.9c0.1-0.1,0.2-0.3,0.3-0.4
			C869.8,259.2,866.7,256.1,863.6,253z"/>
		<path class="st2" d="M964.2,196.2c0.6-0.1,1.3-0.4,1.7-0.1c6.2,3.4,11.5,8.1,16.4,13.3c0.8,0.8,1.6,1.6,3,1.8
			c-4.7-4.7-9.3-9.3-14-14c0.1-0.2,0.3-0.3,0.4-0.5c1.3,0.9,2.6,1.7,4,2.7c-0.1-0.4-0.2-0.8-0.5-1.9c2,2.5,3.6,4.4,5.3,6.4
			c0.4-0.3,0.8-0.7,1.2-1.1c-7.7-8.3-15.4-16.6-23-24.9c-0.4,3.2,2,4.4,3.8,6.2c1.9,1.7,3.5,3.8,5.2,5.8c-0.3,0.3-0.6,0.5-0.9,0.7
			c-5.3-5.8-10.6-11.7-15.8-17.4c-0.1-0.2-0.3-0.5-0.5-0.5c-2.6-1.1-4-3.2-4.8-5.8v0.1c0.4-0.1,0.7-0.3,1.7-0.6
			c-2.1-2.1-4.2-4.2-6.5-6.5c1.1-1.1,2.1-2.1,3.4-3.4c1.6,1.6,3.2,3.2,4.8,4.8c0.1-0.1,0.3-0.2,0.5-0.3c-0.1-0.5-0.3-0.9-0.5-1.5
			c0.9,0.2,1.7,0.3,3.3,0.7c-2.3-2.4-4.2-4.2-6-6c0.2-0.3,0.3-0.6,0.5-0.9c0.8,0.3,1.9,0.5,2.4,1.1c4.4,4.8,8.8,9.7,13.2,14.6
			c0.3,0.3,0.8,0.9,0.9,0.9c2.3-1.6,3.2,1.3,4.8,1.6c0.2-0.3,0.4-0.6,0.6-0.9c-1.8-1.3-3.6-2.5-5.4-3.8c-0.1,0.2-0.1,0.3-0.2,0.5
			c-1.5-1.9-2.7-3.8-4.3-5.5c-3.2-3.4-6.6-6.7-9.9-10c0.3-0.3,0.6-0.5,0.9-0.9c11,11,21.9,21.9,32.9,32.9c0.2-0.1,0.3-0.3,0.5-0.5
			c-2.8-3.3-5.5-6.6-8.3-9.9c0.1-0.2,0.3-0.4,0.4-0.6c3.7,3.7,7.4,7.4,11.1,11.1c0.3-0.3,0.7-0.7,1.1-1.1
			c-4.4-4.4-8.8-8.8-13.3-13.3c0.2-0.3,0.3-0.6,0.5-0.9c0.7,0.1,1.3,0.3,1.9,0.3c-6-7.1-11.9-14.2-17.9-21.2
			c0.1-0.1,0.1-0.2,0.2-0.3c15,13.9,30,27.8,45.1,41.7c0.2-0.1,0.4-0.3,0.6-0.4c-2.8-3.6-5.4-7.5-8.5-10.9
			c-3.6-3.8-7.6-7.2-11.5-10.8c-0.3-0.3-0.4-0.7-0.6-1.1c0.2-0.3,0.5-0.5,0.7-0.7c8.5,7.6,17.1,15.2,25.6,22.8
			c0.1-0.1,0.3-0.3,0.4-0.4c-2.1-2.5-4.3-4.8-6.4-7.4c-1.1-1.4-1.9-3.1-3.1-4.4c-7.1-7.2-14.2-14.3-21.3-21.4
			c-5.6-5.6-11.3-11.2-16.8-16.8c0.2-0.3,0.5-0.5,0.7-0.7c0.3,0.1,0.7,0.1,0.9,0.3c4.9,4.5,9.6,9.3,14.7,13.6
			c6.9,5.9,14,11.3,21,17.2c2.2,1.9,3.4,5.3,5.8,6.3c6.4,2.6,10.1,8.5,15.7,11.9c1.4,0.8,2.4,2.3,4,3.9c-3.6,1.5-4.2,7-9.3,4.5
			c0.6,1,1.1,1.8,1.6,2.7c-0.2,0.2-0.4,0.4-0.6,0.6c-1.9-1.9-3.6-3.6-5.5-5.5c-0.1,0.1-0.1,0.2-0.2,0.3c1.3,2.3,2.5,4.4,3.8,6.9
			c-1.1,1.1-2.3,2.3-3.6,3.6c-7.2-5.3-11.6-13.8-20.3-17.4c-0.7,3.6-0.7,3.5,2.7,4.1c0.5,0.1,0.9,0.3,1.3,0.5
			c4.8,4.8,9.7,9.6,14.7,14.6c-3.2,3.2-6.1,6.3-9.3,9.2c-0.7,0.6-2.6,0.3-3.5-0.3c-1.3-0.8-2.3-2.2-3.9-3c1.7,1.7,3.3,3.3,5.2,5.2
			c-2.7,2.7-5.2,5.2-8.1,8.1c-1.7-1.7-3.5-3.5-5.3-5.3c-0.1,0.1-0.3,0.3-0.5,0.5c1.7,1.7,3.4,3.4,5.1,5.1c-2.1,3.2-2.1,3.2-9-2.1
			c1.9,1.9,3.8,3.8,6,6c-2.5,2.1-4.6,3.9-6.8,5.8c0-0.1-0.1-0.3-0.1-0.4c-0.9,1.5-1.8,3-3,5c-3-3-5.6-5.5-8.1-8.2
			c-0.2-0.3,0.2-1,0.3-1.6c0.3-2.4-1.1-3.6-2.9-4.7c-1.2-0.7-2.7-1.1-3.6-2.1c-5.5-5.6-10.8-11.4-16.2-17.1c-0.9-1-2.1-1.7-3-2.8
			c7.1,3.1,10.5,10.3,16.8,14.4c-4.7-5.2-9.4-10.5-14.1-15.8c0.3-0.3,0.5-0.6,0.9-0.9c2.9,2.9,5.8,5.8,8.7,8.7
			c-6.5-12.9-17.7-21.5-27.1-31.7c9.8,6.8,19.5,13.7,25.8,24.3c-1.3-1-2.7-2.1-4-3c-0.1,0.1-0.3,0.3-0.4,0.5
			c4.4,4.4,8.8,8.8,13.3,13.3c-0.1,0.2-0.3,0.4-0.3,0.6c-1.1-0.5-2.1-1-3.1-1.5c-0.2,0.2-0.3,0.3-0.5,0.5c2.3,2.3,4.6,4.6,6.9,6.9
			c0.2-0.2,0.5-0.3,0.7-0.5c-1.1-1.5-2.1-2.9-3.1-4.3c0.3-0.2,0.5-0.4,0.8-0.6c2.2,2.5,4.4,5,6.6,7.6c0.3-0.3,0.7-0.7,1.1-1
			c-5.3-5.3-10.6-10.6-15.9-15.9c0.4-0.4,0.8-0.8,1.2-1.2c8.3,8.3,16.6,16.6,25,24.9c0.3-0.3,0.5-0.5,0.7-0.7
			c-4.1-4.1-8-8.3-12.3-12.2c-2.8-2.5-4.4-6.4-8.3-7.7c-0.2-0.1,0.1-1.6,0.2-2.4c0.3-0.1,0.7-0.2,1.1-0.3c-3-3-6-6-8.9-8.9
			c0.2-0.2,0.5-0.5,0.7-0.7c9.5,9.5,19,19,28.4,28.4c0.3-0.3,0.5-0.5,0.7-0.7c-17.4-18.2-34.9-36.3-52.4-54.6
			c2.7-2.6,3.8-0.2,4.8,1.1c1.5,2,2.3,4.6,3.9,6.4c5.8,6.1,11.8,11.9,17.8,17.9c0.2-0.2,0.5-0.4,0.7-0.6c-3.6-3.7-7.4-7.4-11.1-11.1
			c0.4-0.4,0.8-0.8,1.2-1.2c3.1,3,6.3,6,9.3,9.1c1.9,2,3.6,4.2,5.4,6.3c0.5,1.3,0.7,2.8,1.5,3.8c2.1,2.5,4.6,4.6,6.8,7
			c1.4,1.5,2.7,3.1,4,4.7C974,205.3,970.1,199.8,964.2,196.2z M964.5,178.4c-5.4-5.4-10.8-10.9-16.2-16.2c-0.2,0.2-0.5,0.5-0.7,0.7
			c2.1,2.1,4.2,4.2,6.4,6.4c-0.2,0.2-0.3,0.4-0.5,0.5c-2.4-2.4-4.8-4.8-7.2-7.2c-0.2,0.3-0.4,0.5-0.6,0.7
			C950.5,170.1,958.4,173.1,964.5,178.4z M983.7,185.2c-0.2,0.2-0.5,0.4-0.7,0.7c3.9,3.9,7.8,7.8,11.7,11.7
			C991.7,192.9,988.2,188.6,983.7,185.2z M972.5,190.4c0.2-0.2,0.4-0.4,0.7-0.6c-2.8-2.8-5.7-5.7-8.5-8.5c-0.2,0.2-0.4,0.4-0.7,0.6
			C966.9,184.7,969.7,187.6,972.5,190.4z M984.8,189.6c-0.1,0.2-0.3,0.4-0.5,0.6c4,3.9,7.9,7.9,11.8,11.8c0.2-0.2,0.3-0.4,0.5-0.5
			C992.7,197.6,988.7,193.6,984.8,189.6z"/>
		<path class="st2" d="M1030.5,138.5c-1.1-1.1-2.1-2.1-3.2-3.2c-0.1,0.1-0.2,0.2-0.3,0.3c2.5,2.5,4.9,4.9,7.4,7.4
			c0.2-0.1,0.4-0.3,0.7-0.5c-2.7-3.9-5.5-7.9-7.8-11.1c1.5,1.3,3.8,3.1,6,5c0.2-0.2,0.3-0.3,0.5-0.5c-1.1-1.3-2.3-2.6-3.4-3.8
			c0.3-0.2,0.6-0.4,0.9-0.6c1.5,2.5,2.8,5.2,4.6,7.4c1.5,1.7,3.6,2.5,6,4c-3.2-4.1-6-7.8-8.8-11.3c0.4-0.3,0.8-0.6,1.1-0.9
			c2.7,3.4,5.3,6.9,8.3,10c1.2,1.2,3.3,1.5,5,2.1c0.1,0.1,0.6-0.7,0.7-1.1c0.1-0.3-0.3-0.6-0.5-0.9c-4.2-5.7-9.4-10.3-14.7-14.8
			c-0.3,0.3-0.5,0.5-0.7,0.7c0.8,0.8,1.6,1.6,2.5,2.5c-0.2,0.3-0.5,0.6-0.7,0.9c-3.8-3.4-7.7-6.8-11.9-10.5c0.3,1.3,0.5,2.1,0.7,3.5
			c-3.2-1.7-6.4-3-8.8-5c-2.9-2.5-5.2-5.7-7.8-8.5c-2.5-2.7-5-5.2-7.5-7.8c0.5-0.5,0.9-0.9,1.3-1.3c7.2,6.2,14.2,12.5,21.4,18.7
			c0.3-0.1,0.7-0.3,0.9-0.5c-0.8-1.7-1.6-3.3-2.7-5.6c3.2,3.2,6,6,8.7,8.7c0.1-0.1,0.2-0.1,0.3-0.2c-0.7-0.9-1.3-1.9-1.9-2.7
			c0.2-0.1,0.3-0.3,0.5-0.5c8.4,8.4,16.8,16.8,26,26c-0.1-1.5-0.1-1.9-0.1-2.6c3.4,3.4,6.7,6.7,10.1,10.1c-1.7,1.7-3.2,3.2-4.8,4.8
			c-2.1-2.1-4.2-4.2-6.3-6.3c-1.6,3.6,1.3,5.2,3,7.3c0.4,0.5,0.3,2.2-0.2,2.7c-3,3-6.4,5.7-9.4,8.7c-1.1,1-1.7,2.5-2.5,3.6
			c-1.5-0.7-2.7-1.3-3.8-1.8c-0.1,0.1-0.1,0.3-0.2,0.4c0.7,0.8,1.4,1.6,2.3,2.5c-1.9,1.9-3.8,3.7-5.8,5.8c-0.8-0.7-1.6-1.4-2.5-2.1
			c-0.1,0.1-0.1,0.1-0.3,0.2c0.7,0.9,1.3,1.9,2.1,2.8c-0.2,0.3-0.3,0.5-0.5,0.8c-2.3-1.4-4.7-2.8-7.9-4.7c2.5,2.5,4.2,4.2,6.2,6.2
			c-1.6,1.6-2.9,2.9-4.4,4.4c-2.8-2.8-5.7-5.7-8.5-8.5c0.2-0.3,0.4-0.5,0.6-0.7c2,1.8,4,3.6,5.9,5.4c0.2-0.1,0.3-0.3,0.5-0.4
			c-0.7-1-1.2-2.1-2.1-2.9c-4.2-4.3-8.5-8.5-12.7-12.8c-0.9-0.9-1.5-2.1-2.1-3.1c-0.5-0.9-0.5-2.3-1.1-3c-2.7-2.9-5.6-5.7-8-8.9
			c7.4,5.6,13.4,12.9,20.3,18.9c0.2-0.2,0.5-0.4,0.7-0.6c-0.3-0.8-0.5-1.9-1.1-2.4c-2.3-2.2-4.8-4.1-7.1-6.3c-1.1-1.1-3-1.7-1.9-4.2
			c0.3-0.8-1.2-2.7-2.2-3.7c-6.2-6.3-12.3-12.7-18.8-18.7c-2.8-2.7-6.6-4.4-9.6-6.8c-1.6-1.3-2.5-3.2-3.4-5.2c2,1.6,4,3.2,6,4.7
			c0.1-0.1,0.2-0.2,0.3-0.3c-1.6-1.9-3.2-3.7-4.8-5.6c0.3-0.3,0.6-0.5,0.9-0.7c9.7,9.7,19.4,19.4,29,29c0.2-0.1,0.5-0.3,0.7-0.5
			c-0.7-1.1-1.3-2.1-1.9-3.1c0.1-0.1,0.3-0.3,0.5-0.5c3.6,3.6,7.4,7.4,11,11c0.3-0.3,0.7-0.7,1-1c-11.9-13.3-25.4-24.8-38.6-36.8
			c0.9-1.1,2-2.4,3.2-3.8c14,14,28,28,41.9,41.9c0.3-0.3,0.5-0.5,0.8-0.8c-4.3-4.3-8.6-8.6-13.4-13.4c1.1,0.5,1.7,0.5,2.1,0.9
			c3.1,2.8,6.9,4.4,9.7,8c5,6.4,11.1,11.9,16.8,17.7c0.3,0.3,0.9,0.2,2,0.4c-3-4-5.6-7.6-8.5-11.4c1,0.8,1.8,1.4,2.5,1.9
			c-3.2-5.4-7.3-10-12.8-13.1c-1.8-1-6.2-6-7.4-7.6c-1.8-2.3-4-4.2-6.2-6.3c-1.2-1.2-2.4-2.5-3.6-3.6c-0.9-0.9-1.9-1.6-2.8-2.5
			c-0.5-0.5-1-1.2-0.9-2.1c5,4.5,10,9,15,13.6c0.1-0.1,0.3-0.3,0.5-0.4c-2.1-2.1-4-4.2-6.1-6.1c-5.7-5.2-11.5-10.1-17.2-15.3
			c-2.4-2.2-4.6-4.6-6.4-7.4c13.3,9.9,24.7,21.7,36.4,33.4c0.2-0.2,0.4-0.4,0.6-0.6c-11.1-11.8-22.2-23.6-33.3-35.4
			c0.1-0.1,0.2-0.2,0.3-0.3c2.2,1.9,4.4,3.8,6.6,5.7c0.1-0.2,0.3-0.4,0.5-0.6c-2-2-4-4-6-6c0.1-0.1,0.3-0.3,0.4-0.4
			c5.5,5.5,11,11,16.5,16.5c0.2-0.2,0.3-0.3,0.5-0.5c-5.3-5.8-10.5-11.6-15.8-17.4c0.2-0.2,0.5-0.4,0.7-0.6c11,11.6,22,23.2,33,34.7
			C1030.9,138.3,1030.7,138.4,1030.5,138.5z M1051,152.2c0.1-0.1,0.3-0.2,0.5-0.3c-0.8-1.6-1.3-3.4-2.4-4.7
			c-0.7-0.8-2.4-0.8-4.5-1.5C1047,148.3,1049,150.3,1051,152.2z M1031.2,176c0.1-0.1,0.3-0.3,0.3-0.4c-1.8-1.8-3.5-3.7-5.4-5.4
			c-1.9-1.7-4-3.1-6-4.6c-0.1,0.1-0.2,0.3-0.3,0.4C1023.5,169.3,1027.4,172.7,1031.2,176z M1027.1,138.4c-0.1,0.1-0.1,0.1-0.2,0.2
			c3.8,3.8,7.6,7.6,11.3,11.3c0.1-0.1,0.1-0.1,0.2-0.2C1034.7,146,1030.9,142.2,1027.1,138.4z"/>
		<path class="st2" d="M845.1,305.7c0.7-0.3,0.1-3.1,2.4-0.7c6.4,6.8,13.3,13.1,20,19.5c0.3,0.3,1.1,0.3,1.9,0.1
			c-14-16.8-32.3-29.4-45.3-47.1c8.3,8.3,16.5,16.5,24.8,24.8c0.2-0.2,0.5-0.4,0.7-0.6c-5.9-7.1-11.8-14.2-17.7-21.3
			c0.1-0.1,0.1-0.1,0.2-0.2c0.9,0.8,1.8,1.5,2.7,2.3c0.1-0.1,0.2-0.3,0.3-0.4c-2.7-2.7-5.4-5.4-8.3-8.3c2.8,0,14,11,24.1,23.6
			c-1.9-0.9-2.9-1.3-3.9-1.8c-0.1,0.1-0.3,0.2-0.3,0.3c1.9,1.9,3.8,3.8,5.8,5.8c-0.7-0.9-1.4-1.7-2.1-2.7c0.2-0.2,0.3-0.3,0.5-0.5
			c2.7,2.7,5.3,5.3,7.9,7.9c0.2-0.3,0.5-0.5,0.7-0.7c-2.5-2.5-5-5-7.6-7.6c0.1-0.3,0.2-0.5,0.3-0.8c1.2,0.2,2.4,0.4,4.2,0.7
			c-2.5-3.2-4.6-6.2-7.2-8.7c-2.5-2.5-5.6-4.5-8.2-7c0.7,0.5,1.5,1,2.3,1.5c0.2-0.2,0.4-0.4,0.5-0.5c-4.2-4.2-8.5-8.5-12.7-12.7
			c0.2-0.2,0.4-0.4,0.6-0.7c7.6,6.6,15.2,13.3,22.7,19.9c0.1-0.1,0.1-0.1,0.1-0.1c-1.3-1.3-2.6-2.6-3.9-3.9c0.2-0.3,0.5-0.6,0.7-0.9
			c2.1,1.8,4.3,3.4,6.2,5.4c3,3.2,5.6,7,8.9,9.8c3.2,2.7,7.2,4.6,11.3,7.2c-5.2-5.2-10.2-10.2-15.2-15.2c0.3-0.3,0.5-0.5,0.8-0.8
			c2.9,2.9,5.8,5.8,8.7,8.7c2.8,2.8,5.8,5.5,8.4,8.5c1.7,1.9,2.9,4.3,4.5,6.4c1.1,1.4,2.4,2.7,3.8,3.8c1.3,1.1,2.9,2.1,4.6,3.3
			c-2.3,2.3-4.3,4.3-6.4,6.4c-2.5-2.2-4.9-4.3-7.4-6.5c-0.2,0.3-0.5,0.5-0.7,0.7c2.3,2.3,4.5,4.5,6.7,6.7
			c-6.4,6.4-12.6,12.6-19.2,19.2c-10.9-10.9-22-22-33.1-33.1c0.1-0.2,0.3-0.5,0.5-0.7c0.9,0.1,1.7,0.1,2.8,0.2
			c-3.4-3.4-6.5-6.5-9.7-9.7c0.2-0.2,0.3-0.5,0.5-0.7c3.6,2.5,8.3,4.3,10.3,7.7c1.9,3,4.4,4.6,6.6,7c0.3,0.3,0.8,0.3,1.7,0.6
			c-8.8-12.5-22.1-19.5-31.5-30.8c2.4,1.9,4.8,3.9,7.2,5.7c2.3,1.7,4.8,3.1,7.2,4.7c0.6,0.4,1.2,0.7,1.7,1.2
			c6.1,5.8,12.2,11.6,18.4,17.3c2.6,2.4,5.4,4.6,8,7c3.4,3.2,6.7,6.7,10.1,9.9c0.9,0.8,1.9,1.3,3.3,1.4c-4.9-4.9-10-9.7-14.7-14.8
			c-2.8-3.1-6.4-5.8-7.6-10.2c-0.1-0.4-0.5-0.8-0.8-1.1c-3-3.3-5.8-6.7-8.9-9.9c-5.2-5.3-10.4-10.5-15.6-15.6c-1-1-2.1-1.9-3.2-2.8
			c0.3-0.3,0.7-0.7,1-1C828.6,289.2,836.8,297.4,845.1,305.7c4.3,4.2,8.5,8.5,12.8,12.8c0.3-0.3,0.6-0.7,0.9-1
			C854.3,313.5,849.7,309.6,845.1,305.7z M847.7,321.8c-0.1,0.1-0.1,0.1-0.2,0.3c3.6,4.6,7.3,9.2,11.1,13.7c1.1,1.3,2.7,2.1,4.1,3
			c0.3-0.3,0.6-0.7,0.9-1.1C858.2,332.4,853,327.1,847.7,321.8z M861,303.7c-0.1,0.1-0.3,0.3-0.3,0.4c5.5,5.5,10.9,10.9,16.4,16.4
			c0.1-0.1,0.3-0.3,0.4-0.4C872,314.7,866.5,309.2,861,303.7z M867.3,326.2c-0.2,0.2-0.5,0.5-0.7,0.7c3.3,3.3,6.6,6.6,9.8,9.8
			c0.2-0.2,0.5-0.5,0.7-0.7C873.8,332.8,870.6,329.5,867.3,326.2z M861.4,332.9c0.1,0,0.1-0.1,0.1-0.1c-3-3.4-6-6.9-9.1-10.4
			c-0.3,0.3-0.5,0.5-0.8,0.7C854.9,326.4,858.1,329.6,861.4,332.9z"/>
		<path class="st2" d="M1105.5,103.7c0.9,1.9,1.4,3,1.9,4.2c-1.6,1.6-3.2,3.2-5.4,5.4c-1.7-2.2-3.3-4.2-5-6.2
			c-1.7-1.9-3.4-3.7-5-5.6c-0.3,0.3-0.6,0.6-0.9,0.9c1.7,1.7,3.3,3.3,5,5c-0.2,0.2-0.4,0.3-0.6,0.5c-5.2-5.2-10.3-10.3-15.6-15.6
			c0.1-0.2,0.3-0.4,0.5-0.6c1.2,1.2,2.5,2.5,3.6,3.6c0.3-0.2,0.5-0.4,0.7-0.7c-2.1-4.2-6-6.8-9.1-10.1c-3.2-3.4-6.8-6.6-10.1-9.9
			c-3.2-3.2-6.3-6.5-9.5-9.7c-3-3.1-7.8-4.4-9.9-8.5c0.2-0.3,0.5-0.5,0.7-0.7c2.1,2.1,4,4.4,6.4,6.3c2.9,2.3,6.3,4.1,9.3,6.3
			c1.5,1.1,2.7,2.7,4,4.1c3.3,3.6,6.6,7.2,9.9,10.9c1.9,2.1,3.7,4.2,5.5,6.2c0.3-0.2,0.5-0.5,0.8-0.7c-5.8-6.8-11.5-13.5-17.2-20.3
			c0.4-0.4,0.9-0.8,1.3-1.2c7,8.4,14.6,16.2,23.3,22.8c-5.8-6.2-11.8-12.1-15.8-19.7c6.4,5.4,12.8,10.9,19.2,16.2
			c0.3-0.2,0.5-0.5,0.7-0.7c-5.8-7.1-14.1-11.7-19.4-19.4c-5-7.3-12.5-12.2-18.9-18.8c3.2-0.7,3.2,5.3,7.4,2.5
			c8.1,8.1,16.4,16.4,24.7,24.7c0.2-0.2,0.4-0.4,0.6-0.6c-3.8-4.3-7.6-8.7-11.5-13c0.1-0.1,0.2-0.2,0.3-0.3c1.8,1.8,3.6,3.6,5.4,5.4
			c0.3-0.3,0.5-0.5,0.8-0.8c-3.2-3.2-6.5-6.5-9.7-9.7c0.2-0.2,0.5-0.4,0.7-0.6c4.2,4.2,8.5,8.5,13.4,13.4c-1.3-0.7-1.9-1-2.4-1.3
			c-0.2,0.1-0.4,0.3-0.5,0.5c0.9,0.9,1.6,2.1,2.6,2.8c2.3,1.7,4.9,2.9,7.1,4.8c2.5,2.1,4.8,4.5,7,7c4.6,4.8,9.1,9.7,13.5,14.7
			c0.5,0.6,0.3,2.4-0.2,3.2c-0.8,1.3-2.1,2.2-3.3,3.4c-1.9-1.9-3.6-3.6-5.6-5.6c-0.5,3.4,5.9,3.8,2.8,8.1
			C1107.7,105.6,1106.9,104.9,1105.5,103.7z"/>
		<path class="st2" d="M1064.8,150.5c-6.1-6.1-12-12-17.9-17.9c-0.2,0.2-0.4,0.4-0.6,0.5c0.7,0.8,1.5,1.7,2.2,2.5l0.1-0.1
			c-9.3-9.3-18.8-18.8-28.1-28.1c0.3-0.3,0.6-0.6,0.9-0.9c0.9,0.7,1.9,1.5,2.8,2.1c0.2-0.2,0.5-0.4,0.7-0.7
			c-5-5.6-10.5-10.7-16.3-15.9c0.6-0.6,1.3-1.3,2.1-2.1c2.8,3.3,5.4,6.6,8.2,9.8c3.2,3.7,6.4,7.4,9.9,10.9
			c11.5,11.4,23.3,22.7,34.9,33.9c0.3,0.3,0.7,0.6,1.5,0.4c-13.3-14.6-26.6-29.2-40-43.7c0.1-0.1,0.2-0.2,0.3-0.3
			c4.9,4.9,9.9,9.9,14.8,14.8c0.2-0.2,0.4-0.3,0.6-0.5c-0.7-0.9-1.5-1.9-2.2-2.8c0.1-0.1,0.3-0.3,0.4-0.5c2.1,2.1,4,4,6.1,6.1
			c0.1-0.1,0.3-0.3,0.5-0.4c-0.9-1.3-1.7-2.7-2.7-3.8c-5.2-5.4-10.5-10.6-15.8-15.9c-4-4-8-8-12.3-12.3c0.4-0.5,0.9-1.3,1.7-2.4
			c3.8,3.8,7.3,7.3,10.8,10.8c0.1-0.1,0.3-0.3,0.5-0.5c-2.3-2.6-4.5-5.2-6.8-7.8c0.1-0.1,0.3-0.3,0.4-0.5c1.3,0.9,2.5,1.9,3.8,2.7
			c2.2,1.5,4.5,2.8,6.5,4.5c1.7,1.5,2.8,3.8,4.5,5.3c3.6,3.3,7.6,6.4,11.3,9.5c0.9,0.7,1.7,1.7,2.1,2.8c-1.4-1.2-2.8-2.4-4.2-3.6
			c-0.2,0.1-0.3,0.3-0.5,0.5c0.2,0.5,0.4,0.9,0.7,1.3c1.9,2.1,3.8,4,5.4,6.8c1.3,2.4,4.1,4.5,6.1,7.2c2.9,4,7.2,6.9,11.1,10.3
			c-0.3-0.7-0.5-1.3-0.7-2c0.1-0.1,0.3-0.3,0.5-0.5c2.9,2.5,5.8,5,8.9,7.6c-1.3,1.3-2.5,2.5-3.7,3.7c-4-4-7.8-7.8-11.7-11.7
			c-0.2,0.2-0.4,0.4-0.6,0.6c3.8,3.8,7.8,7.8,11.5,11.5c-2,4.4-3.2-0.3-5.2,0.1c0.7,1.3,1.4,2.3,2.1,3.5
			C1068,147.3,1066.5,148.8,1064.8,150.5z M1050.8,124.8c3.8,6.7,9.7,11.6,15.1,16.8c0.3-0.3,0.6-0.6,0.9-0.9
			C1061.5,135.5,1056.2,130.1,1050.8,124.8z M1029,95.1c-0.1,0.2-0.3,0.4-0.5,0.5c2.7,2.3,5.3,4.5,8,6.8c0.3-0.4,0.6-0.8,0.9-1.1
			C1034.7,99.2,1031.8,97.1,1029,95.1z"/>
		<path class="st2" d="M929.7,223.9c1.7-2.6,0.7-4.5-1.1-6.3c-5.7-5.6-11.5-11.1-17.2-16.7c-1-1-1.8-2.1-2.3-3.6
			c5.3,5.3,10.5,10.5,15.8,15.8c0.2-0.2,0.4-0.4,0.6-0.6c-2.1-2.1-4.2-4.2-6.3-6.3c-2.2-2.2-4.3-4.4-6.6-6.4
			c-1.7-1.6-3.6-2.9-5.3-4.5c-0.4-0.3-0.4-1.1-0.6-1.7c0.6,0,1.3-0.3,1.7,0c1.2,0.7,2.3,1.5,3.4,2.4c4,3.6,7.9,7.3,11.9,10.8
			c0.6,0.5,1.8,0.3,2.9,0.5c-1.6,3.9,2.8,2.7,4.2,4.4c1,1.3,2.7,1.9,3.6,3c0.9,1.2,1.3,2.8,1.2,4.6c1.7,1.1,3.5,2.1,5.5,3.4
			c0.3-0.7,0.5-1.5,0.8-2.3c0.5,0.3,1.1,0.7,1.7,1c0.2-0.3,0.5-0.5,0.7-0.7c-5.9-5.4-11.8-10.7-17.7-16.1c7.3,2,10.2,10,17.6,12.8
			c3.5,3.5,7.6,7.6,11.6,11.6c0.3-0.3,0.5-0.5,0.8-0.7c-1.8-2.1-3.5-4.1-5.3-6.2c0.3-0.2,0.5-0.4,0.7-0.6c3.3,3.3,6.6,6.6,9.9,9.9
			c0.3-0.3,0.6-0.5,0.9-0.8c-2.4-2.5-4.8-5-7.2-7.6c-2.5-2.7-4.8-5.6-6.9-8.5c1.9,1.5,3.7,3.1,5.6,4.6c0.1-0.1,0.3-0.3,0.5-0.3
			c-0.2-0.6-0.5-1.2-0.9-2.5c2,2,3.6,3.6,5.2,5.2c-0.1,0.1-0.2,0.3-0.3,0.3c-0.7-0.6-1.5-1.1-2.2-1.7c-0.2,0.3-0.5,0.7-0.7,1.1
			c2.7,1.6,5.4,3.2,8,4.8c-0.1,0.2-0.2,0.4-0.3,0.6c-0.8-0.5-1.6-1.1-2.4-1.6c-0.1,0.1-0.3,0.3-0.5,0.5c3,3,6,6,9.3,9.3
			c-0.7-0.2-1-0.3-2.2-0.7c2.5,2.5,4.5,4.5,6.5,6.5c-0.3,0.3-0.5,0.5-0.7,0.8c-2.2-2.2-4.4-4.4-6.6-6.6c-0.2,0.3-0.5,0.5-0.7,0.7
			c2.1,2.1,4.3,4.3,6.6,6.6c-3.1,3-5.9,5.9-8.9,8.9c-5.6-5.6-11.3-11.3-16.9-16.9c-0.3,0.3-0.6,0.5-0.9,0.7
			c5.1,6.2,11.9,11.3,15.1,18.8C950.9,243.7,940.2,233.8,929.7,223.9z"/>
		<path class="st2" d="M788.1,343.4c11.3,10.6,22.7,21.2,34,31.7c0.2-0.1,0.4-0.3,0.6-0.5c-0.3-0.7-0.4-1.5-0.9-1.9
			c-3-3.3-6.2-6.6-9.1-9.9c-1.1-1.3-1.7-3-2.7-4.4c-0.4-0.6-1.2-0.9-1.9-1.3c-0.5-0.3-1.2-0.6-1.6-1c-1.9-1.9-3.6-3.8-5.4-5.8
			c-3-3.2-6.4-5.9-7.4-10.9c-0.7-2.9-4-5.3-6.3-7.8c-2.1-2.3-4.6-4.4-6.7-6.8c-0.9-0.9-1.3-2.2-1.7-3.4
			c12.6,9.5,21.1,23.2,34.7,32.9c-0.4-1.8-0.5-2.3-0.7-2.9c0.2-0.1,0.4-0.3,0.7-0.5c5.2,4.8,10.3,9.7,15.4,14.5c2.7,2.5,5.2,5,8,7.4
			c1.7,1.4,2.2,2.5-0.2,4.2c-4.5-4-9.1-8.2-13.7-12.3c-0.2,0.1-0.3,0.3-0.5,0.3c1.7,2.6,3,5.4,5,7.7c2.1,2.3,4.8,3.9,7.4,6
			c-0.7,0.9-1.3,1.6-2.1,2.5c-2.3-2.3-4.6-4.6-6.8-6.8c-0.2,0.2-0.5,0.4-0.7,0.6c2.1,2.1,4.2,4.2,6.6,6.6c-2.8,2.8-5.2,5.2-7.8,7.8
			c-3.8-3.8-7.8-7.8-11.8-11.8c-0.1,0.1-0.3,0.3-0.5,0.5c3.4,3.4,6.8,6.8,10.2,10.1c1.3,1.3,2,2.3,0.1,3.2c-7.1-7.1-14-14-20.9-20.9
			c0.1-0.3,0.3-0.5,0.5-0.7c2.6,1.8,5.1,3.6,7.8,5.4c-4.2-4.7-8.3-9.3-12.5-13.9c0.1-0.1,0.3-0.3,0.5-0.3c5.1,4.3,10.2,8.7,15.2,13
			c0.2-0.2,0.3-0.3,0.5-0.5c-5.2-5.2-10.4-10.4-15.7-15.7c-1.7,2.1-2.8,1.5-3.7-0.5c-2.1-4.6-4.4-9.1-6.6-13.6
			C787.7,343.7,787.9,343.5,788.1,343.4z M815.3,359.2c-0.1,0.2-0.3,0.3-0.4,0.5c2.3,2.3,4.6,4.6,6.9,6.9c0.1-0.1,0.3-0.3,0.5-0.5
			C819.9,363.8,817.6,361.5,815.3,359.2z"/>
		<path class="st2" d="M802.5,320.9c-0.6-0.8-1.2-1.5-1.9-2.3c0.1-0.1,0.3-0.2,0.5-0.3c3.4,4.2,6.7,8.5,10.1,12.7
			c0.4-0.3,0.8-0.7,1.2-1c-4.4-5.5-8.8-10.9-12.9-16.1c0.1,0.1,0.7,0.5,1.3,0.9c0.1-0.1,0.1-0.2,0.3-0.3c-0.6-0.7-1.2-1.5-1.9-2.3
			c0.3-0.1,0.5-0.1,0.6-0.1c3.2,2.8,6.6,5.6,9.6,8.6c1,1,1.3,2.6,2,4c0.2,0.4,0.2,1,0.5,1.3c3.4,3.4,6.8,6.8,10.9,9.8
			c-0.3-0.7-0.5-1.5-0.8-2.2c6.2,6.2,12.4,12.4,18.6,18.6c-0.1,0.2-0.2,0.3-0.3,0.5c-0.6-0.2-1.2-0.5-1.8-0.7
			c-0.1,0.1-0.2,0.3-0.3,0.3c4.4,3.8,8.8,7.6,13.4,11.4c-3.4,3-6.8,6-9.9,8.7c-14.4-8.7-25.5-20.9-34.9-33.5
			c3.3,2.8,7.4,6.2,11.5,9.7c0.3-0.3,0.6-0.7,0.9-1.1c-6-6-12-12-18-18c0.3-0.3,0.5-0.5,0.9-0.9c8.4,8.4,16.8,16.8,25.2,25.2
			c0.3-0.3,0.6-0.5,0.9-0.7c-2.3-3.4-4.2-7.2-7-10.2c-7.7-8.2-15.8-16-23.7-23.9c0.2-0.3,0.5-0.5,0.7-0.7c1.5,0.9,2.8,1.7,4.3,2.7
			C802.2,321.2,802.4,321,802.5,320.9z M840.2,360.7c0.3-0.3,0.6-0.5,0.9-0.7c-8.2-8.2-16.5-16.5-25.4-25.4
			C824.5,343.5,830.5,353.8,840.2,360.7z"/>
		<path class="st2" d="M859.1,356.1c-0.7,0.7-1.5,1.5-2.5,2.5c-2.4-2.4-4.8-4.8-7.3-7.3c-0.1,0.1-0.3,0.3-0.5,0.5
			c2.3,2.3,4.7,4.7,7.2,7.2c-1.2,1.2-2.3,2.3-3.3,3.3c-14.5-14.5-29.1-29.1-43.7-43.7c0.1-0.1,0.3-0.3,0.4-0.5
			c6.2,5.2,12.3,10.3,18.4,15.5c0.1-0.1,0.1-0.3,0.2-0.3c-4.6-5-9.1-10.1-13.8-15.2c0.3-0.3,0.6-0.7,0.9-1c2.8,2.2,5.8,4.4,8.7,6.6
			c0.1-0.6,0.1-1.2,0.3-2.7C836,333,847.5,344.5,859.1,356.1z M829.2,333.5c2.9,2.9,5.7,5.7,8.5,8.5
			C830.7,332.8,830.7,332.8,829.2,333.5z"/>
		<path class="st2" d="M895.2,317.8c-1.8-2-3.5-4-5.4-5.9c-5-5.1-10-10.3-15.3-15.2c-4.8-4.4-8-10.1-11.7-15.4
			c-0.8-1.1-1.9-2.1-2.8-3.2c-0.9-1.2-3.2-1.8-1.8-4c0.1-0.1-0.9-0.7-1.3-1.2c-3.8-3.8-7.6-7.6-11.3-11.3c0.2-0.2,0.4-0.4,0.6-0.6
			c5,5,9.9,9.9,15.2,15.2c-1-0.1-1.6-0.2-2.4-0.3c1.2,1.2,2.3,2.3,3.5,3.5c0.1-0.9,0.1-1.5,0.2-2.5c4.4,4.4,8.6,8.6,12.9,12.9
			c0.2-0.2,0.5-0.4,0.7-0.7c-10.1-10.1-20.3-20.3-30.5-30.5c0.3-0.3,0.6-0.6,0.9-0.9c2.3,2.3,4.4,4.4,6.7,6.7
			c3.8,3.7,7.5,7.5,11.2,11.2c7,7,14,14,21,21c1.9,1.9,4.1,3.4,6.1,5.2c0.5,0.4,0.3,1.3,0.5,2.1c-0.3,0.2-0.5,0.5-0.7,0.7
			c2.8,1.3,5.6,2.6,8.5,4c0.1-0.4,0.2-1,0.3-1.9c1.4,1.4,2.7,2.7,4.1,4.1c-2.3,2.3-4.4,4.6-6.8,6.6
			C897.2,318.1,896,317.7,895.2,317.8L895.2,317.8z M896,312c0.1-0.1,0.3-0.1,0.3-0.1c-4.1-4.1-8.2-8.2-12.3-12.3
			c-0.1,0.1-0.1,0.2-0.3,0.3C887.9,303.9,892,308,896,312z"/>
		<path class="st2" d="M931.1,245.8c0.5-0.3,0.9-0.7,1.4-1.2c2.8,2.8,5.6,5.6,8.5,8.5c0.1-0.1,0.3-0.3,0.5-0.4
			c-2.8-3.2-5.7-6.4-8.6-9.6c0.1-0.1,0.1-0.2,0.2-0.3c3.1,3.1,6.2,6.2,9.3,9.3c0.2-0.2,0.5-0.4,0.7-0.7c-1.1-1.2-2.1-2.4-3.2-3.5
			c0.1-0.2,0.3-0.3,0.5-0.5c1.7,1.6,3.5,3.1,5.2,4.8c2.9,2.8,5.8,5.8,8.8,8.8c-2.2,2.2-4.3,4.3-6.6,6.6c-0.7-0.7-1.5-1.3-2.3-2
			c-5.5-5.5-11.1-10.9-16.4-16.5c-8.7-9.3-17.4-18.6-26-28c-3.7-4-7.2-8.2-10.9-12.4c1.5-2.4,3-2.8,5.1-0.5c3,3.3,6.4,6.3,9.5,9.6
			c2.8,2.9,5.3,6,7.8,9.3c-4-3.4-8-6.8-12-10.2c-0.3,0.3-0.5,0.7-0.8,0.9c2.9,1.7,3.9,5.8,8.2,6.2c0.7,0.1,1.2,1.9,1.9,2.7
			c4.7,5.2,8.7,11.1,15.6,14C929,241.5,929.9,244,931.1,245.8c3.9,5.2,8.2,10.2,13.5,13.9c-2.5-3.3-5-6.5-7.9-9.3
			C935.1,248.6,933.1,247.3,931.1,245.8z"/>
		<path class="st2" d="M1126.4,89.2c-2.1-2.1-3.9-3.9-5.8-5.8c-0.3,0.3-0.5,0.5-0.9,0.7c0.8,0.8,1.5,1.6,2.3,2.3
			c1.1,0.9,2.1,1.8,3.4,2.8c-2,2-3.8,3.8-5.8,5.8c-3.6-3.6-7.4-7.4-11-11c-0.2,0.2-0.5,0.4-0.7,0.6c3.4,4,6.9,8,10.3,12
			c-0.3,0.3-0.5,0.5-0.9,0.7c-12.9-12.5-25.3-25.4-36.8-39.2c0.4-0.4,0.8-0.7,1.2-1.1c5.7,5.7,11.3,11.3,17,17
			c0.2-0.1,0.4-0.3,0.6-0.4c-0.7-1.2-1.3-2.5-2.5-4.5c3.7,3.7,6.8,6.8,9.9,9.9c0.1-0.1,0.3-0.3,0.5-0.5c-4.5-4.5-8.9-8.9-13.5-13.5
			c5.2,0.7,6.1,5.9,9.5,8.4c3.4,2.5,6.8,5.1,10.4,7.6c-2.8-3.2-5.6-6.4-8.3-9.5c0.2-0.2,0.3-0.3,0.5-0.5c3.6,3.6,7.2,7.2,10.7,10.7
			c0.2-0.1,0.4-0.3,0.5-0.5c-1.3-1.3-2.5-2.5-4.2-4.2C1118.6,78.6,1127.2,86.4,1126.4,89.2z"/>
		<path class="st2" d="M1038.9,95.6c3.4,3.4,6.7,6.7,10.1,10.1c0.2-0.2,0.5-0.4,0.7-0.5c-2.5-2.5-5.1-5.1-7.7-7.7
			c0.2-0.2,0.5-0.5,0.7-0.7c1.3,1.1,2.7,2.3,4,3.4c0.2-0.3,0.5-0.5,0.7-0.7c-3.2-3.2-6.4-6.4-9.6-9.6c0.3-0.2,0.5-0.5,0.7-0.7
			c6.1,6.1,12.3,12.3,18.4,18.4c-0.2,0.3-0.4,0.5-0.7,0.7c-2.6-2.6-5.2-5.2-7.7-7.7c-0.2,0.3-0.5,0.5-0.7,0.7
			c4.2,4.2,8.5,8.5,12.7,12.7c0.1,0,0.1-0.1,0.1-0.1c-0.8-1-1.6-2-2.4-3c0.1-0.1,0.3-0.3,0.4-0.5c3.3,3.3,6.6,6.6,9.9,9.9
			c0.3-0.2,0.5-0.4,0.7-0.6c-3.8-4.2-7.6-8.5-11.4-12.9c0.3-0.3,0.6-0.6,0.9-0.9c8.3,8.3,16.6,16.6,25.1,25.1c-2.1,2.1-4,4-5.8,5.8
			c-13.5-13.5-26.9-26.9-40.3-40.3C1038.2,96.2,1038.6,95.9,1038.9,95.6z"/>
		<path class="st2" d="M917.1,220.2c-3-3-6-5.8-8.8-8.9c-1.5-1.7-4.6-2.5-3.3-6c0.2-0.5-1.7-1.8-3-3.1c0.2,1.3,0.4,2.1,0.5,3
			c-0.2,0.1-0.5,0.1-0.7,0.3c-0.7-1.7-1.3-3.2-2.1-4.9c0.3-0.3,0.7-0.5,0.9-0.7c0.8,0.5,1.7,0.8,2.4,1.5c2.7,2.5,5.3,5,7.8,7.8
			c0.7,0.7,0.6,2.2,1.1,3.1c0.7,1.2,1.5,2.3,2.5,3.2c5.8,5.8,11.7,11.7,17.6,17.4c2.7,2.7,5.8,5,8.6,7.5c0.2-0.3,0.4-0.5,0.7-0.7
			c-4.8-4.8-9.6-9.6-14.4-14.4c0.1-0.1,0.1-0.2,0.2-0.3c4.7,3.8,9.7,7.4,14.1,11.6c4.8,4.6,9.1,9.7,13.7,14.6
			c0.3,0.3,0.5,0.5,0.8,0.7c4.4,3.6,4.3,4.4-0.7,8.3c-0.8-0.8-2-1.5-2.3-2.4c-2-5.2-7.2-7.2-10.5-11.2c-4.8-5.7-10.5-10.7-15.7-16
			c-2.5-2.5-4.8-5-7.4-7.3c-0.7-0.6-2.1-0.3-2.8-0.8c-1.6-1.3-3-2.7-4.4-4.2c-0.9-0.9-1.9-2.8-2.6-2.7c-3.3,0.4-4-3.2-6.5-3.8
			c-0.2-0.1-0.2-1-0.4-2.1c5,3.9,9.5,7.6,14,11.1C916.7,220.6,916.9,220.4,917.1,220.2z"/>
		<path class="st2" d="M1038.8,61.8c1.5,1.5,2.9,3,4.4,4.4c3.8,3.6,7.9,7,11.6,10.7c1.9,1.9,3,4.6,4.8,6.6
			c4.4,4.8,8.9,9.3,13.4,13.9c3.1,3.2,6.1,6.8,9.3,9.9c2,1.9,4.6,3,6.8,4.7c2.7,1.9,5.2,4,7.9,6.1c-1.9,1.9-3.6,3.6-5.6,5.6
			c-12.6-12.6-25.2-25.2-37.8-37.8c0.2-0.2,0.4-0.4,0.5-0.6c7.2,6.4,14.4,12.9,21.7,19.4c0.1-0.1,0.3-0.3,0.5-0.5
			c-12.7-13.9-25.5-27.8-38.2-41.6C1038.4,62.3,1038.6,62,1038.8,61.8z"/>
		<path class="st2" d="M833.3,326.3c1.5,1.5,2.9,2.9,4.4,4.4c0.1-0.1,0.3-0.3,0.4-0.5c-3.4-3.4-7-7-10.5-10.5
			c-0.7-0.7-1.9-1.3-1.9-2.1c-0.3-4.2-4-5.1-6.4-7.3c-2.1-1.9-3.6-4.5-5.3-6.8c-0.2,0.2-0.5,0.3-0.7,0.5c1.3,1.3,2.5,2.5,3.7,3.7
			c-0.2,0.2-0.4,0.4-0.6,0.7c-1.4-1.4-2.7-2.7-4.1-4.1c-1.5-1.5-3-3-4.5-4.5c0.1-0.1,0.3-0.3,0.4-0.5c0.9,0.9,1.9,1.9,2.8,2.8
			c0.2-0.2,0.5-0.5,0.7-0.7c-2.1-2.1-4.2-4.2-6.4-6.4c0.2-0.3,0.4-0.5,0.7-0.7c0.7,0.6,1.5,1.1,2.2,1.8c13.3,13.3,26.7,26.6,40,40
			c3.5,3.6,6.4,7.7,9.7,11.5c0.9,1.1,2.3,1.7,3.1,2.8c0.6,0.8,0.7,1.9,0.9,2.9c-1.1,0-2.7,0.5-3.2,0c-2.1-2-3.7-4.5-5.8-6.6
			c-3.4-3.4-7.2-6.4-10.6-9.7c-3.4-3.2-6.7-6.6-10-10C832.6,327.1,832.9,326.7,833.3,326.3z"/>
		<path class="st2" d="M1039.6,82c3.6,3,7.2,6,10.7,9.3c8,7.6,16,15.2,23.9,22.9c4.4,4.3,8.8,8.7,13.2,13.2
			c-0.2,0.5-0.3,1.1-0.5,1.6c-0.9,0-2.3,0.4-2.8-0.1c-7-6.8-13.9-13.5-20.5-20.5c-4.3-4.5-8.2-9.5-12.4-14.2
			c-1.9-2.1-4.3-3.6-6.4-5.6c-2-1.9-3.8-4.1-5.6-6.2C1039.3,82.3,1039.5,82.1,1039.6,82z"/>
		<path class="st2" d="M1092.3,106.9c-1.3-1.1-2.6-2.3-3.8-3.4c-0.3,0.2-0.5,0.5-0.7,0.7c1.4,1.4,2.9,2.7,4.2,4.2
			c1.2,1.5,1.7,4,3,4.6c2.1,0.9,3.6,1.5,3.1,4.1c-4.4-4.8-10.6-7.8-13.3-14.3c-0.3-0.8-1.2-1.5-1.9-2.1
			c-5.3-5.4-10.7-10.7-15.5-15.5c0.1-1.3,0.4-2.4,0-2.8c-1-1.3-2.3-2.4-3.4-3.5c-4.8-4.8-9.7-9.7-14.6-14.6c0.5-0.5,0.9-0.9,1.4-1.3
			c2.8,3.4,5.3,7,8.5,10c3.1,2.9,7,5.1,10.3,8c-0.5-0.1-1-0.3-2.5-0.7c9.1,9.1,17.5,17.5,25.9,25.9
			C1092.8,106.5,1092.6,106.7,1092.3,106.9z"/>
		<path class="st2" d="M842.4,271.3c1.6,1.6,3.2,3.2,4.8,4.8c0.3-0.3,0.5-0.5,0.7-0.8c-2.7-1.2-2.5-5.1-6.2-5.5
			c-0.7-0.1-1.3-1.1-1.8-1.7c-0.9-1.4-1.7-2.9-2.3-4.4c-0.1-0.4,0.5-1.1,1-2.2c10,12.1,23.1,20.7,31.9,33.3
			c-0.3,0.3-0.5,0.5-0.7,0.7c-5.9-5.9-11.8-11.8-17.7-17.7c-0.3,0.3-0.7,0.7-1,0.9c3.6,3.6,7.2,7.2,10.8,10.8c-0.3,0.3-0.7,0.7-1,1
			C854,284.8,848,278.2,842.4,271.3z"/>
		<path class="st2" d="M957.8,142.8c1.3-1.4,2.5-2.5,3.8-3.8c0.5,7.6,7.8,9.7,11.1,14.9c0.3-0.2,0.5-0.5,0.8-0.7
			c-3.4-3.4-6.8-6.8-10.1-10.1c0.4-0.4,0.7-0.7,1.1-1.1c6.4,4.9,10.5,12.2,16.6,17.4c-0.3,0.3-0.5,0.5-0.7,0.7
			c-0.8-0.6-1.5-1.3-2.8-2.3c0.6,1.2,0.9,1.9,1.3,2.5c-0.3,0.2-0.5,0.5-0.7,0.7c-1.7-1.7-3.4-3.6-5.2-5.2c-4.1-3.6-8.3-7-12.5-10.6
			C959.4,144.6,958.7,143.7,957.8,142.8z"/>
		<path class="st2" d="M950.1,213.1c-1.7-1.7-3.2-3.2-4.9-4.9c-0.1,0.1-0.3,0.3-0.5,0.4c0.8,0.9,1.5,1.9,2.3,2.8
			c-0.1,0.1-0.2,0.1-0.3,0.2c-9.6-9.6-19.3-19.3-28.9-28.9c0.3-0.5,0.7-0.9,1.1-1.4c1.3,0.9,3.8,1.8,3.8,2.8c0.3,3.4,3.1,4,5,5.8
			c1.3,1.2,2.5,2.5,3.5,4c-0.9-0.5-1.7-1.1-2.8-1.8c4,4,7.6,7.6,11.3,11.3c0.1,0,0.1-0.1,0.1-0.1c-1.1-1.4-2.3-2.8-3.3-4.2
			c0.2-0.1,0.4-0.3,0.5-0.5c4.6,4.6,9.1,9.1,13.7,13.7C950.6,212.6,950.4,212.8,950.1,213.1z"/>
		<path class="st2" d="M832.4,314.9c-8.1-7.3-16.1-14.6-24.4-22.1c0.9-0.9,1.5-1.5,1.9-1.9c3.8,3.3,6,8.2,11.5,9.5
			c1.6,0.4,2.5,3.2,3.8,4.8c1.6,2,3.2,3.9,4.8,5.8c1,1.1,2.2,1.8,3.3,2.7C833.1,314,832.8,314.5,832.4,314.9z"/>
		<path class="st2" d="M929.9,199.2c-1.7-1.7-3.8-3.8-6-6c0.4-0.3,0.7-0.7,1.1-1c7.3,8,14.5,16,21.4,23.7c-2.2-1.1-5.2-2.1-7.5-3.9
			c-3.6-2.9-6.6-6.5-9.8-9.9C929,201.7,929.6,200.6,929.9,199.2z"/>
		<path class="st2" d="M994.8,159.6c-0.9-0.1-1.9,0.1-2.4-0.3c-3.4-2.9-6.9-5.6-9.9-8.9c-5-5.4-9.7-11.3-14.2-17.3
			C977,141.8,985.7,150.5,994.8,159.6z"/>
		<path class="st2" d="M1012.1,173.8c-12.7-12.7-25.4-25.4-38.2-38.2c0.1-0.1,0.3-0.3,0.5-0.5c12.7,12.7,25.4,25.4,38.2,38.2
			C1012.4,173.5,1012.3,173.7,1012.1,173.8z"/>
		<path class="st2" d="M865,350.7c-0.7-0.3-1.7-0.3-2.2-0.7c-6.8-7.1-13.7-14.2-20.3-21.4c-1.5-1.7-2.9-3.5-4.1-5.4
			c8.9,8.9,18,18,26.9,26.9C865.2,350.2,865.1,350.4,865,350.7z"/>
		<path class="st2" d="M788.4,312.2c10.6,10.6,21.2,21.2,31.9,31.9c-0.3,0.3-0.5,0.5-0.7,0.7c-10.6-10.6-21.2-21.2-31.9-31.9
			C787.9,312.7,788.1,312.5,788.4,312.2z"/>
		<path class="st2" d="M987.9,147.3c-5.3-6.2-10.6-12.3-15.9-18.5c0-0.3,0-0.7,0-1c1,0.1,2.7-0.1,2.8,0.2
			C977.7,135.6,985,139.9,987.9,147.3z"/>
		<path class="st2" d="M807.6,379c4.5,4.5,9,9,13.7,13.7c-0.6,1.7-1.5,2.6-3,0.7c-3.7-4.6-7.4-9.3-11.1-14
			C807.3,379.2,807.4,379.1,807.6,379z"/>
		<path class="st2" d="M1034,67c5.3,5.8,10.7,11.7,16,17.4c-0.2,0.2-0.4,0.4-0.6,0.6c-5.6-5.6-11.1-11.1-16.7-16.7
			C1033.1,67.9,1033.5,67.4,1034,67z"/>
		<path class="st2" d="M895.2,317.8c-0.3,1-0.5,2-0.7,2.8c-6-6-12.1-12.1-18.2-18.2c0.2-0.3,0.5-0.5,0.7-0.8
			c0.6,0.4,1.3,0.7,1.7,1.1c4.2,4.5,8.3,9.1,12.7,13.5C892.1,317.1,893.8,317.3,895.2,317.8L895.2,317.8z"/>
		<path class="st2" d="M1075.1,108.7c5.2,5.2,10.5,10.5,15.7,15.7c-0.1,0.2-0.3,0.3-0.5,0.5c-5.4-5-10.9-9.9-16.4-14.9
			C1074.3,109.6,1074.7,109.2,1075.1,108.7z"/>
		<path class="st2" d="M1002.2,130c-5.4-3.2-15-13.5-15.4-15.4C991.8,119.6,997.1,124.8,1002.2,130z"/>
		<path class="st2" d="M794.8,329.7c8.4,4.3,12,13.3,16,16C807.4,342.3,801.1,336,794.8,329.7z"/>
		<path class="st2" d="M913.8,206.7c4.1,4.1,8.3,8.3,12.4,12.4C920.9,216.3,917,211.9,913.8,206.7z"/>
		<path class="st2" d="M1006.7,171.5c5.2,4,10.5,8,15.9,12.1C1014.8,182.5,1012,175.4,1006.7,171.5z"/>
		<path class="st2" d="M1036,87.5c-3.8-3.8-7.6-7.6-11.5-11.5c0.1-0.1,0.3-0.2,0.4-0.3c3.8,3.8,7.6,7.6,11.4,11.4
			C1036.2,87.3,1036.1,87.4,1036,87.5z"/>
		<path class="st2" d="M860.8,261.2c-3.6-3.6-7.2-7.2-10.7-10.7c0.1-0.1,0.2-0.3,0.3-0.4c3.6,3.6,7.1,7.1,10.7,10.7
			C861,260.9,860.9,261.1,860.8,261.2z"/>
		<path class="st2" d="M799.4,301.2c2.9-1.6,2.9-1.6,6.1,6.1C803.6,305.5,801.5,303.3,799.4,301.2z"/>
		<path class="st2" d="M982.1,167.8c-3.5-3.2-7-6.4-10.5-9.5c0.2-0.3,0.5-0.5,0.7-0.7c3.6,3.1,7.2,6.2,10.7,9.3
			C982.8,167.1,982.4,167.4,982.1,167.8z"/>
		<path class="st2" d="M833.9,299.8c4.1,4.1,8.2,8.2,12.3,12.3c-0.1,0.1-0.2,0.2-0.3,0.3c-4.1-4.1-8.2-8.2-12.3-12.3
			C833.7,300,833.7,299.9,833.9,299.8z"/>
		<path class="st2" d="M1044.3,75.7c-2.7-3.5-5.2-7.1-7.9-10.6c0.2-0.1,0.3-0.3,0.5-0.5c2.8,3.3,5.8,6.6,8.6,9.9
			C1045.2,75,1044.7,75.3,1044.3,75.7z"/>
		<path class="st2" d="M945.7,166.8c-0.7,0.5-1.4,1-2,1.4c-1.9-1.7-4-3.4-6-5.2c2.1-2.3,3.1-0.5,4.4,1.1c1,1.1,2.3,1.9,3.5,2.8
			C945.7,167,945.7,166.8,945.7,166.8z"/>
		<path class="st2" d="M942.4,170.6c1.7,1.7,4.5,4.5,7.3,7.3C944.1,178,944.7,171.5,942.4,170.6z"/>
		<path class="st2" d="M873.6,249.7c-4.6-0.9-6.3-4.8-8.4-8.4C868,244,870.8,246.8,873.6,249.7z"/>
		<path class="st2" d="M887.9,240.6c-4.2-3.5-8.3-7-12.5-10.5c0.1-0.2,0.3-0.4,0.5-0.6c4.1,3.4,8.3,6.8,12.4,10.2
			C888.3,240.1,888.1,240.3,887.9,240.6z"/>
		<path class="st2" d="M902.5,227.9c-3-3-5.9-5.9-8.8-8.8c0.1-0.1,0.2-0.3,0.3-0.3c3,3,5.9,5.9,8.9,8.9
			C902.6,227.7,902.6,227.8,902.5,227.9z"/>
		<path class="st2" d="M929.9,187.8c2.5,3,5,6,7.7,9.1c-2.9-2.9-5.7-5.7-8.4-8.4C929.4,188.2,929.7,188,929.9,187.8z"/>
	</g>
	<g>
		<path class="st3" d="M836.3,209.4c-0.9-0.9-1.9-1.9-2.7-2.7c-0.3,0.1-0.5,0.2-0.7,0.3c0.3,1,0.7,1.9,0.9,2.9
			c0.1,0.9,0,1.9-0.1,3.7c-2.8-2.8-4.8-4.8-6.9-6.9c0.1-0.1,0.1-0.3,0.2-0.5c1.2,0.4,2.4,0.9,4.4,1.6
			c-13.1-13.1-25.5-25.5-37.9-37.9c0.2-0.3,0.5-0.5,0.7-0.7c1.5,1.3,3,2.6,4.4,3.9c7.4,7.2,14.4,14.8,22.5,21.3
			c3.1,2.5,6.7,4.5,9.5,7.4c2.2,2.3,4.2,4.8,6.3,7.2C836.7,209.1,836.5,209.2,836.3,209.4z"/>
		<path class="st3" d="M745.3,263.2c6.2,6,14.2,10.3,18.4,18.4c-0.3,0.3-0.5,0.5-0.7,0.7c-3.3-3-6.6-6-9.8-9c-3-2.9-6-6-9-9
			C744.5,264,744.9,263.6,745.3,263.2z"/>
		<path class="st3" d="M830.9,190.4c-1-1.5-2-2.9-3-4.4c0.4-0.3,0.8-0.5,1.2-0.8c1,1.7,2,3.4,3.1,5c1.1,1.7,2.4,3.2,3.7,4.7
			c2.5,2.6,5,5.1,7.6,7.6c-0.4,0.5-0.9,0.9-1.3,1.3c-6.6-5.9-12.9-12-18-19.5c2.1,2.1,4.2,4.2,6.4,6.4
			C830.6,190.7,830.7,190.5,830.9,190.4z"/>
		<path class="st3" d="M932.3,113.7c-8.5-9-17-18-25.5-27c0.1-0.1,0.1-0.1,0.2-0.2c3.2,2.7,6.6,5.4,9.6,8.3c3.1,3,5.8,6.4,8.7,9.5
			c2.7,2.8,5.7,5.4,8.2,8.4C933.1,113.1,932.7,113.4,932.3,113.7z"/>
		<path class="st3" d="M903,107.1c-3.9-3.9-7.9-7.9-11.8-11.8c-3.8-3.8-7.7-7.7-11.5-11.5c0.3-0.3,0.6-0.6,0.9-0.9
			c7.8,7.8,15.6,15.6,23.4,23.4C903.6,106.5,903.3,106.8,903,107.1z"/>
		<path class="st3" d="M922.6,72.7c-0.5-0.7-1.1-1.3-1.7-1.9c0.1-0.2,0.1-0.3,0.2-0.4c4.1,3.4,8.2,6.8,12.9,10.7
			c-3.9,0.9-4.3-2.7-6.4-3.5c-2.1-0.8-4.3-1.8-6.1-3.2c-2.1-1.5-3.7-3.6-5.5-5.4c0.2-0.3,0.5-0.5,0.7-0.9c1.9,1.6,3.7,3.2,5.6,4.8
			C922.3,72.9,922.5,72.8,922.6,72.7z"/>
		<path class="st3" d="M742.5,267.1c5.2,4.6,10.3,9.1,15.4,13.6c-0.3,0.3-0.5,0.6-0.8,0.9c-6.6-2.9-10.1-9.4-15.6-13.7
			C741.9,267.6,742.2,267.4,742.5,267.1z"/>
		<path class="st3" d="M961.9,85c-1.1,0.2-1.9,0.5-2.1,0.3c-5.3-5.6-10.5-11.1-15.8-16.8c0.3-0.3,0.5-0.5,0.7-0.7
			C950.3,73.4,955.9,79,961.9,85z"/>
		<path class="st3" d="M852.5,143.8c8.2,8.2,16.2,16.2,24.4,24.4c-0.1,0.1-0.3,0.3-0.5,0.5c-8.2-8.2-16.2-16.2-24.4-24.4
			C852.2,144.1,852.3,144,852.5,143.8z"/>
		<path class="st3" d="M767.6,228.6c-3.4-3.4-6.9-6.9-10.4-10.3c0.3-0.3,0.7-0.7,1-1c3.4,3.4,6.9,6.9,10.4,10.4
			C768.3,227.9,767.9,228.3,767.6,228.6z"/>
		<path class="st3" d="M763,261.5c5.1,2.3,8.7,5.8,11.7,10c-0.3,0.3-0.6,0.5-0.9,0.8C770.2,268.7,766.6,265.2,763,261.5z"/>
		<path class="st3" d="M765.9,279c-4.4-4.4-8.5-8.5-13-13c3.3,1.1,4.9,3.4,6.6,5.7C761.4,274.1,766.1,274,765.9,279z"/>
		<path class="st3" d="M810.5,166.8c3.4,3.4,6.8,6.8,10.1,10.1c-0.2,0.2-0.4,0.4-0.7,0.7C816.2,174.7,812.8,171.5,810.5,166.8z"/>
		<path class="st3" d="M816.6,206.9c3.6,3.6,7.3,7.3,10.9,10.9c-0.1,0.1-0.3,0.3-0.5,0.5c-3.7-3.7-7.4-7.4-11.1-11.1
			C816.2,207.2,816.4,207,816.6,206.9z"/>
		<path class="st3" d="M829.2,106.9c3.1,3.1,6.2,6.2,9.4,9.4c-0.1,0.1-0.3,0.3-0.5,0.4c-3.1-3.1-6.3-6.3-9.4-9.4
			C828.9,107.1,829.1,107,829.2,106.9z"/>
		<path class="st3" d="M761,232.8c5.2-0.1,3.2,7,5.7,7.2c-1.3-1.3-3.8-3.8-6.3-6.3C760.6,233.4,760.8,233.1,761,232.8z"/>
		<path class="st3" d="M870,157.9c-3.8-3.4-7.7-6.8-11.5-10.1c0.2-0.3,0.4-0.5,0.7-0.7C863.8,149.7,866.5,154.4,870,157.9z"/>
		<path class="st3" d="M860.3,175.6c-3-3-6-6-9-9c0.1-0.1,0.1-0.2,0.2-0.3c3.2,2.8,6.3,5.7,9.5,8.5
			C860.7,175,860.5,175.3,860.3,175.6z"/>
		<path class="st3" d="M769.7,224.7c2.8,2.8,5.6,5.6,8.5,8.5c-0.1,0.1-0.3,0.3-0.5,0.5c-2.8-2.8-5.6-5.6-8.5-8.5
			C769.4,225,769.5,224.9,769.7,224.7z"/>
		<path class="st3" d="M811.1,235c-3.4-3.4-6.8-6.8-10.3-10.3c0.1-0.1,0.1-0.1,0.3-0.3c3.6,3.2,7.3,6.4,10.9,9.6
			C811.7,234.4,811.4,234.7,811.1,235z"/>
		<path class="st3" d="M839,189.4c2.9,2.9,5.9,5.9,8.8,8.8c-0.3,0.3-0.6,0.5-0.9,0.9c-2.8-3.1-5.6-6.2-8.3-9.3
			C838.8,189.7,838.9,189.6,839,189.4z"/>
		<path class="st3" d="M904.2,124c-4.8-4.8-9.5-9.5-14.3-14.3c0.1-0.1,0.1-0.1,0.2-0.2c4.8,4.8,9.5,9.5,14.3,14.3
			C904.4,123.9,904.3,123.9,904.2,124z"/>
		<path class="st3" d="M850.8,182.8c2.2,1.9,6.2,2.4,6.8,5.8c-0.4,0.3-0.8,0.7-1.2,1C854.5,187.4,852.7,185.1,850.8,182.8z"/>
		<path class="st3" d="M901.9,137.3c-2.1-2.1-4.3-4.3-6.4-6.4c0.1-0.2,0.3-0.4,0.5-0.5c2.3,2.1,4.6,4,7,6.1
			C902.5,136.7,902.2,137,901.9,137.3z"/>
		<path class="st3" d="M945.1,65.4c4.1,4.1,8.2,8.2,12.3,12.3c-0.1,0.1-0.1,0.1-0.2,0.2c-4.1-4.1-8.2-8.2-12.3-12.3
			C945,65.5,945,65.4,945.1,65.4z"/>
		<path class="st3" d="M899.4,130.6c-3.1-3.1-6.2-6.2-9.3-9.3c0.1-0.1,0.3-0.3,0.5-0.5c3.1,3.1,6.3,6.3,9.4,9.4
			C899.8,130.4,899.6,130.5,899.4,130.6z"/>
	</g>
</g>
</svg>
